<?xml version="1.0" encoding="UTF-8" standalone="no"?>
<!DOCTYPE svg PUBLIC "-//W3C//DTD SVG 1.1 Tiny//EN" "http://www.w3.org/Graphics/SVG/1.1/DTD/svg11-tiny.dtd">
<svg xmlns="http://www.w3.org/2000/svg" xmlns:xlink="http://www.w3.org/1999/xlink" baseProfile="tiny" height="20" version="1.1" viewBox="0 0 20 20" width="20">
<g>
<linearGradient gradientUnits="userSpaceOnUse" id="XMLID_5_" x1="10.0005" x2="10.0005" y1="19.374" y2="0.5204">
<stop offset="0" style="stop-color:#1A8105"/>
<stop offset="1" style="stop-color:#ADCF2F"/>
</linearGradient>
<path d="M19.375,9.997c0,5.181-4.197,9.377-9.372,9.377c-5.181,0-9.377-4.196-9.377-9.377   c0-5.176,4.196-9.371,9.377-9.371C15.178,0.626,19.375,4.821,19.375,9.997" fill="url(#XMLID_5_)"/>
<path d="M19.355,9.997c0,5.16-4.195,9.357-9.352,9.357c-5.161,0-9.358-4.197-9.358-9.357   c0-2.498,0.973-4.847,2.74-6.612c1.767-1.768,4.118-2.74,6.618-2.74c2.497,0,4.846,0.973,6.612,2.74   C18.383,5.15,19.355,7.499,19.355,9.997H20c0-2.671-1.039-5.181-2.928-7.068C15.184,1.04,12.674,0,10.003,0   C7.331,0,4.818,1.04,2.929,2.929C1.041,4.815,0,7.326,0,9.997C0,15.513,4.488,20,10.003,20c2.67,0,5.18-1.041,7.069-2.93   S20,12.669,20,9.997H19.355z" fill="#1A8105"/>
<g>
<path d="M13.379,7.008C10.914,4.237,8.101,2.44,6.033,2.322c-0.829-0.05-1.511,0.159-2.031,0.622    c-0.962,0.85-1.699,2.987-1.833,5.317c-0.09,1.609,0.057,4.645,2.056,6.9C7.72,19.085,14.609,18.33,16.334,16.8    c0.52-0.463,0.809-1.12,0.855-1.952C17.309,12.773,15.848,9.77,13.379,7.008z M15.754,16.147    c-1.449,1.287-7.831,1.854-10.876-1.564C3.086,12.562,2.957,9.785,3.04,8.31c0.118-2.046,0.767-4.028,1.542-4.713    c0.341-0.304,0.812-0.439,1.402-0.405c1.844,0.108,4.429,1.793,6.744,4.396c2.322,2.598,3.699,5.36,3.594,7.21    C16.285,15.391,16.096,15.845,15.754,16.147z" fill="#1A1A1A"/>
<linearGradient gradientUnits="userSpaceOnUse" id="XMLID_6_" x1="2.5015" x2="11.9146" y1="4.7646" y2="14.1778">
<stop offset="0" style="stop-color:#E6E6E6"/>
<stop offset="0.5139" style="stop-color:#B3B3B3"/>
<stop offset="1" style="stop-color:#808080"/>
</linearGradient>
<path d="M13.053,7.297c-3.344-3.76-7.112-5.495-8.76-4.026C3.42,4.039,2.73,6.104,2.604,8.287    c-0.086,1.538,0.047,4.442,1.947,6.585c3.273,3.674,9.907,3.008,11.493,1.602C17.693,15.007,16.414,11.057,13.053,7.297z" fill="url(#XMLID_6_)"/>
<linearGradient gradientUnits="userSpaceOnUse" id="XMLID_7_" x1="5.1558" x2="15.0479" y1="9.9053" y2="9.9053">
<stop offset="0" style="stop-color:#808080"/>
<stop offset="1" style="stop-color:#1A1A1A"/>
</linearGradient>
<path d="M5.74,4.903c1.014-0.904,3.834,0.613,6.305,3.381c2.471,2.77,3.654,5.742,2.641,6.646    c-1.006,0.902-4.866-0.844-7.335-3.611C4.879,8.55,4.734,5.798,5.74,4.903" fill="url(#XMLID_7_)"/>
<path d="M13.525,3.913c1.012,0,1.938,0.771,2.182,1.885c0.268,1.271-0.455,2.496-1.617,2.74    c-0.141,0.031-0.283,0.047-0.416,0.047c-0.424,0-0.832-0.134-1.178-0.377l-2.002,3.43c0,0-0.094,0.024-0.259,0.024    c-0.353,0-1.036-0.109-1.656-0.808c-0.919-1.037-0.51-1.869-0.51-1.869l3.588-1.774c-0.135-0.219-0.102-0.243-0.158-0.518    c-0.266-1.265,0.457-2.489,1.619-2.74C13.25,3.922,13.391,3.913,13.525,3.913 M13.525,3.435c-0.166,0-0.338,0.016-0.512,0.055    c-1.412,0.308-2.299,1.783-1.979,3.298l0.023,0.157l0.01,0.031L7.856,8.562l-0.142,0.07l-0.07,0.149    C7.621,8.82,7.103,9.903,8.225,11.168c0.747,0.84,1.587,0.965,2.01,0.965c0.204,0,0.337-0.023,0.361-0.031l0.204-0.039    l0.103-0.181l1.765-3.03c0.322,0.134,0.66,0.204,1.006,0.204c0.172,0,0.346-0.016,0.518-0.055    c1.406-0.299,2.301-1.782,1.979-3.298C15.887,4.386,14.781,3.435,13.525,3.435" fill="#1A1A1A"/>
<linearGradient gradientUnits="userSpaceOnUse" id="XMLID_8_" x1="15.1553" x2="8.7754" y1="4.6968" y2="11.0766">
<stop offset="0" style="stop-color:#FFFFFF"/>
<stop offset="0.4207" style="stop-color:#CCCCCC"/>
<stop offset="1" style="stop-color:#808080"/>
</linearGradient>
<path d="M15.707,5.798c-0.244-1.114-1.17-1.885-2.182-1.885c-0.135,0-0.275,0.009-0.408,0.04    c-1.162,0.251-1.885,1.476-1.619,2.74c0.057,0.274,0.023,0.299,0.158,0.518L8.75,8.648L8.068,8.985c0,0-0.409,0.832,0.51,1.869    c0.62,0.698,1.304,0.808,1.656,0.808c0.165,0,0.259-0.024,0.259-0.024l1.608-2.756l0.395-0.674    c0.346,0.243,0.754,0.377,1.178,0.377c0.133,0,0.275-0.016,0.416-0.047C15.252,8.294,15.975,7.068,15.707,5.798z" fill="url(#XMLID_8_)"/>
</g>
<ellipse cx="10" cy="6.415" fill="#FFFFFF" fill-opacity="0.25" rx="6.972" ry="4.827" stroke-opacity="0.25"/>
</g>
</svg>
