<?xml version="1.0" encoding="UTF-8" standalone="no"?>
<!DOCTYPE svg PUBLIC "-//W3C//DTD SVG 1.1 Tiny//EN" "http://www.w3.org/Graphics/SVG/1.1/DTD/svg11-tiny.dtd">
<svg xmlns="http://www.w3.org/2000/svg" xmlns:xlink="http://www.w3.org/1999/xlink" baseProfile="tiny" height="20" version="1.1" viewBox="0 0 20 20" width="20">
<g>
<linearGradient gradientUnits="userSpaceOnUse" id="XMLID_5_" x1="10.0005" x2="10.0005" y1="19.374" y2="0.1555">
<stop offset="0" style="stop-color:#FF0000"/>
<stop offset="1" style="stop-color:#FF9100"/>
</linearGradient>
<path d="M19.375,9.997c0,5.181-4.197,9.377-9.372,9.377c-5.181,0-9.377-4.196-9.377-9.377   c0-5.176,4.196-9.371,9.377-9.371C15.178,0.626,19.375,4.821,19.375,9.997" fill="url(#XMLID_5_)"/>
<path d="M19.355,9.997c0,5.16-4.195,9.357-9.352,9.357c-5.161,0-9.358-4.197-9.358-9.357   c0-2.498,0.973-4.847,2.74-6.612c1.767-1.768,4.118-2.74,6.618-2.74C15.16,0.645,19.355,4.84,19.355,9.997H20   C20,4.484,15.516,0,10.003,0C7.331,0,4.818,1.04,2.929,2.929C1.041,4.815,0,7.326,0,9.997C0,15.513,4.487,20,10.003,20   C15.516,20,20,15.513,20,9.997H19.355z" fill="#FF0000"/>
<g>
<path d="M13.322,7.063C10.87,4.308,8.07,2.52,6.014,2.401C5.189,2.353,4.51,2.561,3.993,3.021    c-0.957,0.846-1.69,2.972-1.824,5.29c-0.09,1.601,0.056,4.621,2.046,6.865c3.477,3.902,10.33,3.152,12.047,1.63    c0.518-0.461,0.805-1.115,0.852-1.942C17.23,12.801,15.777,9.812,13.322,7.063z M15.686,16.157    c-1.443,1.28-7.792,1.844-10.822-1.557c-1.782-2.012-1.911-4.773-1.828-6.241C3.152,6.324,3.797,4.352,4.569,3.67    c0.339-0.303,0.808-0.438,1.395-0.402c1.835,0.107,4.406,1.783,6.708,4.373c2.311,2.583,3.68,5.332,3.576,7.173    C16.213,15.404,16.023,15.856,15.686,16.157z" fill="#1A1A1A"/>
<linearGradient gradientUnits="userSpaceOnUse" id="XMLID_6_" x1="2.5" x2="11.8647" y1="4.8325" y2="14.1972">
<stop offset="0" style="stop-color:#E6E6E6"/>
<stop offset="0.5139" style="stop-color:#B3B3B3"/>
<stop offset="1" style="stop-color:#808080"/>
</linearGradient>
<path d="M12.996,7.352C9.67,3.61,5.921,1.885,4.282,3.346c-0.868,0.765-1.555,2.819-1.68,4.99    c-0.086,1.531,0.047,4.421,1.938,6.552c3.256,3.655,9.857,2.993,11.433,1.594C17.615,15.022,16.342,11.093,12.996,7.352z" fill="url(#XMLID_6_)"/>
<linearGradient gradientUnits="userSpaceOnUse" id="XMLID_7_" x1="5.1406" x2="14.9824" y1="9.9468" y2="9.9468">
<stop offset="0" style="stop-color:#808080"/>
<stop offset="1" style="stop-color:#1A1A1A"/>
</linearGradient>
<path d="M5.722,4.97c1.009-0.898,3.815,0.61,6.272,3.364c2.457,2.756,3.637,5.713,2.627,6.611    c-1,0.898-4.84-0.839-7.297-3.593C4.866,8.598,4.721,5.86,5.722,4.97" fill="url(#XMLID_7_)"/>
<path d="M13.467,3.985c1.008,0,1.928,0.766,2.172,1.875c0.266,1.264-0.453,2.483-1.609,2.726    c-0.141,0.032-0.281,0.048-0.414,0.048c-0.422,0-0.828-0.135-1.172-0.376l-1.992,3.412c0,0-0.094,0.024-0.259,0.024    c-0.351,0-1.03-0.108-1.646-0.804C7.632,9.858,8.039,9.031,8.039,9.031l3.569-1.766c-0.133-0.218-0.102-0.241-0.156-0.515    c-0.266-1.258,0.453-2.476,1.609-2.727C13.193,3.993,13.334,3.985,13.467,3.985 M13.467,3.509c-0.164,0-0.336,0.016-0.508,0.055    c-1.406,0.306-2.289,1.773-1.969,3.28l0.024,0.157l0.008,0.031L7.828,8.609L7.686,8.68L7.617,8.828    c-0.023,0.039-0.539,1.116,0.578,2.374c0.742,0.837,1.578,0.961,1.998,0.961c0.203,0,0.336-0.024,0.36-0.031l0.202-0.039    l0.103-0.18l1.757-3.015c0.32,0.133,0.656,0.203,1,0.203c0.172,0,0.344-0.016,0.516-0.055C15.529,8.75,16.42,7.274,16.1,5.766    C15.818,4.455,14.717,3.509,13.467,3.509" fill="#1A1A1A"/>
<linearGradient gradientUnits="userSpaceOnUse" id="XMLID_8_" x1="15.0889" x2="8.7418" y1="4.7646" y2="11.1117">
<stop offset="0" style="stop-color:#FFFFFF"/>
<stop offset="0.4207" style="stop-color:#CCCCCC"/>
<stop offset="1" style="stop-color:#808080"/>
</linearGradient>
<path d="M15.639,5.86c-0.244-1.109-1.164-1.875-2.172-1.875c-0.133,0-0.273,0.008-0.406,0.039    c-1.156,0.251-1.875,1.469-1.609,2.727c0.055,0.273,0.023,0.297,0.156,0.515L8.716,8.696L8.039,9.031c0,0-0.407,0.827,0.508,1.859    c0.616,0.695,1.296,0.804,1.646,0.804c0.165,0,0.259-0.024,0.259-0.024l1.599-2.741l0.393-0.671    c0.344,0.241,0.75,0.376,1.172,0.376c0.133,0,0.273-0.016,0.414-0.048C15.186,8.344,15.904,7.124,15.639,5.86z" fill="url(#XMLID_8_)"/>
</g>
<ellipse cx="10.004" cy="6.415" fill="#FFFFFF" fill-opacity="0.25" rx="6.972" ry="4.827" stroke-opacity="0.25"/>
</g>
</svg>
