<?xml version="1.0" encoding="UTF-8"?>
<!DOCTYPE svg PUBLIC "-//W3C//DTD SVG 1.1 Tiny//EN" "http://www.w3.org/Graphics/SVG/1.1/DTD/svg11-tiny.dtd">
<svg baseProfile="tiny" version="1.1" xmlns="http://www.w3.org/2000/svg" xmlns:xlink="http://www.w3.org/1999/xlink" width="32" height="12" viewBox="0 0 32 12">
<g>
<path d="M1.558,0.249C1.557,0.249,1.557,0.249,1.558,0.249C1.047,0.467,0.653,0.791,0.387,1.214C0.13,1.622,0,2.099,0,2.634   c0,0.507,0.118,0.967,0.35,1.367C0.593,4.42,0.944,4.743,1.393,4.958C1.824,5.164,2.37,5.269,3.017,5.269   c0.507,0,0.958-0.055,1.341-0.164c0.384-0.108,0.802-0.302,1.28-0.59c0.149-0.09,0.239-0.24,0.239-0.399V2.343   c0-0.16-0.103-0.282-0.238-0.37c0.026-0.023,0.07-0.024,0.09-0.054c0.055-0.078,0.083-0.167,0.083-0.257   c0-0.043-0.006-0.087-0.02-0.13C5.686,1.196,5.519,0.91,5.298,0.681C5.066,0.442,4.774,0.266,4.43,0.154   C4.109,0.051,3.667,0,3.077,0C2.451,0,1.954,0.081,1.558,0.249z M3.007,1.889C2.899,1.906,2.793,1.932,2.716,1.996   C2.77,1.944,2.854,1.897,3.007,1.889z M2.68,2.047C2.636,2.095,2.621,2.156,2.601,2.216C2.626,2.13,2.653,2.083,2.68,2.047z"/>
<path d="M5.635,0.073c-0.302,0-0.546,0.217-0.546,0.483v4.157c0,0.268,0.245,0.484,0.546,0.484h1.457   c0.301,0,0.547-0.217,0.547-0.484c0,0,0-0.604,0-1.06c0.106,0,0.247,0,0.247,0c0.727,0,1.292-0.162,1.68-0.484   c0.399-0.331,0.601-0.78,0.601-1.337c0-0.543-0.189-0.979-0.562-1.294C9.24,0.228,8.715,0.073,8.047,0.073H5.635z"/>
<path d="M10.378,0.204C10,0.35,9.707,0.562,9.509,0.832c-0.198,0.269-0.298,0.562-0.298,0.87l0,0c0,0.45,0.202,0.843,0.574,1.141   C9.718,2.846,9.548,2.855,9.548,2.855c-0.147,0.008-0.284,0.069-0.38,0.168c-0.086,0.087-0.132,0.2-0.132,0.315   c0,0.014,0,0.027,0.001,0.041c0.052,0.535,0.28,0.985,0.68,1.339c0.418,0.371,1.087,0.55,2.046,0.55l0,0   c0.527,0,0.982-0.072,1.35-0.216c0.396-0.154,0.711-0.386,0.936-0.689s0.338-0.641,0.338-1.002c0-0.314-0.089-0.606-0.266-0.865   c-0.082-0.121-0.191-0.23-0.314-0.331c0.111-0.025,0.225-0.056,0.299-0.133c0.082-0.088,0.127-0.198,0.127-0.311   c0-0.02,0-0.04-0.004-0.059c-0.078-0.569-0.345-0.999-0.789-1.277C13.026,0.126,12.474,0,11.752,0   C11.182,0,10.732,0.066,10.378,0.204z M11.91,3.47L11.91,3.47L11.91,3.47z"/>
<path fill="#FFFFFF" d="M3.087,3.208V2.343H5.33v1.772C4.9,4.375,4.521,4.55,4.19,4.645C3.86,4.738,3.469,4.786,3.016,4.786   c-0.557,0-1.012-0.084-1.363-0.253S1.03,4.113,0.836,3.781c-0.193-0.333-0.29-0.716-0.29-1.146c0-0.454,0.106-0.849,0.317-1.184   c0.212-0.336,0.521-0.592,0.93-0.766C2.111,0.551,2.54,0.483,3.077,0.483c0.519,0,0.908,0.042,1.165,0.125   c0.257,0.083,0.471,0.213,0.641,0.389c0.17,0.175,0.297,0.396,0.383,0.665l-1.4,0.221C3.807,1.726,3.709,1.606,3.572,1.523   C3.435,1.44,3.259,1.398,3.046,1.398c-0.318,0-0.571,0.099-0.76,0.293C2.098,1.888,2.003,2.198,2.003,2.621   c0,0.449,0.095,0.771,0.287,0.964c0.19,0.191,0.457,0.289,0.798,0.289c0.162,0,0.317-0.021,0.464-0.063   C3.698,3.77,3.867,3.699,4.057,3.6V3.208H3.087z"/>
<path fill="#FFFFFF" d="M5.635,0.556h2.412c0.525,0,0.918,0.11,1.18,0.332C9.489,1.109,9.62,1.423,9.62,1.832   c0,0.42-0.143,0.748-0.428,0.983C8.906,3.053,8.471,3.171,7.885,3.171H7.091v1.542H5.635V0.556z M7.091,2.328h0.355   c0.28,0,0.476-0.043,0.589-0.128c0.113-0.086,0.17-0.196,0.17-0.33c0-0.13-0.049-0.241-0.147-0.332   C7.96,1.448,7.775,1.402,7.504,1.402H7.091V2.328z"/>
<path fill="#FFFFFF" d="M9.582,3.338l1.379-0.077c0.03,0.198,0.091,0.35,0.183,0.454c0.149,0.168,0.362,0.253,0.64,0.253   c0.207,0,0.367-0.043,0.479-0.129c0.112-0.086,0.168-0.187,0.168-0.299c0-0.108-0.054-0.204-0.16-0.29   c-0.105-0.085-0.354-0.166-0.743-0.241c-0.636-0.126-1.089-0.295-1.361-0.504c-0.273-0.211-0.41-0.479-0.41-0.804   c0-0.215,0.07-0.416,0.21-0.606c0.14-0.189,0.35-0.34,0.63-0.448c0.281-0.108,0.666-0.164,1.155-0.164   c0.599,0,1.058,0.1,1.372,0.296c0.314,0.197,0.502,0.512,0.563,0.941l-1.367,0.07c-0.035-0.187-0.112-0.321-0.229-0.406   c-0.115-0.084-0.277-0.127-0.482-0.127c-0.168,0-0.295,0.032-0.381,0.095c-0.085,0.064-0.128,0.142-0.128,0.231   c0,0.065,0.035,0.125,0.106,0.179c0.068,0.054,0.231,0.105,0.487,0.152c0.634,0.122,1.088,0.244,1.363,0.368   c0.272,0.124,0.473,0.277,0.598,0.461s0.187,0.389,0.187,0.615c0,0.267-0.083,0.513-0.25,0.737   c-0.167,0.227-0.399,0.396-0.698,0.512c-0.299,0.116-0.675,0.176-1.129,0.176c-0.799,0-1.352-0.137-1.659-0.409   C9.797,4.101,9.623,3.758,9.582,3.338z"/>
</g>
</svg>
