<?xml version="1.0" encoding="UTF-8" standalone="no"?>
<!DOCTYPE svg PUBLIC "-//W3C//DTD SVG 1.1 Tiny//EN" "http://www.w3.org/Graphics/SVG/1.1/DTD/svg11-tiny.dtd">
<svg xmlns="http://www.w3.org/2000/svg" xmlns:xlink="http://www.w3.org/1999/xlink" baseProfile="tiny" height="40px" version="1.1" viewBox="0 0 40 40" width="40px" x="0px" y="0px">
<circle cx="20.143" cy="20.107" fill="#FFFFFF" r="19.857"/>
<g>
<path d="M1.714,20.236C1.726,10.174,10.081,1.822,20.142,1.809l0,0l0,0c0.001,0,0.001,0,0.001,0l0,0   c10.062,0.013,18.415,8.365,18.428,18.427l0,0c-0.013,10.063-8.365,18.417-18.429,18.427l0,0   C10.08,38.653,1.726,30.299,1.714,20.236L1.714,20.236z M8.508,8.603c-3.011,3.012-4.887,7.141-4.887,11.633l0,0   c0,4.494,1.876,8.624,4.887,11.635l0,0c3.012,3.01,7.141,4.887,11.634,4.887l0,0c4.494,0,8.622-1.877,11.634-4.887l0,0   c3.013-3.013,4.887-7.142,4.887-11.635l0,0c0-4.493-1.874-8.622-4.887-11.633l0,0c-3.012-3.01-7.141-4.887-11.633-4.887l0,0   C15.649,3.716,11.52,5.592,8.508,8.603L8.508,8.603z M12.672,33.531c-0.097-0.052-0.184-0.116-0.258-0.195l0,0   c-0.001-0.001-0.002-0.002-0.002-0.002l0,0c-0.004-0.006-0.009-0.011-0.013-0.015l0,0c-0.001-0.003-0.003-0.005-0.005-0.006l0,0   c-0.003-0.005-0.006-0.008-0.009-0.011l0,0c-0.002-0.003-0.005-0.006-0.007-0.009l0,0c-0.002-0.002-0.004-0.005-0.006-0.008l0,0   c-0.003-0.003-0.006-0.007-0.009-0.01l0,0c-0.002-0.002-0.004-0.005-0.006-0.007l0,0c-0.003-0.004-0.005-0.008-0.008-0.012l0,0   c-0.002-0.002-0.003-0.006-0.005-0.007l0,0c-0.003-0.004-0.005-0.008-0.009-0.012l0,0c-0.001-0.002-0.003-0.005-0.004-0.007l0,0   c-0.003-0.004-0.006-0.008-0.009-0.011l0,0c-0.001-0.003-0.003-0.006-0.005-0.008l0,0c-0.002-0.004-0.005-0.007-0.007-0.011l0,0   c-0.002-0.003-0.004-0.006-0.006-0.009l0,0c-0.002-0.004-0.004-0.007-0.006-0.011l0,0c-0.002-0.003-0.004-0.006-0.007-0.011l0,0   c-0.002-0.003-0.003-0.005-0.005-0.008l0,0c-0.002-0.005-0.005-0.009-0.007-0.014l0,0c-0.001-0.002-0.002-0.003-0.003-0.005l0,0   c-0.003-0.006-0.006-0.01-0.008-0.016l0,0c-0.001-0.002-0.001-0.003-0.002-0.005l0,0c-0.003-0.005-0.006-0.011-0.009-0.017l0,0   c0-0.001,0-0.002-0.001-0.003l0,0c-0.003-0.006-0.007-0.014-0.01-0.02l0,0h0l0,0c-0.01-0.021-0.018-0.041-0.026-0.062l0,0v-0.002   l0,0c-0.002-0.007-0.005-0.013-0.007-0.019l0,0c0-0.002-0.001-0.003-0.001-0.004l0,0c-0.001-0.006-0.003-0.01-0.005-0.017l0,0   c-0.001-0.001-0.002-0.004-0.002-0.006l0,0c-0.001-0.004-0.002-0.007-0.004-0.012l0,0c-0.001-0.004-0.001-0.008-0.003-0.011l0,0   c0-0.003-0.001-0.005-0.002-0.008l0,0c-0.001-0.007-0.003-0.012-0.005-0.018l0,0c0,0,0,0,0-0.001l0,0   c-0.021-0.077-0.032-0.156-0.033-0.235l0,0c-0.004-0.105-0.006-0.212-0.007-0.32l0,0c0.008-4.467,3.41-8.327,7.888-8.842l0,0h0.214   c4.477,0.515,7.877,4.375,7.884,8.842l0,0c0,0.115-0.001,0.229-0.006,0.344l0,0l-0.482,0.794c-2.309,1.309-4.908,1.959-7.504,1.959   l0,0C17.558,35.471,14.972,34.826,12.672,33.531L12.672,33.531z M20.142,33.565c2.098,0,4.194-0.487,6.082-1.452l0,0   c-0.122-3.339-2.734-6.25-6.082-6.673l0,0c-3.347,0.422-5.959,3.334-6.083,6.673l0,0C15.947,33.078,18.044,33.565,20.142,33.565   L20.142,33.565z M24.151,22.971l0.496-0.476l-0.554-0.127c0.806-3.449,3.925-5.646,7.19-5.647l0,0c1.183,0,2.394,0.291,3.51,0.919   l0,0l0.479,0.714c0.075,0.622,0.114,1.248,0.114,1.872l0,0c0,2.619-0.671,5.218-1.97,7.514l0,0   c-0.121,0.216-0.316,0.364-0.533,0.436l0,0l0,0l0,0c-0.095,0.031-0.192,0.048-0.293,0.049l0,0   c-0.104,0.004-0.207,0.005-0.311,0.005l0,0C28.806,28.226,25.583,26.166,24.151,22.971L24.151,22.971z M32.018,26.319   c0.964-1.883,1.464-3.982,1.464-6.093l0,0c0-0.38-0.017-0.76-0.048-1.14l0,0c-0.697-0.313-1.425-0.458-2.149-0.459l0,0   c-2.324,0-4.564,1.517-5.252,3.861l0,0C27.165,24.733,29.51,26.225,32.018,26.319L32.018,26.319z M7.662,28.224L6.868,27.74   c-1.302-2.296-1.971-4.896-1.971-7.515l0,0c0-0.61,0.036-1.222,0.111-1.831l0,0c0.024-0.301,0.191-0.584,0.471-0.747l0,0   c0.003-0.001,0.005-0.003,0.009-0.005l0,0c0.001,0,0.002-0.001,0.003-0.001l0,0c1.116-0.628,2.327-0.921,3.511-0.92l0,0   c3.265,0.001,6.383,2.197,7.189,5.645l0,0l-0.059,0.604c-1.432,3.194-4.654,5.255-8.129,5.259l0,0   C7.887,28.229,7.773,28.228,7.662,28.224L7.662,28.224z M6.802,20.226c0,2.111,0.499,4.211,1.463,6.093l0,0   c2.508-0.094,4.854-1.585,5.987-3.831l0,0c-0.688-2.345-2.928-3.86-5.251-3.86l0,0c-0.725,0-1.453,0.146-2.151,0.459l0,0   C6.819,19.465,6.802,19.845,6.802,20.226L6.802,20.226z M22.138,16.833l-0.011-0.007l0,0c0,0-0.007-0.003-0.019-0.008l0,0   c-0.023-0.011-0.063-0.029-0.116-0.05l0,0c-0.108-0.043-0.266-0.101-0.461-0.157l0,0c-0.389-0.113-0.925-0.221-1.503-0.221l0,0   c-0.612,0.001-1.26,0.115-1.886,0.446l0,0c-1.075,0.571-2.232,0.837-3.363,0.837l0,0c-3.241-0.001-6.329-2.167-7.164-5.562l0,0   l0.153-0.783C10.617,7.383,15.234,5,20.106,4.987l0,0c0.012-0.001,0.025-0.001,0.037-0.001l0,0   c4.884,0.003,9.52,2.387,12.374,6.344l0,0l0.154,0.783c-0.837,3.396-3.925,5.56-7.165,5.561l0,0   C24.373,17.674,23.214,17.406,22.138,16.833L22.138,16.833z M25.506,15.768c2.266,0,4.45-1.443,5.193-3.688l0,0   c-2.51-3.239-6.45-5.189-10.558-5.188l0,0c-4.108-0.001-8.045,1.949-10.555,5.187l0,0c0.743,2.243,2.926,3.688,5.192,3.688l0,0   c0.835-0.001,1.675-0.194,2.47-0.616l0,0c0.954-0.505,1.93-0.668,2.779-0.668l0,0c1.421,0.006,2.5,0.431,2.883,0.604l0,0   c0.049,0.025,0.073,0.033,0.128,0.065l0,0C23.832,15.573,24.672,15.768,25.506,15.768L25.506,15.768z"/>
</g>
<path d="M28.782,18.137c1.974-0.817,4.119-0.566,5.803,0.486c0.287-1.245,0.206-2.587-0.32-3.857  c-0.526-1.27-1.416-2.277-2.501-2.954c-0.446,1.934-1.786,3.629-3.759,4.446c-1.826,0.756-3.802,0.595-5.42-0.267  c-0.119-0.076-0.242-0.146-0.368-0.211c-0.005-0.003-0.009-0.005-0.014-0.008c0,0,0,0.001-0.001,0.001  c-0.618-0.314-1.318-0.495-2.06-0.495c-0.741,0-1.439,0.18-2.059,0.494c0,0,0-0.001,0-0.001c-0.003,0.001-0.006,0.003-0.009,0.005  c-0.131,0.067-0.256,0.139-0.379,0.217c-1.618,0.859-3.59,1.019-5.414,0.263c-1.972-0.817-3.313-2.513-3.759-4.446  c-1.083,0.677-1.975,1.685-2.5,2.954s-0.607,2.612-0.32,3.857c1.683-1.052,3.83-1.303,5.802-0.486  c1.973,0.817,3.313,2.513,3.76,4.447c-0.384,0.859-0.929,1.665-1.635,2.371c-1.887,1.888-4.487,2.624-6.933,2.216  c0.264,1.574,1,3.085,2.215,4.299c1.215,1.216,2.726,1.952,4.3,2.217c-0.409-2.446,0.329-5.047,2.215-6.933  c1.322-1.322,2.995-2.078,4.718-2.273c1.724,0.195,3.396,0.951,4.719,2.273c1.886,1.886,2.623,4.486,2.214,6.933  c1.575-0.265,3.085-1.001,4.3-2.217c1.216-1.214,1.952-2.725,2.215-4.299c-2.445,0.408-5.045-0.328-6.932-2.216  c-0.706-0.706-1.251-1.512-1.636-2.371c0,0,0,0,0.001,0C25.47,20.649,26.811,18.953,28.782,18.137z" fill="#333333"/>
<path d="M20.123,2.633C10.472,2.634,2.65,10.456,2.649,20.107c0.001,9.652,7.823,17.474,17.474,17.474  s17.473-7.822,17.474-17.474C37.596,10.456,29.773,2.634,20.123,2.633z M20.123,35.834c-8.687,0-15.725-7.04-15.727-15.727  c0.001-8.686,7.04-15.725,15.727-15.726c8.686,0.001,15.726,7.041,15.726,15.726C35.849,28.794,28.809,35.834,20.123,35.834z" fill="#333333"/>
<path d="M20.123,4.381C11.436,4.382,4.397,11.421,4.396,20.107c0.001,8.687,7.04,15.727,15.727,15.727  c8.686,0,15.726-7.04,15.726-15.727C35.849,11.421,28.809,4.382,20.123,4.381z M30.232,30.216c-2.592,2.59-6.156,4.188-10.11,4.188  c-3.952-0.001-7.517-1.599-10.108-4.188c-2.59-2.591-4.187-6.155-4.188-10.109c0.001-3.953,1.598-7.517,4.188-10.109  c2.592-2.59,6.156-4.187,10.108-4.188c3.954,0,7.518,1.598,10.11,4.188c2.589,2.593,4.187,6.156,4.188,10.109  C34.419,24.061,32.821,27.625,30.232,30.216z" fill="#4D4D4D"/>
<g>
<path d="M15.764,19.853c0-2.419,1.96-4.378,4.379-4.378l0,0c2.418,0,4.378,1.959,4.379,4.378l0,0   c-0.001,2.418-1.961,4.377-4.379,4.378l0,0C17.724,24.23,15.764,22.271,15.764,19.853L15.764,19.853z M17.67,19.853   c0.002,1.366,1.107,2.47,2.473,2.472l0,0c1.364-0.002,2.47-1.106,2.472-2.472l0,0c-0.002-1.366-1.107-2.47-2.472-2.472l0,0   C18.777,17.383,17.672,18.487,17.67,19.853L17.67,19.853z"/>
</g>
<circle cx="20.142" cy="19.853" fill="#06EB00" r="3.425"/>
<circle cx="19.507" cy="19.217" fill="#FFFFFF" r="1.713"/>
</svg>
