<?xml version="1.0" encoding="UTF-8" standalone="no"?>
<!DOCTYPE svg PUBLIC "-//W3C//DTD SVG 1.1 Tiny//EN" "http://www.w3.org/Graphics/SVG/1.1/DTD/svg11-tiny.dtd">
<svg xmlns="http://www.w3.org/2000/svg" xmlns:xlink="http://www.w3.org/1999/xlink" baseProfile="tiny" height="60px" version="1.1" viewBox="0 0 60 60" width="60px" x="0px" y="0px">
<g>
<path d="M57.997,45.833H11.448c-1.109,0-2.01,0.903-2.01,2.013c0,1.108,0.9,2.01,2.01,2.01h46.549   c1.104,0,2.003-0.901,2.003-2.01C60,46.736,59.101,45.833,57.997,45.833z" fill="#333333"/>
</g>
<g>
<path d="M57.997,34.391H11.448c-1.109,0-2.01,0.9-2.01,2.008c0,1.109,0.9,2.011,2.01,2.011h46.549   c1.104,0,2.003-0.901,2.003-2.011C60,35.291,59.101,34.391,57.997,34.391z" fill="#333333"/>
</g>
<g>
<path d="M57.997,23.486H11.448c-1.109,0-2.01,0.903-2.01,2.013c0,1.105,0.9,2.007,2.01,2.007h46.549   c1.104,0,2.003-0.901,2.003-2.007C60,24.39,59.101,23.486,57.997,23.486z" fill="#333333"/>
</g>
<g>
<path d="M11.448,16.172h46.549c1.104,0,2.003-0.901,2.003-2.007c0-1.109-0.899-2.012-2.003-2.012H11.448   c-1.109,0-2.01,0.902-2.01,2.012C9.438,15.271,10.339,16.172,11.448,16.172z" fill="#333333"/>
</g>
<circle cx="2.913" cy="14.164" fill="#333333" r="2.912"/>
<circle cx="2.913" cy="25.497" fill="#333333" r="2.911"/>
<circle cx="2.92" cy="36.185" fill="#333333" r="2.912"/>
<circle cx="2.913" cy="47.843" fill="#333333" r="2.912"/>
</svg>
