<?xml version="1.0" encoding="UTF-8" standalone="no"?>
<!DOCTYPE svg PUBLIC "-//W3C//DTD SVG 1.1 Tiny//EN" "http://www.w3.org/Graphics/SVG/1.1/DTD/svg11-tiny.dtd">
<svg xmlns="http://www.w3.org/2000/svg" xmlns:xlink="http://www.w3.org/1999/xlink" baseProfile="tiny" height="60px" version="1.1" viewBox="0 0 60 60" width="60px" x="0px" y="0px">
<g>
<g>
<path d="M5.927,39.389l37.74-37.736C44.753,0.549,46.206-0.002,47.632,0l0,0c1.426-0.002,2.871,0.555,3.955,1.639    l0,0l6.779,6.781l0,0c1.09,1.086,1.639,2.529,1.635,3.953l0,0c0.004,1.42-0.545,2.865-1.635,3.955l0,0L21.056,53.643l0,0L0.001,60    L5.927,39.389z M47.067,5.029l-2.711,2.713l-0.705,0.707l-1.648,1.646l-1.131,1.131l-0.582,0.584L12.11,39.988l-1.916,1.916    l-0.746,2.594l-2.447,8.504l0.422-0.117l7.764-2.232l2.916-0.84l0.967-0.967l29.979-29.982l0.006-0.002l0.855-0.855l2.355-2.357    l2.711-2.707c0.16-0.16,0.23-0.354,0.234-0.568l0,0c-0.004-0.219-0.08-0.41-0.229-0.561l0,0l1.689-1.697l-1.695,1.695    l-6.779-6.781c-0.162-0.162-0.355-0.232-0.564-0.232l0,0C47.413,4.797,47.228,4.871,47.067,5.029L47.067,5.029z" fill="#333333"/>
</g>
<path d="M49.894,21.414c-1.248,1.25-3.27,1.248-4.52,0l-6.779-6.779c-1.248-1.248-1.248-3.27,0-4.518l6.779-6.779   c1.248-1.248,3.273-1.25,4.52,0l6.779,6.779c1.248,1.246,1.248,3.271,0,4.518L49.894,21.414z" fill="#FF9999"/>
<linearGradient gradientTransform="matrix(0.7071 0.7071 -0.7071 0.7071 68.5488 8.7858)" gradientUnits="userSpaceOnUse" id="SVGID_1_" x1="-18.7261" x2="-4.9948" y1="12.6094" y2="69.9862">
<stop offset="0" style="stop-color:#FF7F00"/>
<stop offset="0.0056" style="stop-color:#FF7F00"/>
<stop offset="0.1562" style="stop-color:#FF8B00"/>
<stop offset="0.428" style="stop-color:#FFAB00"/>
<stop offset="0.7874" style="stop-color:#FFDE00"/>
<stop offset="1" style="stop-color:#FFFF00"/>
</linearGradient>
<path d="M11.396,40.65c0,0.912-0.369,1.736-0.961,2.336c0.602-0.592,1.426-0.959,2.336-0.959   c1.842,0,3.334,1.49,3.334,3.332c0,0.912-0.369,1.736-0.961,2.336c0.602-0.592,1.426-0.959,2.338-0.959   c1.84,0,3.332,1.49,3.332,3.332c0,0.164-0.027,0.318-0.049,0.475l32.49-32.49L41.956,6.756L10.419,38.293   C11.021,38.896,11.396,39.729,11.396,40.65z" fill="url(#SVGID_1_)"/>
<path d="M20.813,50.068c0-1.842-1.492-3.332-3.332-3.332c-0.912,0-1.736,0.367-2.338,0.959   c-0.006,0.008-0.01,0.014-0.016,0.02s-0.014,0.01-0.02,0.016c0.006-0.006,0.01-0.012,0.016-0.02   c0.006-0.006,0.014-0.008,0.02-0.016c0.592-0.6,0.961-1.424,0.961-2.336c0-1.842-1.492-3.332-3.334-3.332   c-0.91,0-1.734,0.367-2.336,0.959c-0.006,0.008-0.01,0.014-0.016,0.02s-0.014,0.01-0.02,0.016c0.006-0.006,0.01-0.014,0.016-0.02   s0.014-0.008,0.02-0.016c0.592-0.6,0.961-1.424,0.961-2.336c0-0.922-0.375-1.754-0.977-2.357L8.062,40.65l0,0l-0.916,3.188   L3.503,56.506l12.35-3.549l3.51-1.01H19.36l1.404-1.404C20.786,50.387,20.813,50.232,20.813,50.068z" fill="#FFFFC8"/>
<polygon fill="#333333" points="8.315,55.287 4.724,51.695 3.274,56.734  "/>
<linearGradient gradientTransform="matrix(0.7071 0.7071 -0.7071 0.7071 68.5488 8.7858)" gradientUnits="userSpaceOnUse" id="SVGID_2_" x1="-20.2397" x2="-4.2607" y1="18.0342" y2="18.0342">
<stop offset="0" style="stop-color:#BFBFBF"/>
<stop offset="0.0809" style="stop-color:#E0E0E0"/>
<stop offset="0.1538" style="stop-color:#F7F7F7"/>
<stop offset="0.2" style="stop-color:#FFFFFF"/>
<stop offset="0.2423" style="stop-color:#F8F8F8"/>
<stop offset="0.3032" style="stop-color:#E5E5E5"/>
<stop offset="0.3756" style="stop-color:#C6C6C6"/>
<stop offset="0.456" style="stop-color:#9A9A9A"/>
<stop offset="0.5" style="stop-color:#808080"/>
<stop offset="0.8" style="stop-color:#FFFFFF"/>
<stop offset="1" style="stop-color:#BFBFBF"/>
</linearGradient>
<polygon fill="url(#SVGID_2_)" points="51.606,19.701 40.308,8.404 42.663,6.049 53.962,17.348  "/>
<g fill-opacity="0.75" stroke-opacity="0.75">
<polygon fill="#FFFFC8" points="10.519,43.559 41.86,12.215 42.993,13.346 11.651,44.689 10.519,43.559   "/>
</g>
<g fill-opacity="0.75" stroke-opacity="0.75">
<polygon fill="#FFFFC8" points="15.368,48.408 46.71,17.064 47.839,18.193 16.497,49.535 15.368,48.408   "/>
</g>
<rect fill="#FFFFC8" fill-opacity="0.75" height="1.597" stroke-opacity="0.75" transform="matrix(0.7071 0.7071 -0.7071 0.7071 23.6318 -27.8158)" width="15.979" x="37.403" y="13.82"/>
<path d="M10.435,42.986c-0.006,0.008-0.014,0.01-0.02,0.016l0.004,0.004C10.425,43,10.429,42.994,10.435,42.986z" fill="#FFFFC8"/>
<path d="M10.415,43.002c-0.006,0.006-0.01,0.014-0.016,0.02c0.006-0.006,0.014-0.01,0.02-0.016L10.415,43.002z" fill="#FFFFC8"/>
<rect fill="#FFFFC8" height="0" width="0.006" x="10.414" y="43.004"/>
<path d="M15.128,47.715c0.006-0.006,0.01-0.012,0.016-0.02c-0.006,0.008-0.014,0.01-0.02,0.016L15.128,47.715z" fill="#FFFFC8"/>
<path d="M15.108,47.73c0.006-0.006,0.014-0.01,0.02-0.016l-0.004-0.004C15.118,47.719,15.114,47.725,15.108,47.73z" fill="#FFFFC8"/>
<rect fill="#FFFFC8" height="0" width="0.006" x="15.123" y="47.713"/>
</g>
</svg>
