<?xml version="1.0" encoding="UTF-8" standalone="no"?>
<!DOCTYPE svg PUBLIC "-//W3C//DTD SVG 1.1 Tiny//EN" "http://www.w3.org/Graphics/SVG/1.1/DTD/svg11-tiny.dtd">
<svg xmlns="http://www.w3.org/2000/svg" xmlns:xlink="http://www.w3.org/1999/xlink" baseProfile="tiny" height="94.074px" version="1.1" viewBox="0 0 94.654 94.074" width="94.654px" x="0px" y="0px">
<g>
<linearGradient gradientUnits="userSpaceOnUse" id="SVGID_1_" x1="49.8936" x2="60.3935" y1="74.0493" y2="20.0496">
<stop offset="0" style="stop-color:#BAB499"/>
<stop offset="0.533" style="stop-color:#C9C6AA"/>
<stop offset="1" style="stop-color:#EEEFE6"/>
</linearGradient>
<path d="M24.198,9.459c12.807-1.337,25.73-1.536,38.572-0.604c6.48,0.47,12.939,1.228,19.353,2.268   c3.229,0.523,6.445,1.119,9.646,1.784c0.386,0.08,0.771,0.161,1.156,0.244c0.521,0.111,0.788-0.042,0.733,0.562   c-0.071,0.792-0.143,1.583-0.215,2.375c-0.155,1.712-0.312,3.425-0.471,5.137c-1.205,13.042-2.484,26.076-3.841,39.103   c-0.669,6.428-1.356,12.854-2.063,19.277c-6.282,0.406-12.547,1.102-18.765,2.085c-12.223,1.935-24.268,4.987-35.934,9.115   c-2.502-26.334-5.144-52.654-7.92-78.96C24.366,11.048,24.282,10.253,24.198,9.459" fill="url(#SVGID_1_)"/>
<linearGradient gradientUnits="userSpaceOnUse" id="SVGID_2_" x1="81.3486" x2="88.8926" y1="64.7554" y2="40.9634">
<stop offset="0" style="stop-color:#00B400"/>
<stop offset="0.533" style="stop-color:#00C600"/>
<stop offset="1" style="stop-color:#40EF3A"/>
</linearGradient>
<path d="M92.962,21.924c-0.837,8.444-1.674,16.888-2.511,25.332c-1.036,10.453-2.073,20.906-3.109,31.358   c-0.006,0.062-0.083,1.116-0.114,1.117c-1.413,0.055-2.825,0.13-4.237,0.211c-2.723,0.158-5.444,0.349-8.158,0.622   c-2.3,0.231-4.724,0.413-6.939,1.113c-0.229-0.526,0.221-1.912,0.297-2.446c0.306-2.148,0.675-4.287,1.085-6.417   C70.588,66,72.33,59.255,74.587,52.691C78.446,41.466,83.911,29.91,92.962,21.924" fill="url(#SVGID_2_)"/>
<path d="M32.383,90.762c-3.317-25.748-6.996-51.45-11.012-77.099c-0.389-2.486-0.782-4.973-1.178-7.458   c-0.083-0.524-0.167-1.048-0.25-1.573c-0.192-0.361-0.087-0.52,0.314-0.475c0.377-0.081,0.755-0.161,1.132-0.24   c1.26-0.263,2.521-0.513,3.786-0.75c4.814-0.904,9.663-1.622,14.533-2.152c2.699,25.934,5.04,51.906,6.992,77.907   C41.672,82.545,36.892,86.51,32.383,90.762" fill="#DECE87"/>
<linearGradient gradientUnits="userSpaceOnUse" id="SVGID_3_" x1="34.9326" x2="19.4307" y1="66.0337" y2="16.0276">
<stop offset="0" style="stop-color:#BAB499"/>
<stop offset="0.533" style="stop-color:#C9C6AA"/>
<stop offset="1" style="stop-color:#EEEFE6"/>
</linearGradient>
<path d="M18.092,92.667C13.523,67.109,8.571,41.617,3.34,16.188C2.672,12.942,2,9.697,1.322,6.454   c-0.07-0.336-0.14-0.673-0.212-1.008C1.034,5.086,1.224,5.182,1.53,5.118c0.764-0.154,1.529-0.304,2.294-0.45   c1.659-0.316,3.322-0.613,4.988-0.89c6.413-1.067,12.874-1.848,19.356-2.337c3.249-0.246,6.502-0.418,9.758-0.518   c0.391-0.012,0.783-0.022,1.174-0.033c0.532-0.013,0.762-0.23,0.822,0.379c0.079,0.794,0.157,1.588,0.234,2.382   c0.168,1.717,0.335,3.434,0.5,5.151c0.632,6.565,1.242,13.133,1.831,19.703c1.159,12.952,2.232,25.912,3.217,38.878   c0.243,3.203,0.48,6.405,0.713,9.609c0.028,0.383,0.056,0.767,0.083,1.149c0.037,0.504,0.229,0.701-0.292,0.896   c-0.694,0.26-1.386,0.524-2.076,0.794c-1.496,0.583-2.983,1.188-4.462,1.813c-5.693,2.411-11.253,5.136-16.648,8.155   C21.363,90.731,19.727,91.697,18.092,92.667" fill="url(#SVGID_3_)"/>
<g>
<g>
<path d="M46.393,81.496" fill="#4C3800"/>
<path d="M46.393,81.496" fill="#4C3800"/>
</g>
</g>
<g>
<g>
<path d="M31.569,84.453" fill="#4C3800"/>
<path d="M31.569,84.453" fill="#4C3800"/>
</g>
</g>
<path d="M31.654,62.458c-1.514-2.287,0.216-4.301,1.583-6.115c1.363-1.809,0.925-3.926,0.622-6.011   c-0.416-2.863-3.078-3.499-5.646-3.609c-3.798-0.163-7.681,0.67-11.292,1.782c-1.774,0.547-3.524,1.194-5.196,2.004   c-0.35,0.169-0.696,0.347-1.037,0.533c-0.64,0.351-0.627,0.376-0.464,1.138c0.361,1.679,0.719,3.357,1.076,5.037   c2.495,11.746,4.901,23.512,7.214,35.295c-0.275-0.494,13.354-7.455,14.28-7.911c3.529-1.737,7.116-3.414,10.828-4.727   c0.722-0.256,1.45-0.495,2.187-0.705c0.65-0.185,0.735-0.13,0.713-0.801c-0.056-1.73-0.419-3.521-1.042-5.135   c-0.833-2.16-2.818-4.316-4.743-5.602c-1.558-1.039-3.361-1.671-5.159-2.154C33.806,65.001,32.65,63.967,31.654,62.458" fill="#FFFFFF"/>
<path d="M17.343,55.338c-1.801-0.24-2.855,1.186-3.699,2.573c-0.353,0.58-0.678,1.178-0.994,1.779   c-0.221,0.42-0.436,0.844-0.648,1.268c-0.258,0.515-0.042,0.971,0.074,1.52c0.438,2.08,0.874,4.16,1.307,6.241   c1.662,7.991,3.282,15.991,4.86,23.999c-0.305-0.54,10.631-5.951,11.442-6.389c2.438-1.317,4.91-2.668,7.068-4.42   c1.511-1.228,3.119-2.85,3.28-4.902c0.267-3.402-3.674-5.582-6.197-6.921c-2.388-1.267-4.819-2.29-6.963-3.974   c-1.625-1.277-3.057-2.779-4.312-4.419c-1.061-1.385-1.962-2.874-2.952-4.308C19.073,56.61,18.364,55.499,17.343,55.338" fill="#3646E8"/>
<path d="M12.753,2.972c2.971,14.703,5.795,29.436,8.475,44.195c2.122-0.633,4.257-1.223,6.4-1.78   c0.244-0.063,0.489-0.126,0.733-0.189c-0.052-0.25-0.104-0.5-0.155-0.749c-0.129-0.625-0.26-1.25-0.39-1.875   c-0.262-1.254-0.525-2.507-0.79-3.76c-0.989-4.679-2-9.353-3.034-14.022c-1.048-4.737-2.119-9.469-3.211-14.195   c-0.537-2.324-1.079-4.646-1.626-6.968c-0.128-0.542-0.031-1.179-0.662-1.153c-0.64,0.026-1.278,0.08-1.915,0.144   C15.304,2.747,14.033,2.913,12.753,2.972" fill="#FFFFFF"/>
<path d="M93.558,15.041C78.828,27.034,69.896,45.033,65.605,63.279c-1.394,5.926-2.285,11.979-2.557,18.063   c-0.043,0.969-0.274,1.188,0.646,1.056c0.777-0.111,1.551-0.249,2.324-0.387c0.239-0.042,1.847-0.163,1.882-0.409   c0.483-3.302,1.229-6.584,1.973-9.834c1.529-6.689,3.362-13.319,5.624-19.799c2.467-7.067,5.42-14.105,9.591-20.352   c2.142-3.208,4.659-6.268,7.788-8.562c0.228-0.167,0.212-1.078,0.241-1.319c0.11-0.907,0.195-1.818,0.271-2.729   c0.076-0.902,0.144-1.805,0.188-2.709C93.583,16.182,93.527,15.065,93.558,15.041" fill="#FFFFFF"/>
<path d="M47.099,7.717c1.083,25.85,2.011,51.706,2.778,77.567c1.487-0.313,2.978-0.612,4.472-0.896   c0.373-0.071,0.747-0.141,1.121-0.21c0.571-0.105,0.369-0.328,0.359-0.844c-0.018-0.903-0.036-1.807-0.054-2.71   c-0.064-3.218-0.132-6.436-0.202-9.654c-0.141-6.422-0.295-12.843-0.464-19.265c-0.343-12.992-0.751-25.983-1.237-38.972   c-0.035-0.926-0.07-1.852-0.105-2.778c-0.021-0.53-0.041-1.061-0.062-1.591c-0.462,0.008-0.924-0.021-1.384-0.07   C50.583,8.108,48.859,7.627,47.099,7.717" fill="#FFFFFF"/>
<path d="M90.12,51.203c-15.193-2.756-30.614-4.246-46.055-4.443c0.078,1.023,0.154,2.047,0.231,3.07   c0.038,0.512,0.076,1.022,0.114,1.534c0.019,0.256,0.038,0.511,0.057,0.767c-0.1,0.388,0.041,0.514,0.421,0.378   c2.092-0.026,4.184-0.029,6.276-0.007c4.311,0.046,8.621,0.194,12.925,0.445c8.608,0.503,17.193,1.416,25.716,2.732   C89.911,54.187,90.017,52.695,90.12,51.203" fill="#FFFFFF"/>
<path d="M4.059,21.937c0.482,1.927,0.961,3.854,1.438,5.783c11.985-3.083,24.244-5.101,36.585-6.018   c-0.174-1.814-0.351-3.628-0.528-5.442c-0.05-0.514,0.142-0.797-0.46-0.749c-0.512,0.041-1.023,0.084-1.535,0.128   c-0.895,0.079-1.789,0.163-2.682,0.253c-3.697,0.373-7.384,0.846-11.055,1.42C18.49,18.457,11.222,20.002,4.059,21.937" fill="#F9F906"/>
<path d="M92.177,30.525c-16.441-3.099-33.218-4.406-49.94-3.873c0.316,2.175,0.628,4.351,0.937,6.527   c-0.074,0.394,0.074,0.512,0.444,0.353c0.26-0.02,0.52-0.04,0.779-0.059c0.65-0.048,1.3-0.092,1.95-0.134   c1.171-0.075,2.342-0.141,3.514-0.197c4.698-0.225,9.403-0.294,14.105-0.21c9.338,0.167,18.664,0.941,27.902,2.312   C91.973,33.671,92.075,32.098,92.177,30.525" fill="#F9F906"/>
<path d="M43.627,41.044c-2.695,0.537-5.378,1.134-8.046,1.792c-1.27,0.313-2.536,0.64-3.798,0.98   c-0.675,0.182-0.945,0.47-1.417,0.022c-2.317-2.2-6.02-2.751-8.818-1.141c-2.034,1.17-3.553,3.393-4.221,5.624   c-0.101,0.337-2.104,0.803-2.487,0.941c-1.258,0.457-2.513,0.925-3.756,1.42c-0.236,0.095-0.472,0.189-0.707,0.285   c-0.533,0.217-0.312,0.33-0.201,0.824c0.131,0.579,0.249,1.161,0.363,1.744c0.251,1.278,0.483,2.562,0.79,3.829   c6.309-2.503,12.742-4.694,19.279-6.518c3.269-0.911,6.563-1.73,9.879-2.455c0.74-0.161,1.481-0.318,2.224-0.47   c0.372-0.076,0.744-0.151,1.116-0.226c0.386,0.053,0.499-0.101,0.339-0.459c-0.022-0.258-0.044-0.516-0.067-0.773   C43.944,44.657,43.787,42.851,43.627,41.044" fill="#FFFFFF"/>
<g>
<g>
<path d="M4.352,21.643c6.07-1.612,12.213-2.945,18.405-3.995c3.163-0.536,6.338-0.998,9.522-1.385     c1.53-0.186,3.062-0.354,4.597-0.506c0.767-0.076,1.535-0.147,2.304-0.214c0.48-0.042,2.255-0.41,2.362,0.043     c-6.27,0.48-12.517,1.249-18.716,2.304c-3.157,0.537-6.302,1.148-9.43,1.833c-1.501,0.329-2.999,0.674-4.492,1.036     c-0.747,0.181-1.492,0.366-2.237,0.556c-0.373,0.095-0.745,0.19-1.116,0.287C5.155,21.704,4.498,22.098,4.352,21.643" fill="#4C3800"/>
<path d="M4.197,21.974c-0.028-0.085-0.056-0.17-0.084-0.255c0.08-0.025,0.159-0.051,0.238-0.076     c0.021,0.08,0.042,0.16,0.063,0.24c-0.021-0.08-0.042-0.16-0.063-0.24c-0.2,0.121-0.304,0.058-0.318-0.174     c6.531-1.747,13.15-3.166,19.822-4.258c3.424-0.561,6.862-1.034,10.31-1.42c1.662-0.187,3.327-0.352,4.993-0.498     c0.805-0.07,1.611-0.134,2.417-0.197c0.208-0.016,0.232,0.519,0.277,0.717c-6.36,0.488-12.696,1.252-18.985,2.322     c-3.279,0.558-6.545,1.196-9.793,1.913c-1.624,0.358-3.243,0.736-4.857,1.134c-0.869,0.214-1.737,0.434-2.604,0.66     C5.215,21.946,4.36,22.417,4.197,21.974" fill="#4C3800"/>
</g>
</g>
<g>
<g>
<path d="M5.496,27.582c5.991-1.538,12.049-2.811,18.153-3.812c3.054-0.501,6.119-0.935,9.192-1.299     c1.538-0.183,3.079-0.348,4.62-0.497c0.771-0.074,1.543-0.145,2.315-0.21c0.386-0.033,0.772-0.064,1.159-0.095     c0.376-0.03,1.119-0.283,1.208,0.14c-6.173,0.461-12.326,1.196-18.434,2.204c-3.05,0.503-6.088,1.074-9.113,1.711     c-1.512,0.319-3.02,0.654-4.524,1.006c-0.752,0.176-1.504,0.356-2.254,0.541c-0.375,0.092-0.75,0.186-1.125,0.28     C6.295,27.65,5.633,28.042,5.496,27.582" fill="#4C3800"/>
<path d="M5.331,27.906c-0.072-0.237-0.107-0.317,0.165-0.325c0.021,0.081,0.041,0.162,0.062,0.243     c-0.021-0.081-0.041-0.162-0.062-0.243c-0.08,0.024-0.16,0.048-0.24,0.072c-0.025-0.083-0.049-0.166-0.074-0.249     c6.445-1.69,12.993-3.025,19.573-4.067c3.316-0.525,6.645-0.971,9.983-1.335c1.67-0.183,3.343-0.345,5.018-0.488     c0.81-0.068,1.619-0.13,2.429-0.192c0.211-0.016,0.222,0.514,0.264,0.713c-6.263,0.499-12.498,1.201-18.698,2.224     c-3.3,0.544-6.586,1.167-9.856,1.87c-1.635,0.351-3.265,0.722-4.891,1.112c-0.75,0.18-1.5,0.364-2.249,0.553     C6.462,27.866,5.349,28.391,5.331,27.906" fill="#4C3800"/>
</g>
</g>
<g>
<g>
<path d="M12.758,3.155c0.507-0.021,0.489,1.087,0.578,1.545c0.125,0.647,0.25,1.295,0.374,1.943     c0.273,1.423,0.545,2.846,0.816,4.27c0.515,2.708,1.026,5.417,1.533,8.126c-0.484,0.051-0.472-1.085-0.554-1.521     c-0.122-0.645-0.243-1.29-0.365-1.935c-0.269-1.421-0.538-2.843-0.81-4.264C13.811,8.596,13.287,5.875,12.758,3.155" fill="#4C3800"/>
<path d="M15.548,19.11c-0.994-5.306-2.006-10.608-3.037-15.907c0.082-0.016,0.164-0.031,0.246-0.047     c0.003,0.083,0.007,0.165,0.01,0.248c-0.003-0.083-0.007-0.165-0.01-0.248c-0.082,0.016-0.164,0.031-0.246,0.047     c-0.033-0.069-0.059-0.21-0.053-0.287c0.182-0.008,0.647-0.124,0.781-0.031c0.273,0.191,0.348,1.802,0.417,2.155     c0.324,1.682,0.646,3.365,0.967,5.048c0.583,3.056,1.165,6.111,1.73,9.17C16.025,19.292,15.605,19.487,15.548,19.11" fill="#4C3800"/>
</g>
</g>
<g>
<g>
<path d="M18.779,2.464c0.502-0.035,0.535,1.063,0.644,1.517c0.154,0.639,0.307,1.279,0.459,1.918     c0.305,1.275,0.608,2.551,0.909,3.827c0.629,2.664,1.251,5.329,1.865,7.996c-0.476,0.057-0.511-1.058-0.611-1.489     c-0.147-0.634-0.295-1.268-0.443-1.902c-0.297-1.272-0.597-2.543-0.897-3.815C20.07,7.831,19.428,5.147,18.779,2.464" fill="#4C3800"/>
<path d="M22.154,17.811c-1.179-5.103-2.387-10.199-3.619-15.289c0.082-0.019,0.163-0.039,0.244-0.058     c0.005,0.083,0.011,0.166,0.016,0.248c-0.005-0.083-0.011-0.166-0.016-0.248c-0.223,0.107-0.319,0.017-0.313-0.229     c0.183-0.012,0.643-0.144,0.781-0.055c0.233,0.15,0.35,1.455,0.419,1.742c0.399,1.66,0.795,3.321,1.188,4.982     c0.712,3.009,1.425,6.018,2.108,9.033C22.639,17.975,22.227,18.177,22.154,17.811" fill="#4C3800"/>
</g>
</g>
<g>
<g>
<path d="M42.387,26.518c8.315-0.269,16.644-0.083,24.939,0.554c4.167,0.32,8.325,0.754,12.468,1.301     c2.078,0.274,4.152,0.577,6.222,0.908c1.036,0.166,2.072,0.339,3.106,0.519c0.486,0.084,3.106,0.345,3.1,0.746     c-8.227-1.54-16.537-2.631-24.883-3.266c-4.15-0.315-8.309-0.517-12.47-0.606c-2.076-0.044-4.153-0.06-6.23-0.047     c-1.038,0.006-2.075,0.02-3.113,0.04c-0.519,0.01-1.037,0.022-1.556,0.036C43.562,26.713,42.443,26.949,42.387,26.518" fill="#4C3800"/>
<path d="M92.175,30.791c-8.64-1.617-17.373-2.739-26.141-3.356c-4.295-0.302-8.598-0.483-12.902-0.543     c-2.24-0.031-4.48-0.029-6.719,0.007c-1.064,0.018-2.127,0.042-3.191,0.074c-0.148,0.004-0.905,0.145-1.026,0.031     c-0.158-0.148-0.093-0.528,0.192-0.488c0.002,0.083,0.005,0.167,0.008,0.25c-0.002-0.083-0.005-0.167-0.008-0.25     c-0.083,0.011-0.166,0.022-0.248,0.033c-0.027-0.069-0.044-0.199-0.035-0.273c8.665-0.341,17.375-0.088,26.018,0.605     c4.563,0.366,9.116,0.869,13.649,1.507c2.21,0.311,4.415,0.654,6.614,1.029c1.167,0.199,2.333,0.407,3.497,0.624     c0.682,0.127,0.593,0.159,0.584,0.804C92.376,30.829,92.258,30.831,92.175,30.791" fill="#4C3800"/>
</g>
</g>
<g>
<g>
<path d="M43.115,33.487c8.161-0.649,16.359-0.827,24.541-0.535c4.048,0.145,8.09,0.404,12.123,0.778     c2.089,0.194,4.175,0.418,6.258,0.673c1.043,0.127,2.085,0.263,3.126,0.405c0.453,0.062,2.734,0.191,2.734,0.579     c-8.154-1.218-16.377-1.968-24.616-2.241c-4.029-0.133-8.062-0.152-12.091-0.057c-2.076,0.049-4.149,0.128-6.223,0.238     c-1.035,0.055-2.07,0.117-3.105,0.188c-0.517,0.035-1.034,0.072-1.551,0.11C43.944,33.652,43.174,33.911,43.115,33.487" fill="#4C3800"/>
<path d="M91.86,35.634c-8.411-1.257-16.896-2.016-25.395-2.265c-4.152-0.122-8.309-0.122-12.46,0     c-2.067,0.061-4.135,0.151-6.2,0.272c-1.031,0.061-2.062,0.128-3.093,0.204c-0.515,0.038-1.03,0.078-1.545,0.119     c-0.297-0.13-0.228,0.003-0.3-0.442c0.082-0.012,0.165-0.023,0.247-0.035c0.007,0.083,0.014,0.167,0.021,0.25     c-0.007-0.083-0.014-0.167-0.021-0.25c-0.082,0.012-0.165,0.023-0.247,0.035c-0.012-0.087-0.025-0.175-0.037-0.263     c8.547-0.748,17.173-0.866,25.743-0.523c4.422,0.177,8.837,0.49,13.239,0.94c2.21,0.226,4.417,0.486,6.619,0.78     c1.038,0.139,2.075,0.285,3.111,0.439c0.688,0.102,0.601,0.134,0.601,0.781C92.056,35.664,91.941,35.669,91.86,35.634" fill="#4C3800"/>
</g>
</g>
<g>
<g>
<path d="M10.086,50.908c-0.016-0.291,3.98-1.611,4.339-1.75c0.797-0.31,1.595-0.624,2.406-0.896     c0.485-0.164,0.417-0.315,0.617-0.815c0.27-0.673,0.646-1.302,1.052-1.901c0.545-0.807,1.151-1.598,1.829-2.3     c0.109-0.327-0.215-1.191-0.278-1.539c-0.093-0.514-0.186-1.027-0.279-1.54c-0.187-1.028-0.375-2.056-0.563-3.084     c-0.733-4-1.476-7.998-2.229-11.995c0.475-0.052,0.468,1.099,0.549,1.532c0.122,0.65,0.243,1.3,0.364,1.95     c0.242,1.298,0.482,2.596,0.722,3.894c0.478,2.587,0.951,5.176,1.42,7.765c0.087,0.481,0.805,2.846,0.505,3.152     c-0.299,0.307-0.572,0.646-0.842,0.979c-0.511,0.633-0.995,1.291-1.416,1.987c-0.167,0.277-0.821,1.942-0.969,1.928     c0.03,0.248-3.14,1.258-3.497,1.398c-0.258,0.101-3.676,1.315-3.645,1.483C10.143,51.074,10.114,50.991,10.086,50.908" fill="#4C3800"/>
<path d="M10.31,51.36c-0.126-0.109-0.103-0.257-0.316-0.026c-0.406-0.51,0.052-0.692,0.466-0.864     c1.501-0.625,3.016-1.221,4.535-1.803c0.553-0.212,1.107-0.424,1.668-0.615c0.557-0.189,0.604-0.869,0.872-1.389     c0.569-1.1,1.324-2.106,2.127-3.044c0.407-0.475,0.381-0.547,0.26-1.215c-0.162-0.892-0.323-1.784-0.486-2.676     c-0.326-1.788-0.654-3.576-0.983-5.364c-0.584-3.166-1.184-6.329-1.77-9.494c0.213-0.022,0.426-0.045,0.639-0.073     c0.264-0.035,0.333,1.146,0.379,1.388c0.268,1.429,0.535,2.859,0.8,4.289c0.528,2.849,1.051,5.698,1.569,8.549     c0.258,1.42,0.515,2.84,0.77,4.26c-0.084,0.342-0.456,0.638-0.705,0.936c-1.059,1.267-2.21,3.004-2.84,4.328     c0,0-2.385,0.968-3.158,1.27C12.876,50.307,11.505,50.721,10.31,51.36L10.31,51.36 M10.419,51.153h-0.133     C10.33,51.153,10.375,51.153,10.419,51.153 M10.085,50.908C10.089,50.907,10.089,50.907,10.085,50.908 M10.091,50.906H10.09     C10.09,50.906,10.091,50.906,10.091,50.906 M10.309,51.359L10.309,51.359L10.309,51.359" fill="#4C3800"/>
</g>
</g>
<g>
<g>
<path d="M30.56,44.088c-0.388-0.933-1.812-1.426-2.684-1.744c-0.595-0.217-0.507-1.049-0.625-1.631     c-0.232-1.146-0.466-2.291-0.702-3.436c-0.922-4.49-1.864-8.976-2.825-13.458c0.45-0.059,0.342,0.365,0.42,0.734     c0.082,0.383,0.163,0.766,0.245,1.149c0.163,0.765,0.325,1.53,0.486,2.295c0.349,1.652,0.694,3.304,1.037,4.957     c0.315,1.519,0.628,3.038,0.939,4.558c0.155,0.757,0.309,1.515,0.463,2.272c0.074,0.364,0.238,2.191,0.545,2.297     c0.799,0.274,1.614,0.623,2.279,1.152c0.179,0.142,0.347,0.301,0.483,0.486c0.223,0.302,0.521,0.066,0.857-0.024     c0.867-0.233,1.735-0.46,2.605-0.681c1.617-0.409,3.239-0.796,4.866-1.162c0.751-0.168,1.504-0.332,2.257-0.491     c0.377-0.079,0.754-0.158,1.131-0.235c0.358-0.073,1.086-0.42,1.188-0.005c-2.172,0.432-4.337,0.903-6.492,1.413     C36.356,42.696,30.686,44.357,30.56,44.088" fill="#4C3800"/>
<path d="M30.376,44.286c-0.057-0.128-0.702-0.795-1.009-0.976c-0.539-0.316-1.126-0.595-1.722-0.788     c-0.472-0.153-0.38-0.478-0.486-0.997c-0.258-1.272-0.517-2.544-0.778-3.815c-0.965-4.706-1.988-9.399-2.958-14.103     c0.172-0.023,0.621-0.175,0.752-0.097c0.267,0.161,0.392,1.832,0.463,2.166c0.384,1.806,0.764,3.613,1.142,5.421     c0.723,3.459,1.433,6.92,2.132,10.384c0.112,0.553,0.502,0.525,0.994,0.744c0.569,0.254,1.135,0.562,1.593,0.992     c0.341,0.32,0.203,0.428,0.725,0.287c0.503-0.136,1.008-0.27,1.513-0.401c0.884-0.23,1.769-0.455,2.656-0.672     c1.775-0.435,3.557-0.843,5.344-1.224c0.895-0.191,1.79-0.375,2.687-0.553c0.165,0.05,0.197-0.17,0.26,0.069     c0.051,0.197,0.099,0.396,0.149,0.593c-2.382,0.48-4.757,0.988-7.121,1.552c-1.265,0.302-2.526,0.618-3.784,0.947     C32.446,43.941,30.604,44.721,30.376,44.286" fill="#4C3800"/>
</g>
</g>
<g>
<g>
<path d="M33.998,64.989c-0.018-0.116-0.781-0.578-0.902-0.681c-0.315-0.268-0.612-0.558-0.88-0.873     c-0.462-0.545-0.838-1.173-1.03-1.865c-0.39-1.408,0.08-2.498,0.934-3.56c1.776-2.209,2.808-5.471,1.595-8.2     c1.792-0.433,3.591-0.84,5.396-1.221c0.902-0.19,1.806-0.374,2.711-0.552c0.388-0.075,0.776-0.15,1.165-0.224     c0.36-0.068,1.128-0.414,1.209,0.008c-3.403,0.626-6.789,1.346-10.152,2.155c1.024,2.803,0.066,5.929-1.74,8.174     c-1.867,2.321-0.74,4.764,1.494,6.397c0.468,0.341,1.043,0.373,1.598,0.528c0.776,0.218,1.538,0.486,2.282,0.797     c1.43,0.597,2.796,1.359,4.023,2.309c1.155,0.894,2.181,1.958,2.984,3.18c0.361,0.549,2.26,4.07,1.519,4.324     c-0.74-3.818-3.357-6.791-6.69-8.65c-1.182-0.659-2.437-1.189-3.729-1.594C35.237,65.271,34.581,65.005,33.998,64.989      M34.114,64.774C34.145,64.785,34.098,64.763,34.114,64.774" fill="#4C3800"/>
<path d="M46.006,75.835c-1.094-5.807-6.552-9.305-11.968-10.501c-0.421-0.012-1.001-0.672-1.337-0.983     c-0.664-0.616-1.241-1.351-1.57-2.201c-0.52-1.343-0.316-2.832,0.616-3.922c1.968-2.303,3.001-5.616,1.667-8.49     c2.075-0.503,4.157-0.973,6.247-1.407c1.121-0.233,2.244-0.457,3.37-0.669c0.214-0.041,1.193-0.377,1.369-0.252     c0.102,0.072,0.112,0.577,0.138,0.713c-3.392,0.63-6.767,1.332-10.122,2.136c0.961,3.124-0.239,6.398-2.373,8.739     c-1.501,2.31,0.769,5.239,3.014,5.817c3.018,0.778,5.96,2.237,8.188,4.446c1.076,1.067,1.97,2.316,2.598,3.697     c0.347,0.764,0.612,1.563,0.796,2.382c0.142,0.63,0.423,3.299-0.163,3.483C46.459,78.737,46,75.923,46.006,75.835 M34.041,65.277     l0.006-0.183C34.044,65.155,34.042,65.216,34.041,65.277 M32.097,58.838C32.066,58.695,32.066,58.695,32.097,58.838      M32.074,58.73C32.067,58.717,32.067,58.717,32.074,58.73 M32.062,58.709C32.062,58.708,32.062,58.708,32.062,58.709      M32.055,58.698C32.053,58.694,32.053,58.694,32.055,58.698 M32.047,58.686C32.043,58.682,32.043,58.682,32.047,58.686      M32.038,58.674C32.034,58.67,32.034,58.67,32.038,58.674" fill="#4C3800"/>
</g>
</g>
<g>
<g>
<path d="M31.442,85.24c2.176-1.309,4.368-2.719,6.192-4.502c0.989-0.967,1.989-2.153,2.227-3.562     c0.326-1.931-1.041-3.532-2.441-4.67c-2.16-1.755-4.715-2.777-7.175-4.015c-3.655-1.837-6.76-4.741-9.021-8.137     c-1.182-1.774-2.448-5.896-5.192-4.771c-1.207,0.495-2.049,1.739-2.689,2.818c-0.188,0.318-1.312,1.947-1.142,2.34     c-0.552-0.114,1.123-2.792,1.341-3.117c0.844-1.259,2.278-2.893,3.987-2.382c1.577,0.472,2.288,2.182,3.002,3.496     c0.535,0.982,1.169,1.914,1.85,2.801c1.228,1.602,2.644,3.062,4.224,4.317c2.069,1.645,4.392,2.646,6.73,3.828     c3.079,1.556,8.386,4.567,6.309,8.777c-1.552,3.146-5.258,5.262-8.129,6.997C31.491,85.387,31.466,85.313,31.442,85.24" fill="#4C3800"/>
<path d="M31.277,85.537c-0.024-0.073-0.193,0.152-0.218,0.079c0.062-0.02,0.269-0.34,0.331-0.359     c-0.165,0.046-1.794,0.901-1.581,0.775c0.467-0.277,2.35-1.52,2.809-1.811c1.01-0.641,2.001-1.312,2.95-2.042     c1.263-0.972,2.542-2.064,3.395-3.43c1.967-3.15-0.978-5.748-3.54-7.339c-2.046-1.271-4.311-2.09-6.389-3.292     c-1.784-1.031-3.417-2.315-4.869-3.775c-1.608-1.616-3.131-3.488-4.157-5.54c0.092,0.095-2.615-4.304-4.753-2.438     c-0.902,0.787-1.558,1.861-2.113,2.91c-0.206,0.39-0.445,0.77-0.572,1.191c-0.458,1.522-0.963,0.464-0.822,0.119     c0.175-0.428,0.348-0.855,0.547-1.272c0.723-1.517,1.71-3.187,3.227-4.022c1.994-1.099,3.659,0.461,4.619,2.144     c1.079,1.889,2.109,3.674,3.567,5.322c1.651,1.868,3.585,3.496,5.749,4.74c2.355,1.354,4.918,2.269,7.179,3.804     c1.727,1.173,3.603,2.828,3.735,5.065c0.064,1.412-0.669,2.717-1.547,3.767c-1.996,2.389-4.811,4.122-7.45,5.703     C31.343,85.743,31.283,85.634,31.277,85.537 M31.57,85.453l-0.005-0.009C31.566,85.447,31.568,85.45,31.57,85.453 M12.387,60.906     C12.391,60.901,12.391,60.901,12.387,60.906 M12.396,60.894C12.4,60.89,12.4,60.89,12.396,60.894 M12.406,60.881     C12.408,60.878,12.408,60.878,12.406,60.881 M12.421,60.856C12.425,60.849,12.425,60.849,12.421,60.856 M12.427,60.845     C12.486,60.719,12.432,60.833,12.427,60.845 M19.981,58.748L19.981,58.748L19.981,58.748 M20.448,58.569     C20.444,58.548,20.448,58.567,20.448,58.569 M19.991,58.768C20.014,58.815,20.014,58.815,19.991,58.768" fill="#4C3800"/>
</g>
</g>
<g>
<g>
<path d="M47.096,8.274c0.5,0.065,0.308,1.149,0.323,1.616c0.025,0.792,0.05,1.583,0.075,2.375     c0.05,1.583,0.099,3.165,0.148,4.747c0.098,3.161,0.194,6.323,0.29,9.484c-0.473-0.024-0.291-1.159-0.305-1.595     c-0.024-0.791-0.049-1.582-0.074-2.374c-0.049-1.583-0.1-3.166-0.15-4.748C47.302,14.611,47.2,11.442,47.096,8.274" fill="#4C3800"/>
<path d="M47.918,26.746c-0.576-0.03-0.487-0.052-0.505-0.65c-0.028-0.923-0.057-1.845-0.086-2.768     c-0.054-1.715-0.107-3.43-0.162-5.144c-0.054-1.716-0.109-3.432-0.165-5.147c-0.03-0.924-0.06-1.849-0.09-2.773     c-0.012-0.375-0.271-2.083,0.186-1.99c-0.083,0.003-0.167,0.005-0.25,0.008c-0.022-0.075-0.026-0.219-0.008-0.294     c0.21,0.03,0.769-0.012,0.777,0.204c0.032,0.827,0.054,1.655,0.08,2.482c0.058,1.847,0.116,3.693,0.173,5.54     c0.109,3.516,0.215,7.032,0.323,10.548C48.104,26.756,48,26.771,47.918,26.746" fill="#4C3800"/>
</g>
</g>
<g>
<g>
<path d="M53.582,8.375c0.498,0.065,0.31,1.155,0.326,1.619c0.026,0.791,0.053,1.582,0.08,2.373     c0.053,1.581,0.104,3.161,0.155,4.741c0.103,3.153,0.201,6.307,0.296,9.46c-0.472-0.035-0.29-1.154-0.304-1.593     c-0.025-0.789-0.05-1.578-0.075-2.366c-0.051-1.579-0.102-3.159-0.154-4.738C53.802,14.706,53.694,11.54,53.582,8.375" fill="#4C3800"/>
<path d="M54.42,26.817c-0.569-0.043-0.479-0.046-0.498-0.651c-0.024-0.789-0.049-1.577-0.074-2.366     c-0.054-1.71-0.108-3.42-0.165-5.131c-0.112-3.429-0.229-6.857-0.352-10.286c0.084-0.003,0.167-0.005,0.251-0.008     c-0.24,0.061-0.316-0.045-0.261-0.286c0.209,0.026,0.77-0.007,0.777,0.207c0.03,0.827,0.057,1.654,0.085,2.481     c0.062,1.844,0.123,3.689,0.183,5.534c0.114,3.509,0.203,7.02,0.331,10.529C54.611,26.833,54.501,26.846,54.42,26.817" fill="#4C3800"/>
</g>
</g>
<g>
<g>
<path d="M44.115,46.838c0.011-0.426,0.458-0.217,0.796-0.207c0.395,0.012,0.789,0.025,1.183,0.04     c0.788,0.028,1.576,0.059,2.364,0.093c-0.126-4.511-0.257-9.022-0.391-13.533c0.046,0.071,0.13,0.074,0.252,0.009     c0.007,0.262,0.015,0.524,0.022,0.787c0.019,0.655,0.038,1.311,0.056,1.967c0.033,1.18,0.067,2.359,0.1,3.539     c0.07,2.488,0.139,4.976,0.207,7.464C47.175,46.933,45.646,46.879,44.115,46.838" fill="#4C3800"/>
<path d="M48.693,47.247c-0.891-0.039-1.782-0.073-2.673-0.103c-0.368-0.012-2.025,0.138-1.904-0.307     c0.047,0.22-0.038,0.302-0.256,0.243c0.005-0.202,0.009-0.404,0.018-0.606c0.011-0.257,0.785-0.102,0.993-0.095     c1.11,0.035,2.221,0.076,3.331,0.123c-0.133-4.71-0.158-13.687,0.005-13.516c0.477,0.012,0.362,0.14,0.376,0.639     c0.045,1.573,0.089,3.147,0.134,4.72c0.083,2.97,0.178,5.941,0.246,8.912C48.876,47.254,48.773,47.27,48.693,47.247" fill="#4C3800"/>
</g>
</g>
<g>
<g>
<path d="M54.899,47.157c-0.121-4.74-0.25-9.479-0.388-14.219c0.461,0,0.273,0.8,0.284,1.18     c0.021,0.779,0.043,1.558,0.064,2.337c0.039,1.427,0.077,2.854,0.115,4.28c0.037,1.425,0.074,2.85,0.111,4.275     c0.01,0.388,0.02,0.776,0.029,1.165c0.014,0.53-0.191,0.764,0.416,0.799c0.793,0.046,1.585,0.095,2.377,0.147     c3.036,0.201,6.069,0.452,9.097,0.751c0.458,0.046,3.076,0.53,3.204,0.199c0.132-0.343,0.28-0.678,0.428-1.014     c1.168-2.665,2.417-5.296,3.692-7.912c0.625-1.282,1.258-2.561,1.933-3.818c0.206-0.384,0.83-1.961,1.313-1.656     c-0.374,0.285-0.614,0.894-0.833,1.29c-0.496,0.895-0.958,1.808-1.415,2.723c-1.156,2.313-2.265,4.649-3.351,6.996     c-0.572,1.237-1.085,2.508-1.654,3.742C65.195,47.861,60.051,47.438,54.899,47.157" fill="#4C3800"/>
<path d="M70.295,48.671c-5.123-0.563-10.263-0.984-15.409-1.265c0.004-0.073,0.009-0.146,0.013-0.218     c-0.026,0.195-0.24,0.363-0.247,0.09c-0.018-0.696-0.035-1.391-0.054-2.087c-0.037-1.447-0.076-2.893-0.115-4.34     c-0.073-2.736-0.127-5.474-0.23-8.209c0.678,0.143,0.748-0.099,0.77,0.693c0.033,1.183,0.066,2.365,0.099,3.547     c0.064,2.361,0.127,4.722,0.188,7.083c0.014,0.524,0.027,1.048,0.04,1.572c0.007,0.262,0.014,0.524,0.021,0.786     c0.016,0.607,0.274,0.407,0.802,0.439c1.188,0.071,2.375,0.15,3.562,0.236c2.372,0.172,4.742,0.375,7.109,0.607     c0.44,0.043,3.076,0.515,3.2,0.209c0.242-0.596,0.507-1.183,0.771-1.77c0.879-1.954,1.787-3.897,2.72-5.826     c0.889-1.838,1.768-3.688,2.76-5.474c0.251-0.452,0.5-0.955,0.853-1.339c0.285-0.31,0.563,0.057,0.868,0.247     c-0.744,0.452-1.122,1.55-1.506,2.276c-0.986,1.87-1.906,3.773-2.814,5.681c-0.813,1.708-1.615,3.422-2.393,5.147     C71.17,47.048,70.661,48.735,70.295,48.671" fill="#4C3800"/>
</g>
</g>
<g>
<g>
<path d="M48.744,52.647c-1.421-0.027-2.843-0.042-4.265-0.046c0.017-0.431,1.453-0.22,1.878-0.215     c0.747,0.009,1.494,0.021,2.241,0.035c0.59,0.012,0.383,0.295,0.399,0.802c0.013,0.397,0.025,0.795,0.038,1.191     c0.025,0.794,0.051,1.588,0.076,2.382c0.1,3.173,0.197,6.345,0.294,9.517c0.096,3.166,0.188,6.332,0.28,9.499     c0.046,1.581,0.091,3.162,0.136,4.742c0.022,0.79,0.044,1.58,0.066,2.37c0.013,0.469,0.278,2.317-0.145,2.417     C49.436,74.443,49.103,63.544,48.744,52.647" fill="#4C3800"/>
<path d="M49.492,85.348c-0.175-6.193-0.357-12.387-0.548-18.579c-0.098-3.171-0.198-6.342-0.3-9.513     c-0.026-0.794-0.051-1.587-0.077-2.381c-0.013-0.396-0.026-0.794-0.039-1.19c-0.016-0.499,0.19-0.791-0.392-0.8     c-1.306-0.021-2.146,0.033-3.452,0.021c0.007-0.162-0.481-0.655-0.195-0.785c0.873,0.003,1.746,0.012,2.618,0.024     c0.356,0.005,1.861-0.194,2.103,0.037c0.244,0.234,0.061,1.859,0.072,2.223c0.122,3.834,0.241,7.668,0.357,11.502     c0.112,3.694,0.222,7.388,0.328,11.081c0.054,1.844,0.105,3.688,0.157,5.532c0.026,0.921,0.052,1.843,0.077,2.764     c-0.149,0.29-0.302,0.274-0.703,0.369C49.498,85.558,49.471,85.44,49.492,85.348" fill="#4C3800"/>
</g>
</g>
<g>
<g>
<path d="M55.05,52.442c4.551,0.144,9.097,0.401,13.635,0.769c-1.062,3.513-2.07,7.038-2.926,10.613     c-0.729,3.045-1.383,6.111-1.88,9.203c-0.243,1.504-0.448,3.016-0.581,4.534c-0.061,0.686-0.105,1.372-0.128,2.06     c-0.019,0.496-0.032,0.991-0.027,1.487c0.004,0.388,0.229,1.26-0.154,1.37c-0.245-2.913,0.139-5.916,0.574-8.794     c0.454-2.998,1.063-5.972,1.746-8.925c0.869-3.764,1.656-7.757,3.074-11.366c-4.356-0.347-8.722-0.59-13.09-0.727     c0.138,5.299,0.267,10.598,0.384,15.896c0.059,2.639,0.115,5.277,0.168,7.916c0.027,1.316,0.053,2.633,0.078,3.949     c0.011,0.576,0.338,3.488-0.145,3.597C55.578,73.497,55.335,62.968,55.05,52.442" fill="#4C3800"/>
<path d="M55.528,84.028c-0.202-10.527-0.444-21.055-0.729-31.58c0.079-0.002,0.159-0.004,0.238-0.006     c-0.079,0.002-0.159,0.004-0.238,0.006c-0.002-0.089-0.004-0.177-0.006-0.266c4.749,0.184,9.48,0.471,14.221,0.801     c-1.425,4.781-2.799,9.657-3.85,14.58c-0.641,3.001-1.2,6.027-1.526,9.08c-0.14,1.305-0.229,2.616-0.246,3.928     c-0.008,0.644,0.006,1.288,0.069,1.929c0.02,0.207-0.508,0.245-0.699,0.3c-0.468-5.6,0.811-11.414,2.019-16.85     c0.92-4.136,1.91-8.312,3.256-12.334c-4.156-0.326-8.32-0.558-12.487-0.692c0.146,5.646,0.282,11.294,0.406,16.941     c0.062,2.877,0.122,5.755,0.179,8.632c0.028,1.436,0.056,2.871,0.083,4.307c0.004,0.238,0.176,1.196,0.021,1.374     c-0.096,0.109-0.552,0.122-0.706,0.156C55.531,84.238,55.506,84.12,55.528,84.028" fill="#4C3800"/>
</g>
</g>
<g>
<g>
<path d="M67.871,81.676c-0.107-0.224,0.161-0.92,0.206-1.144c0.198-0.971,0.407-1.939,0.618-2.907     c0.648-2.973,1.322-5.94,2.015-8.904c0.73-3.128,1.478-6.253,2.289-9.361c0.462-1.766,0.806-3.786,1.651-5.422     c0.259-0.502,1.242-0.188,1.695-0.142c1.718,0.18,3.432,0.4,5.145,0.622c1.863,0.241,3.725,0.491,5.585,0.756     c0.354,0.051,2.541,0.165,2.457,0.57c-0.011-0.279-6.381-0.919-6.847-0.979c-2.53-0.332-5.175-0.881-7.734-0.881     c-0.812,1.386-1.099,3.272-1.517,4.801c-0.864,3.159-1.643,6.341-2.396,9.528c-1.055,4.467-2.094,8.959-2.959,13.465     C68.011,81.677,67.94,81.677,67.871,81.676" fill="#4C3800"/>
<path d="M67.866,81.924l0.001-0.075c-0.346,0.39-0.104-1.021-0.077-1.156c0.222-1.115,0.464-2.228,0.706-3.339     c0.766-3.512,1.566-7.016,2.396-10.513c0.796-3.359,1.6-6.723,2.541-10.046c0.231-0.815,0.573-3.055,1.359-3.356     c0.633-0.243,1.928,0.143,2.571,0.217c2.836,0.323,5.665,0.701,8.491,1.093c1.042,0.145,2.084,0.288,3.122,0.452     c0.31,0.051,0.911,0.031,0.837,0.422c-0.077,0.34-0.279,0.03-0.413,0.334c0.036-0.06,0.071-0.12,0.107-0.18     c-0.05,0.412-1.109,0.024-1.393-0.017c-1.063-0.156-2.129-0.303-3.194-0.448c-2.356-0.319-4.715-0.627-7.076-0.903     c-0.736-0.087-1.473-0.172-2.211-0.238c-0.563-0.05-0.574-0.011-0.754,0.51c-0.504,1.457-0.9,2.954-1.305,4.44     c-1.261,4.638-2.36,9.318-3.408,14.008c-0.636,2.848-1.033,5.839-1.856,8.638c-0.06-0.022-0.118-0.046-0.178-0.068     C68.145,81.919,68.068,81.933,67.866,81.924" fill="#4C3800"/>
</g>
</g>
<g>
<g>
<path d="M76.48,49.075c0.896-2.431,2.013-4.808,3.08-7.167c0.792-1.752,1.606-3.497,2.471-5.214     c0.287-0.569,0.822-2.206,1.472-2.489c0.271,0.285-0.787,1.724-0.964,2.063c-0.797,1.535-1.547,3.095-2.267,4.667     c-1.207,2.64-2.374,5.301-3.473,7.988c2.295,0.311,4.585,0.65,6.871,1.019c0.591,0.095,6.445,0.836,6.468,1.121     c-0.072,0.34-0.899,0.019-1.201-0.036c-0.647-0.116-1.294-0.23-1.941-0.342c-1.165-0.201-2.331-0.395-3.499-0.581     C81.163,49.731,78.823,49.387,76.48,49.075" fill="#4C3800"/>
<path d="M90.054,51.482c-4.517-0.832-9.055-1.552-13.606-2.161c0.009-0.064,0.018-0.128,0.026-0.192     c0.002,0.221-0.135,0.24-0.338,0.151c1.03-2.773,2.281-5.489,3.516-8.176c0.864-1.883,1.747-3.758,2.712-5.593     c0.256-0.486,0.54-1.238,1.039-1.537c0.347-0.083,0.484,0.346,0.694,0.651c-0.707-0.182-1.416,1.909-1.663,2.396     c-0.677,1.333-1.323,2.681-1.944,4.041c-1.156,2.533-2.274,5.083-3.337,7.657c2.948,0.401,5.89,0.853,8.823,1.35     c1.416,0.239,2.834,0.478,4.243,0.752C90.546,50.884,90.434,51.591,90.054,51.482" fill="#4C3800"/>
</g>
</g>
<g>
<g>
<path d="M80.695,28.534c-0.125-0.321,1.434-1.87,1.618-2.092c1.294-1.552,2.624-3.075,3.979-4.574     c0.682-0.755,6.541-7.626,7.475-6.686c-1.056,0.244-2.092,1.498-2.83,2.208c-1.53,1.473-2.979,3.032-4.405,4.606     c-1.322,1.459-2.621,2.94-3.888,4.449c-0.199,0.238-1.854,1.868-1.723,2.214C80.846,28.618,80.771,28.576,80.695,28.534" fill="#4C3800"/>
<path d="M80.574,28.752c0.036-0.07,0.087-0.158,0.128-0.224C80.673,28.59,80.606,28.689,80.574,28.752     c-0.661-0.535,5.979-7.55,6.629-8.254c1.463-1.582,2.938-3.184,4.578-4.586c0.486-0.416,1.021-0.889,1.628-1.119     c0.385-0.146,0.591,0.268,0.851,0.53c-1.111,0.257-1.893,1.053-2.708,1.821c-1.52,1.429-2.946,2.958-4.354,4.497     c-1.417,1.549-2.809,3.122-4.167,4.723c-0.459,0.541-0.916,1.085-1.357,1.641c-0.113,0.143-0.521,0.519-0.521,0.721     C80.825,28.505,80.968,28.972,80.574,28.752 M80.946,28.648c0.071-0.019,0.142-0.038,0.213-0.057     C81.103,28.606,81.002,28.633,80.946,28.648" fill="#4C3800"/>
</g>
</g>
<g>
<g>
<path d="M86.805,29.587C86.805,29.587,86.812,29.587,86.805,29.587 M86.582,29.459     c-0.025-0.194,0.709-0.838,0.826-0.97c0.625-0.706,1.262-1.401,1.908-2.086c0.409-0.432,3.207-3.637,3.708-2.996     c-0.497,0.087-1.017,0.696-1.364,1.018c-0.723,0.667-1.41,1.375-2.088,2.088c-0.65,0.683-1.29,1.376-1.918,2.08     C87.372,28.909,86.979,29.684,86.582,29.459" fill="#4C3800"/>
<path d="M86.717,29.826c-0.182-0.016-0.119-0.07-0.248-0.143c-0.004-0.002-0.007-0.004-0.011-0.006     c-0.539-0.537,3.304-4.102,3.773-4.577c0.691-0.7,1.415-1.506,2.284-1.991c0.546-0.305,0.631,0.05,0.962,0.472     c-1.209,0.097-2.335,1.66-3.106,2.454c-0.832,0.856-1.644,1.733-2.44,2.623c-0.302,0.336-0.945,0.819-0.945,1.321     C86.9,29.93,86.787,29.892,86.717,29.826 M87.054,29.587h-0.227C86.902,29.587,86.979,29.587,87.054,29.587 M87.054,29.587     h-0.227C86.902,29.587,86.979,29.587,87.054,29.587" fill="#4C3800"/>
</g>
</g>
<g>
<path d="M29.975,50.51c0.171,2.379-1.354,4.953-3.846,5.312c-2.557,0.37-4.451-1.943-4.697-4.292    c-0.246-2.337,1.107-4.951,3.584-5.355C27.641,45.747,29.795,48.009,29.975,50.51" fill="#ECEAE1"/>
<g>
<path d="M21.35,51.539c-0.249-2.404,1.145-5.088,3.694-5.498c2.576-0.415,4.748,1.705,5.061,4.163     c0.309,2.432-1.151,5.149-3.665,5.685C23.724,56.466,21.62,54.051,21.35,51.539 M21.587,51.506     c0.23,2.197,1.932,4.379,4.32,4.212c2.552-0.179,4.159-2.825,3.986-5.207c-0.172-2.345-2.104-4.491-4.574-4.258     C22.778,46.501,21.341,49.149,21.587,51.506" fill="#4C3800"/>
<path d="M21.1,51.564l0.239-0.025C21.26,51.547,21.18,51.555,21.1,51.564c-0.257-2.637,1.336-5.533,4.174-5.805     c2.74-0.266,4.916,2.098,5.108,4.71c0.173,2.382-1.246,4.937-3.645,5.602C23.802,56.885,21.395,54.316,21.1,51.564      M25.659,55.474c3.976,0,5.185-5.629,2.519-8.011c-1.249-1.115-3.108-1.31-4.504-0.344c-0.734,0.508-1.271,1.267-1.573,2.102     c-0.163,0.452-0.257,0.928-0.286,1.407c-0.016,0.274,0.172,1.713,0.274,2.011c0.177,0.518,0.44,1.007,0.785,1.433     C23.554,54.91,24.564,55.476,25.659,55.474" fill="#4C3800"/>
</g>
</g>
<path d="M40.059,0.625C26.655,0.907,13.28,2.375,0.145,5.001c2.079,9.042,4.109,18.095,6.091,27.158   c-0.248-0.115,0.902-1.942,0.982-2.065c1.024-1.575,2.321-2.986,3.776-4.191c4.849-4.011,11.248-5.223,17.438-4.325   c4.959,0.719,9.691,2.595,14.084,4.906c0.135-1.296-0.244-2.818-0.364-4.107c-0.273-2.935-0.552-5.87-0.832-8.804   c-0.28-2.938-0.562-5.875-0.849-8.812c-0.095-0.981-0.191-1.962-0.289-2.944C40.161,1.588,40.221,0.81,40.059,0.625" fill="#FFFFFF" fill-opacity="0.5" stroke-opacity="0.5"/>
<g>
<g>
<path d="M31.582,85.583c0.068-0.026,0.137-0.054,0.205-0.08c0.246,1.627,0.489,3.255,0.73,4.883     c2.453-2.288,4.985-4.491,7.593-6.602c1.34-1.084,2.7-2.144,4.079-3.178c0.687-0.516,1.378-1.023,2.074-1.525     c0.374-0.27,0.649-0.097,1.017,0.202c-5.095,3.653-10.303,7.205-14.888,11.504C32.124,89.051,31.854,87.317,31.582,85.583      M31.582,85.581C31.582,85.583,31.582,85.583,31.582,85.581" fill="#4C3800"/>
<path d="M32.143,90.825c-0.267-1.735-0.536-3.471-0.808-5.205c0.071-0.011,0.141-0.021,0.212-0.031     c-0.638,0.088,0.231-0.353,0.439-0.429c0.248,1.57,0.475,3.144,0.709,4.716c2.777-2.573,5.656-5.038,8.629-7.384     c1.472-1.161,2.967-2.293,4.485-3.394c0.374-0.271,0.576-0.617,0.955-0.401c0.321,0.184,0.644,0.212,0.921,0.461     c-5.294,3.831-10.701,7.641-15.469,12.136C32.192,91.142,32.144,90.977,32.143,90.825 M39.688,84.449     c2.348-1.755,4.747-3.439,7.13-5.146c-0.377-0.405-3.098,1.966-3.571,2.328C42.046,82.551,40.859,83.491,39.688,84.449" fill="#4C3800"/>
</g>
</g>
<path d="M94.016,12.675C76.604,8.91,58.739,7.253,40.932,7.793   c1.144,11.757,2.216,23.521,3.215,35.292c0.406-0.172,0.929-1.022,1.241-1.334c1.117-1.121,2.302-2.173,3.537-3.162   c3.598-2.877,7.703-5.276,12.183-6.457c7.033-1.854,14.338-0.922,20.107,3.75c4.592,3.719,7.484,9.107,9.169,14.692   c0.118-0.184,0.078-0.649,0.101-0.857c0.08-0.765,0.157-1.53,0.233-2.295c0.256-2.557,0.504-5.115,0.752-7.672   c0.616-6.356,1.224-12.713,1.82-19.07c0.18-1.913,0.359-3.825,0.533-5.738C93.864,14.486,94.245,13.1,94.016,12.675" fill="#FFFFFF" fill-opacity="0.5" stroke-opacity="0.5"/>
<g>
<path d="M86.842,79.33c1.427-12.911,2.78-25.831,4.062-38.757c0.649-6.544,1.28-13.091,1.894-19.639    c0.148-1.58,0.295-3.159,0.44-4.739c0.073-0.791,0.146-1.582,0.219-2.373c0.056-0.605-0.215-0.451-0.736-0.561    c-0.515-0.109-1.03-0.216-1.545-0.322c-3.213-0.657-6.44-1.244-9.679-1.758c-7.202-1.144-14.462-1.932-21.742-2.356    c-3.619-0.211-7.243-0.332-10.869-0.363c-1.808-0.016-3.617-0.009-5.425,0.021c-0.903,0.015-1.807,0.035-2.709,0.061    c-0.072-0.402-0.289-0.775-0.359-1.178c12.621-0.377,25.277,0.46,37.77,2.266c3.148,0.456,6.288,0.974,9.416,1.556    c1.493,0.278,2.984,0.571,4.473,0.877c0.742,0.153,1.482,0.31,2.223,0.47c0.568,0.123,0.345,0.336,0.298,0.844    c-0.048,0.51-0.096,1.02-0.144,1.53c-0.604,6.425-1.222,12.85-1.853,19.272c-1.259,12.797-2.574,25.589-3.977,38.37    c-0.164,1.498-0.329,2.996-0.496,4.494c-0.083,0.744-0.166,1.488-0.25,2.232c-0.041,0.371-0.083,0.741-0.125,1.112    c-0.499,0.031-0.999,0.063-1.498,0.098c-3.13,0.216-6.255,0.499-9.372,0.849c-6.258,0.702-12.486,1.675-18.658,2.922    c-8.808,1.781-17.507,4.121-25.991,7.087c0.16-0.196,0.247-0.475,0.357-0.7c0.223-0.455,0.766-0.497,1.222-0.654    c1.182-0.408,2.368-0.806,3.557-1.191c2.261-0.733,4.535-1.428,6.82-2.081c4.578-1.309,9.202-2.456,13.861-3.438    C67.52,81.277,77.158,79.958,86.842,79.33" fill="#4C3800"/>
</g>
<g>
<path d="M39.729,1.149c1.291,13.124,2.497,26.255,3.615,39.395c0.551,6.478,1.081,12.956,1.589,19.437    c0.252,3.218,0.499,6.436,0.74,9.653c0.116,1.539,0.23,3.078,0.343,4.618c0.056,0.768,0.112,1.536,0.168,2.305    c0.028,0.384,0.056,0.768,0.083,1.151c0.039,0.542,0.297,1.071-0.265,1.28c-9.64,3.585-18.949,8.053-27.783,13.32    C13.578,66.652,8.594,41.058,3.291,15.53C2.588,12.148,1.88,8.768,1.166,5.388C13.861,2.837,26.782,1.417,39.729,1.149 M0,4.403    c5.305,25.359,10.191,50.804,14.858,76.288c0.816,4.46,1.626,8.921,2.43,13.383c5.108-3.172,10.426-6.007,15.85-8.6    c2.74-1.31,5.51-2.556,8.308-3.735c1.308-0.552,2.623-1.089,3.943-1.61c0.646-0.256,1.295-0.508,1.944-0.756    c0.491-0.187,0.302-0.4,0.269-0.877c-0.036-0.504-0.071-1.008-0.107-1.512c-0.917-12.865-1.916-25.725-2.997-38.577    c-0.549-6.536-1.12-13.07-1.712-19.603c-0.296-3.271-0.599-6.54-0.906-9.809c-0.147-1.568-0.296-3.135-0.447-4.702    c-0.075-0.783-0.15-1.565-0.226-2.348c-0.038-0.391-0.076-0.783-0.114-1.174c-0.075-0.773-0.011-0.784-0.792-0.768    c-12.321,0.26-24.657,1.496-36.779,3.72C2.346,3.94,1.172,4.166,0,4.403" fill="#4C3800"/>
</g>
</g>
</svg>
