<?xml version="1.0" encoding="UTF-8" standalone="no"?>
<!DOCTYPE svg PUBLIC "-//W3C//DTD SVG 1.1 Tiny//EN" "http://www.w3.org/Graphics/SVG/1.1/DTD/svg11-tiny.dtd">
<svg xmlns="http://www.w3.org/2000/svg" xmlns:xlink="http://www.w3.org/1999/xlink" baseProfile="tiny" height="37.437" version="1.1" viewBox="0 0 34.667 37.437" width="34.667">
<g/>
<g>
<g>
<circle cx="17.333" cy="19.104" fill="#FFFFFF" r="17.333"/>
<circle cx="17.334" cy="19.104" fill="#FF0000" r="14.667"/>
<circle cx="17.333" cy="19.104" fill="#FFFFFF" r="12"/>
<circle cx="17.333" cy="19.104" fill="#FF0000" r="9.333"/>
<circle cx="17.334" cy="19.104" fill="#FFFFFF" r="6.667"/>
<circle cx="17.333" cy="19.104" fill="#FF0000" r="4"/>
<path d="M14.096,28.273c-0.027-0.021-0.057-0.036-0.085-0.056    c0.125-0.095,0.246-0.201,0.36-0.325c0.786-0.856,1.067-2.24,0.942-4.627c-0.27-5.122-2.578-12.116-6.208-11.924    c-0.813,0.042-1.585,0.463-2.297,1.253c-2.252,2.5-3.549,8.304-3.347,12.157c0.099,1.889,0.556,3.106,1.439,3.83    c0.261,0.214,0.541,0.362,0.83,0.471c-0.027,0.029-0.059,0.052-0.085,0.083c-0.451,0.532-0.631,1.24-0.536,2.105    c0.295,2.668,3.117,6.497,6.039,6.178c2.759-0.311,4.311-3.867,3.98-6.868C15.049,29.861,14.858,28.877,14.096,28.273z     M8.292,13.933c0.333-0.37,0.658-0.582,0.915-0.595c1.559-0.082,3.831,4.769,4.108,10.033c0.111,2.121-0.166,2.894-0.418,3.169    c-0.281,0.306-0.928,0.342-1.961,0.376c-0.23,0.008-0.469,0.016-0.721,0.028c-0.546,0.029-1.073,0.106-1.583,0.182    c-1.027,0.149-1.997,0.292-2.464-0.092c-0.4-0.328-0.646-1.153-0.71-2.388C5.261,20.904,6.612,15.798,8.292,13.933z M10.93,35.43    c-1.422,0.155-3.608-2.358-3.834-4.408c-0.019-0.167-0.033-0.468,0.074-0.595c0.25-0.295,1.29-0.354,2.125-0.4    c0.411-0.022,0.836-0.047,1.264-0.094c-0.002,0,0.584-0.068,0.584-0.068c0.708-0.085,1.511-0.182,1.712-0.022    c0.033,0.025,0.202,0.193,0.285,0.931C13.355,32.732,12.377,35.268,10.93,35.43z" fill="#FFFFFF"/>
<g>
<path d="M14.313,23.318c0.258,4.922-1.341,4.487-4.049,4.625     c-2.709,0.146-5.549,1.676-5.806-3.245C4.2,19.777,6.447,12.48,9.155,12.34C11.862,12.197,14.054,18.398,14.313,23.318z" fill="#231F20"/>
<path d="M14.133,30.661c-0.264-2.35-1.503-1.961-3.685-1.723     c-2.18,0.242-4.604-0.154-4.347,2.192c0.26,2.353,2.753,5.531,4.937,5.293C13.22,36.179,14.392,33.011,14.133,30.661z" fill="#231F20"/>
</g>
<path d="M26.638,1.256c-0.711-0.789-1.483-1.21-2.296-1.252    c-0.819-0.043-1.608,0.271-2.346,0.935c-2.264,2.038-3.656,7.072-3.862,10.99c-0.126,2.387,0.155,3.771,0.941,4.626    c0.113,0.124,0.234,0.23,0.359,0.325c-0.028,0.021-0.058,0.035-0.086,0.057c-0.762,0.603-0.953,1.588-1.03,2.276    c-0.332,3,1.22,6.558,3.98,6.869c2.92,0.318,5.743-3.51,6.039-6.177c0.095-0.866-0.086-1.574-0.536-2.106    c-0.026-0.031-0.058-0.054-0.086-0.083c0.289-0.109,0.568-0.257,0.829-0.471c0.884-0.724,1.341-1.941,1.44-3.831    C30.187,9.561,28.89,3.756,26.638,1.256z M26.35,19.684c-0.227,2.05-2.413,4.564-3.834,4.409    c-1.447-0.163-2.426-2.698-2.209-4.658c0.082-0.737,0.251-0.905,0.284-0.931c0.2-0.159,1.004-0.063,1.713,0.022l0.585,0.068    c0.426,0.047,0.851,0.071,1.262,0.094c0.835,0.047,1.875,0.105,2.125,0.4C26.383,19.217,26.369,19.517,26.35,19.684z     M27.988,13.309c-0.064,1.235-0.31,2.061-0.71,2.388c-0.467,0.383-1.437,0.241-2.464,0.091c-0.509-0.074-1.036-0.151-1.579-0.181    c-0.256-0.013-0.494-0.021-0.725-0.028c-1.033-0.034-1.681-0.071-1.961-0.377c-0.252-0.274-0.529-1.047-0.417-3.168    c0.203-3.892,1.641-8.203,3.203-9.609c0.328-0.295,0.632-0.438,0.903-0.424c0.256,0.013,0.581,0.225,0.914,0.594    C26.833,4.46,28.184,9.566,27.988,13.309z" fill="#FFFFFF"/>
<g>
<path d="M19.133,11.981c-0.26,4.922,1.34,4.487,4.048,4.625c2.71,0.146,5.548,1.676,5.806-3.245     c0.258-4.921-1.988-12.219-4.696-12.359C21.583,0.86,19.391,7.061,19.133,11.981z" fill="#231F20"/>
<path d="M19.313,19.324c0.264-2.349,1.502-1.961,3.685-1.723     c2.18,0.242,4.604-0.154,4.347,2.192c-0.261,2.353-2.753,5.532-4.937,5.293C20.227,24.842,19.053,21.674,19.313,19.324z" fill="#231F20"/>
</g>
</g>
</g>
</svg>
