<?xml version="1.0" encoding="UTF-8" standalone="no"?>
<!DOCTYPE svg PUBLIC "-//W3C//DTD SVG 1.1 Tiny//EN" "http://www.w3.org/Graphics/SVG/1.1/DTD/svg11-tiny.dtd">
<svg xmlns="http://www.w3.org/2000/svg" xmlns:xlink="http://www.w3.org/1999/xlink" baseProfile="tiny" height="20" version="1.1" viewBox="0 0 20 20" width="20">
<g>
<g>
<g>
<linearGradient gradientTransform="matrix(-0.9981 0.0618 -0.0618 -0.9981 -477.7881 78.7327)" gradientUnits="userSpaceOnUse" id="XMLID_4_" x1="-497.1377" x2="-495.2192" y1="34.5967" y2="32.6782">
<stop offset="0" style="stop-color:#DEDEDE"/>
<stop offset="0.0643" style="stop-color:#ECECEC"/>
<stop offset="0.1565" style="stop-color:#FAFAFA"/>
<stop offset="0.236" style="stop-color:#FFFFFF"/>
<stop offset="0.342" style="stop-color:#D2D2D2"/>
<stop offset="0.5592" style="stop-color:#7C7C7C"/>
<stop offset="0.7124" style="stop-color:#454545"/>
<stop offset="0.7865" style="stop-color:#303030"/>
<stop offset="1" style="stop-color:#828282"/>
</linearGradient>
<path d="M9.977,12.048c0,0,4.375,3.782,5.811,5.051c1.477,1.303,3.771,1.2,3.852,1.109     c0.09-0.101-0.139-2.182-1.669-3.534c-2.243-1.981-5.78-5.06-5.78-5.06L9.977,12.048z" fill="url(#XMLID_4_)"/>
<path d="M11.49,8.319l-2.653,2.916l-0.26,0.289l6.597,5.735c1.627,1.438,4.394,1.537,4.715,1.173L20,17.942     c-0.047-0.788-0.517-2.613-1.954-3.884L11.49,8.319z M19.229,17.851c-0.668,0.025-2.399-0.143-3.553-1.162     c0,0-5.481-4.765-6.016-5.23c0.367-0.402,1.536-1.689,1.889-2.078c1.215,1.063,5.993,5.247,5.993,5.247     C18.748,15.693,19.159,17.236,19.229,17.851z" fill="#3D3D3D"/>
</g>
<linearGradient gradientTransform="matrix(-1 0 0 -1 -517.127 38.9941)" gradientUnits="userSpaceOnUse" id="XMLID_5_" x1="-524.3599" x2="-524.3599" y1="24.877" y2="38.6436">
<stop offset="0" style="stop-color:#FFA14A"/>
<stop offset="0.1629" style="stop-color:#FF3600"/>
<stop offset="0.3556" style="stop-color:#E62F00"/>
<stop offset="0.7635" style="stop-color:#A51F00"/>
<stop offset="1" style="stop-color:#7D1400"/>
</linearGradient>
<circle cx="7.233" cy="7.233" fill="url(#XMLID_5_)" r="6.883"/>
<path d="M7.233,0C3.245,0,0,3.245,0,7.233c0,3.989,3.245,7.233,7.233,7.233c3.988,0,7.233-3.245,7.233-7.233    C14.466,3.245,11.221,0,7.233,0z M7.233,13.766c-3.602,0-6.533-2.931-6.533-6.533C0.7,3.63,3.631,0.7,7.233,0.7    c3.603,0,6.533,2.93,6.533,6.533C13.766,10.835,10.835,13.766,7.233,13.766z" fill="#590000"/>
<linearGradient gradientTransform="matrix(-1 0 0 -1 -517.127 38.9941)" gradientUnits="userSpaceOnUse" id="XMLID_6_" x1="-524.3511" x2="-524.3511" y1="30.3545" y2="37.8203">
<stop offset="0" style="stop-color:#E6381C"/>
<stop offset="0.0112" style="stop-color:#E6381C"/>
<stop offset="0.2733" style="stop-color:#EC6953"/>
<stop offset="0.8727" style="stop-color:#FCE4DD"/>
<stop offset="1" style="stop-color:#FFFFFB"/>
</linearGradient>
<ellipse cx="7.224" cy="4.906" fill="url(#XMLID_6_)" rx="4.9" ry="3.733"/>
</g>
</g>
</svg>
