<?xml version="1.0" encoding="UTF-8"?>
<!DOCTYPE svg PUBLIC "-//W3C//DTD SVG 1.1 Tiny//EN" "http://www.w3.org/Graphics/SVG/1.1/DTD/svg11-tiny.dtd">
<svg baseProfile="tiny" version="1.1" xmlns="http://www.w3.org/2000/svg" xmlns:xlink="http://www.w3.org/1999/xlink" width="60" height="60" viewBox="0 0 60 60">
<g>
<linearGradient id="XMLID_6_" gradientUnits="userSpaceOnUse" x1="24.8857" y1="60.4248" x2="29.2188" y2="4.5913">
<stop offset="0" style="stop-color:#FF0000"/>
<stop offset="0.0913" style="stop-color:#FF0606"/>
<stop offset="0.2172" style="stop-color:#FF1818"/>
<stop offset="0.3633" style="stop-color:#FF3535"/>
<stop offset="0.5246" style="stop-color:#FF5E5E"/>
<stop offset="0.6984" style="stop-color:#FF9292"/>
<stop offset="0.8798" style="stop-color:#FFD1D1"/>
<stop offset="1" style="stop-color:#FFFFFF"/>
</linearGradient>
<path fill="url(#XMLID_6_)" d="M4.542,49.75c2.95-1.822,32.018-16.615,35.125-19.5c2.317-2.152-1.369-1.999-9.182-3.056   c-12.423-1.684-8.102-5.279,0.872-8.427c6.81-2.39,11.977-4.268,17.227-3.684c0.617,0.068,0.144,1.239-2.854,2.187   c-5.336,1.69-8.099,3.045-11.291,4.263c-2.813,1.071-4.622,1.842,3.536,2.58c4.965,0.449,18.898,0.796,13.444,5.781   c-3.199,2.925-28.795,24.439-33.711,27.981C16.142,59.003,13.292,60,10.667,60S8,60,4,60c-2.167,0-4-2.357-4-4.179   S1.167,51.834,4.542,49.75z"/>
</g>
<g>
<g>
<path d="M60,8.501C60,3.806,56.194,0,51.498,0c-4.694,0-8.5,3.806-8.5,8.501c0,0,0,0,0,0v0v8.501h8.501l0,0    C56.194,17.002,60,13.196,60,8.501z"/>
<linearGradient id="XMLID_7_" gradientUnits="userSpaceOnUse" x1="51.499" y1="16.1528" x2="51.499" y2="0.8506">
<stop offset="0" style="stop-color:#7BB9FA"/>
<stop offset="0.1404" style="stop-color:#3D80C2"/>
<stop offset="0.2132" style="stop-color:#3977B5"/>
<stop offset="0.4392" style="stop-color:#2D6092"/>
<stop offset="0.6522" style="stop-color:#254F79"/>
<stop offset="0.845" style="stop-color:#204569"/>
<stop offset="1" style="stop-color:#1E4164"/>
</linearGradient>
<path fill="url(#XMLID_7_)" d="M59.15,8.501c0-4.225-3.426-7.65-7.652-7.65    c-4.225,0-7.65,3.426-7.65,7.65c0,0,0,0,0,0v0v7.651h7.651l0,0C55.725,16.152,59.15,12.727,59.15,8.501z"/>
<linearGradient id="XMLID_8_" gradientUnits="userSpaceOnUse" x1="51.499" y1="10.8076" x2="51.499" y2="1.2441">
<stop offset="0" style="stop-color:#3E628A"/>
<stop offset="0.1092" style="stop-color:#44678E"/>
<stop offset="0.2599" style="stop-color:#567699"/>
<stop offset="0.4348" style="stop-color:#738DAA"/>
<stop offset="0.6277" style="stop-color:#9CAEC3"/>
<stop offset="0.8331" style="stop-color:#D0D8E2"/>
<stop offset="1" style="stop-color:#FFFFFF"/>
</linearGradient>
<ellipse fill="url(#XMLID_8_)" cx="51.499" cy="6.026" rx="5.738" ry="4.781"/>
<g>
<g>
<path fill="#192438" d="M47.068,3.663V14.41h5.178c3.534,0,4.275-1.904,4.275-3.502c0-0.651-0.179-1.233-0.535-1.73      c-0.199-0.278-0.444-0.502-0.724-0.682c0.563-0.491,0.856-1.145,0.856-1.927c0-1.326-0.693-2.906-3.998-2.906H47.068z       M52.121,4.513c2.822,0,3.148,1.173,3.148,2.056c0,0.738-0.339,1.252-1.063,1.617l-0.98,0.492l1.056,0.297      c0.434,0.122,0.766,0.35,1.014,0.698c0.254,0.354,0.378,0.758,0.378,1.235c0,1.139-0.356,2.652-3.427,2.652c0,0-3.622,0-4.327,0      c0-0.744,0-8.303,0-9.047C48.619,4.513,52.121,4.513,52.121,4.513z"/>
<path fill="#192438" d="M49.646,5.66v2.752h2.419c0.356,0,0.673-0.097,0.939-0.288c0.35-0.243,0.537-0.619,0.537-1.082      c0-0.442-0.136-0.79-0.402-1.033c-0.254-0.233-0.616-0.351-1.074-0.351H49.646z M52.065,6.51c0.236,0,0.41,0.044,0.502,0.129      c0.083,0.075,0.124,0.211,0.124,0.404c0,0.232-0.089,0.326-0.177,0.387c-0.126,0.09-0.271,0.132-0.449,0.132      c0,0-1.043,0-1.569,0c0-0.365,0-0.687,0-1.052C51.022,6.51,52.065,6.51,52.065,6.51z"/>
<path fill="#192438" d="M49.646,9.221v3.127h2.487c1.635,0,1.812-1.074,1.812-1.536c0-1.012-0.66-1.592-1.812-1.592H49.646z       M52.134,10.071c0.887,0,0.961,0.383,0.961,0.742c0,0.332-0.074,0.685-0.961,0.685c0,0-1.103,0-1.638,0c0-0.433,0-0.994,0-1.427      C51.031,10.071,52.134,10.071,52.134,10.071z"/>
</g>
</g>
<g>
<path fill="#FFFFFF" d="M47.494,13.985V4.088h4.627c2.382,0,3.573,0.827,3.573,2.481c0,0.897-0.433,1.562-1.298,1.997     c0.525,0.147,0.94,0.434,1.244,0.859c0.305,0.425,0.456,0.919,0.456,1.483c0,2.051-1.283,3.077-3.851,3.077H47.494z      M50.071,6.084v1.903h1.994c0.267,0,0.498-0.069,0.692-0.208c0.239-0.167,0.359-0.412,0.359-0.736     c0-0.638-0.351-0.958-1.052-0.958H50.071z M50.071,9.646v2.277h2.063c0.925,0,1.386-0.37,1.386-1.11     c0-0.778-0.461-1.167-1.386-1.167H50.071z"/>
</g>
</g>
<g>
<path d="M36,42c0-8.284-6.716-15-15-15c-8.284,0-15,6.716-15,15v15h15l0,0C29.285,57,36,50.283,36,42z"/>
<linearGradient id="XMLID_9_" gradientUnits="userSpaceOnUse" x1="21.0005" y1="55.499" x2="21.0005" y2="28.5005">
<stop offset="0" style="stop-color:#7BB9FA"/>
<stop offset="0.1404" style="stop-color:#3D80C2"/>
<stop offset="0.2132" style="stop-color:#3977B5"/>
<stop offset="0.4392" style="stop-color:#2D6092"/>
<stop offset="0.6522" style="stop-color:#254F79"/>
<stop offset="0.845" style="stop-color:#204569"/>
<stop offset="1" style="stop-color:#1E4164"/>
</linearGradient>
<path fill="url(#XMLID_9_)" d="M34.501,42c0-7.455-6.046-13.5-13.501-13.5    c-7.455,0-13.5,6.045-13.5,13.5v13.499H21l0,0C28.456,55.499,34.501,49.455,34.501,42z"/>
<linearGradient id="XMLID_10_" gradientUnits="userSpaceOnUse" x1="21.0005" y1="46.0703" x2="21.0005" y2="29.1958">
<stop offset="0" style="stop-color:#3E628A"/>
<stop offset="0.1092" style="stop-color:#44678E"/>
<stop offset="0.2599" style="stop-color:#567699"/>
<stop offset="0.4348" style="stop-color:#738DAA"/>
<stop offset="0.6277" style="stop-color:#9CAEC3"/>
<stop offset="0.8331" style="stop-color:#D0D8E2"/>
<stop offset="1" style="stop-color:#FFFFFF"/>
</linearGradient>
<ellipse fill="url(#XMLID_10_)" cx="21" cy="37.633" rx="10.125" ry="8.438"/>
<g>
<g>
<path fill="#192438" d="M17.45,32.566l-7.126,19.061h6.308c0,0,0.857-2.433,1.107-3.141c0.801,0,4.25,0,5.056,0      c0.245,0.712,1.083,3.141,1.083,3.141h6.385l-7.125-19.061H17.45z M22.097,34.067c0.324,0.865,5.351,14.314,6.003,16.062      c-1.105,0-2.526,0-3.153,0c-0.245-0.712-1.083-3.142-1.083-3.142h-7.188c0,0-0.858,2.434-1.107,3.142c-0.619,0-1.991,0-3.084,0      c0.652-1.747,5.68-15.196,6.004-16.062C19.208,34.067,21.38,34.067,22.097,34.067z"/>
<path fill="#192438" d="M19.713,37.438l-2.478,7.658h6.038l-2.416-7.658H19.713z M20.275,40.576      c0.435,1.377,0.699,2.215,0.953,3.02c-0.737,0-1.19,0-1.93,0C19.56,42.788,19.831,41.95,20.275,40.576z"/>
</g>
</g>
<g>
<path fill="#FFFFFF" d="M11.405,50.878l6.565-17.562h4.647l6.564,17.562h-4.77l-1.082-3.142h-6.123l-1.106,3.142H11.405z      M20.259,38.189l-1.992,6.156h3.984l-1.943-6.156H20.259z"/>
</g>
</g>
</g>
</svg>
