<?xml version="1.0" encoding="UTF-8" standalone="no"?>
<!DOCTYPE svg PUBLIC "-//W3C//DTD SVG 1.1 Tiny//EN" "http://www.w3.org/Graphics/SVG/1.1/DTD/svg11-tiny.dtd">
<svg xmlns="http://www.w3.org/2000/svg" xmlns:xlink="http://www.w3.org/1999/xlink" baseProfile="tiny" height="89.497px" version="1.1" viewBox="0 0 93.826 89.497" width="93.826px" x="0px" y="0px">
<g>
<g>
<radialGradient cx="45.6841" cy="46.2974" gradientUnits="userSpaceOnUse" id="SVGID_1_" r="31.3247">
<stop offset="0" style="stop-color:#FFE800"/>
<stop offset="0.1067" style="stop-color:#FFE800"/>
<stop offset="0.2397" style="stop-color:#FEE102"/>
<stop offset="0.4352" style="stop-color:#FCCD08"/>
<stop offset="0.6693" style="stop-color:#F9AD11"/>
<stop offset="0.9312" style="stop-color:#F5801D"/>
<stop offset="1" style="stop-color:#F47321"/>
</radialGradient>
<circle cx="45.684" cy="46.297" fill="url(#SVGID_1_)" r="31.325"/>
<linearGradient gradientUnits="userSpaceOnUse" id="SVGID_2_" x1="45.6841" x2="45.6841" y1="14.9727" y2="55.6099">
<stop offset="0" style="stop-color:#FFFFFF"/>
<stop offset="0.0056" style="stop-color:#FFFFFF"/>
<stop offset="0.1468" style="stop-color:#FFFEFB"/>
<stop offset="0.2796" style="stop-color:#FFFAF0"/>
<stop offset="0.4091" style="stop-color:#FFF4DD"/>
<stop offset="0.5357" style="stop-color:#FFECC2"/>
<stop offset="0.6067" style="stop-color:#FFE6B0"/>
<stop offset="1" style="stop-color:#FFE62B"/>
</linearGradient>
<ellipse cx="45.684" cy="35.291" fill="url(#SVGID_2_)" rx="24.975" ry="20.319"/>
</g>
<g>
<g>
<path d="M49.046,79.911c-1.85-1.549-4.876-1.549-6.725,0l-9.524,7.98c-1.85,1.551-3.709,0.874-4.134-1.502     l-2.184-12.234c-0.424-2.375-2.745-4.318-5.158-4.318H8.9c-2.414,0-3.4-1.711-2.193-3.801l6.211-10.769     c1.206-2.09,0.684-5.071-1.164-6.626l-9.536-8.028c-1.848-1.555-1.503-3.501,0.764-4.328l11.667-4.253     c2.268-0.827,3.787-3.448,3.377-5.826L15.92,13.979c-0.409-2.378,1.11-3.647,3.377-2.821l11.667,4.253     c2.267,0.826,5.107-0.208,6.313-2.298L43.49,2.345c1.207-2.091,3.184-2.092,4.396-0.006l6.256,10.779     c1.213,2.087,4.058,3.118,6.324,2.292l11.669-4.253c2.266-0.827,3.779,0.442,3.36,2.818l-2.143,12.231     c-0.419,2.377,1.097,4.998,3.363,5.824l11.665,4.253c2.27,0.827,2.613,2.773,0.768,4.328l-9.539,8.028     c-1.844,1.555-2.366,4.536-1.163,6.626l6.214,10.769c1.206,2.09,0.218,3.801-2.194,3.801H70.045     c-2.412,0-4.733,1.943-5.158,4.318l-2.184,12.234c-0.423,2.376-2.284,3.053-4.134,1.502L49.046,79.911z M45.684,73.818     c7.664,0,14.205-2.708,19.622-8.125c5.416-5.417,8.125-11.957,8.125-19.621c0-7.664-2.709-14.205-8.125-19.622     c-5.417-5.416-11.958-8.125-19.622-8.125c-7.665,0-14.205,2.709-19.623,8.125c-5.415,5.417-8.123,11.958-8.123,19.622     c0,7.664,2.719,14.204,8.157,19.621C31.532,71.11,38.061,73.818,45.684,73.818z" fill="#FFD900"/>
<path d="M60.523,89.497c-0.842-0.001-1.68-0.366-2.452-1.014l0,0l-9.521-7.978l0.497-0.595l0.497-0.594     l9.522,7.979c0.571,0.481,1.083,0.653,1.457,0.652l0,0c0.604-0.013,1.149-0.393,1.417-1.694l0,0l2.186-12.237     c0.52-2.775,3.094-4.93,5.92-4.956l0,0h12.421c1.48-0.063,1.899-0.574,1.934-1.338l0,0c0-0.343-0.113-0.787-0.41-1.3l0,0     l-6.214-10.77c-0.516-0.895-0.754-1.906-0.754-2.913l0,0c0.005-1.756,0.715-3.527,2.089-4.691l0,0l9.538-8.029     c0.683-0.578,0.914-1.126,0.912-1.525l0,0c-0.002-0.499-0.339-1.063-1.442-1.484l0,0L76.45,32.759     c-2.358-0.878-3.928-3.277-3.944-5.748l0,0c0-0.316,0.028-0.629,0.085-0.938l0,0l2.143-12.23c0.04-0.225,0.056-0.433,0.058-0.623     l0,0c-0.07-1.14-0.449-1.485-1.354-1.544l0,0c-0.288,0-0.638,0.062-1.038,0.208l0,0l-11.67,4.252     c-0.622,0.225-1.274,0.332-1.925,0.33l0,0c-2.117-0.006-4.231-1.09-5.33-2.961l0,0L47.216,2.728     c-0.528-0.896-1.093-1.181-1.529-1.18l0,0c-0.438-0.001-1.002,0.285-1.529,1.184l0,0l-6.212,10.768     c-1.097,1.874-3.209,2.962-5.327,2.968l0,0c-0.648,0-1.299-0.104-1.921-0.33l0,0L19.03,11.883     c-0.401-0.145-0.75-0.206-1.038-0.206l0,0c-0.913,0.058-1.299,0.41-1.367,1.558l0,0c0,0.184,0.018,0.388,0.057,0.613l0,0     l2.106,12.229c0.053,0.305,0.077,0.611,0.078,0.918l0,0c-0.017,2.48-1.591,4.882-3.952,5.765l0,0L3.248,37.012     c-1.107,0.421-1.444,0.983-1.445,1.484l0,0c-0.001,0.399,0.23,0.947,0.915,1.525l0,0l9.535,8.029     c1.374,1.163,2.084,2.934,2.088,4.691l0,0c-0.001,1.004-0.236,2.019-0.752,2.913l0,0L7.374,66.424     c-0.296,0.513-0.411,0.958-0.41,1.299l0,0c0.033,0.764,0.452,1.274,1.936,1.338l0,0h12.421c2.824,0.026,5.398,2.181,5.919,4.956     l0,0l2.183,12.237c0.268,1.3,0.815,1.682,1.419,1.694l0,0c0.373,0.001,0.883-0.171,1.457-0.652l0,0l9.524-7.977     c1.086-0.911,2.48-1.344,3.861-1.347l0,0c1.38,0.003,2.771,0.438,3.86,1.344l0,0l-0.497,0.594l-0.497,0.595     c-0.763-0.642-1.811-0.984-2.866-0.984l0,0c-1.06,0-2.106,0.343-2.866,0.984l0,0l-9.525,7.979     c-0.772,0.647-1.611,1.012-2.45,1.013l0,0c-1.516,0.013-2.672-1.255-2.941-2.971l0,0l-2.184-12.234     c-0.329-1.975-2.395-3.707-4.396-3.682l0,0H8.9c-0.983,0-1.843-0.246-2.483-0.759l0,0c-0.643-0.508-1.009-1.298-1-2.128l0,0     c0-0.679,0.214-1.379,0.619-2.073l0,0l6.212-10.77c0.362-0.629,0.544-1.377,0.544-2.14l0,0c0.002-1.339-0.567-2.698-1.537-3.507     l0,0l-9.536-8.03c-0.914-0.769-1.461-1.712-1.464-2.708l0,0c-0.001-1.327,0.998-2.425,2.463-2.938l0,0l11.667-4.252     c1.674-0.591,2.948-2.503,2.935-4.311l0,0c0-0.221-0.02-0.442-0.056-0.658l0,0l-2.105-12.225     c-0.053-0.299-0.081-0.591-0.081-0.876l0,0c-0.001-0.868,0.256-1.661,0.788-2.234l0,0c0.529-0.577,1.304-0.875,2.127-0.871l0,0     c0.5,0,1.027,0.102,1.568,0.301l0,0l11.668,4.252c0.437,0.16,0.908,0.236,1.391,0.236l0,0c1.581,0.009,3.233-0.868,3.987-2.194     l0,0l6.211-10.768C43.501,0.763,44.528,0.002,45.688,0l0,0c1.154,0.002,2.181,0.758,2.867,1.95l0,0l6.257,10.78     c0.757,1.325,2.409,2.199,3.992,2.19l0,0c0.482,0,0.955-0.077,1.397-0.236l0,0l11.665-4.252c0.543-0.199,1.068-0.301,1.57-0.301     l0,0c0.818-0.004,1.588,0.292,2.117,0.865l0,0c0.529,0.573,0.785,1.36,0.783,2.227l0,0c0.001,0.281-0.023,0.579-0.077,0.89l0,0     l-2.146,12.23c-0.041,0.224-0.059,0.448-0.059,0.67l0,0c-0.014,1.8,1.252,3.703,2.926,4.293l0,0l11.665,4.252     c1.466,0.516,2.464,1.611,2.464,2.938l0,0c-0.003,0.996-0.551,1.939-1.464,2.708l0,0l-9.537,8.03     c-0.972,0.811-1.54,2.17-1.538,3.507l0,0c0,0.765,0.182,1.51,0.546,2.14l0,0l6.215,10.77c0.4,0.696,0.613,1.395,0.616,2.073l0,0     c0.007,0.83-0.359,1.62-1.001,2.127l0,0c-0.641,0.513-1.498,0.76-2.48,0.76l0,0H70.045c-2.002-0.025-4.07,1.708-4.396,3.682l0,0     l-2.183,12.235c-0.271,1.71-1.417,2.97-2.922,2.97l0,0C60.537,89.497,60.53,89.497,60.523,89.497L60.523,89.497z M45.684,74.59     v-0.773v-0.772c7.48-0.01,13.781-2.617,19.074-7.899l0,0c5.281-5.292,7.891-11.592,7.898-19.072l0,0     c-0.008-7.482-2.617-13.784-7.898-19.076l0,0c-5.293-5.282-11.594-7.89-19.074-7.898l0,0c-7.483,0.008-13.783,2.617-19.076,7.898     l0,0c-5.282,5.292-7.89,11.593-7.896,19.076l0,0c0.007,7.48,2.625,13.779,7.929,19.072l0,0c5.314,5.283,11.605,7.89,19.043,7.899     l0,0v0.772V74.59c-7.807,0.009-14.577-2.799-20.135-8.35l0,0c-5.574-5.541-8.394-12.321-8.386-20.167l0,0     c-0.008-7.849,2.8-14.63,8.351-20.171l0,0c5.542-5.551,12.323-8.359,20.17-8.351l0,0c7.846-0.008,14.626,2.8,20.167,8.351l0,0     c5.55,5.541,8.361,12.322,8.352,20.171l0,0c0.01,7.845-2.802,14.626-8.352,20.167l0,0c-5.534,5.542-12.302,8.352-20.133,8.35l0,0     C45.707,74.59,45.695,74.59,45.684,74.59L45.684,74.59z" fill="#B04400"/>
</g>
</g>
</g>
<g>
<g>
<linearGradient gradientUnits="userSpaceOnUse" id="SVGID_3_" x1="46.916" x2="46.916" y1="35.7163" y2="77.4829">
<stop offset="0" style="stop-color:#FFFFFF"/>
<stop offset="0.256" style="stop-color:#FBFBFB"/>
<stop offset="0.4963" style="stop-color:#F0F0F0"/>
<stop offset="0.6067" style="stop-color:#E8E8E8"/>
<stop offset="1" style="stop-color:#D9D9D9"/>
</linearGradient>
<path d="M18.445,75.08c0,0,36.09,2.002,49.824,2.383s28.536-4.696,23.583-12.201    c-5.789-8.77-17.859-0.101-17.859-0.101s7.992-7.64,0.903-15.591c-3.967-4.45-10.492-4.907-24.048,8.648    c0,0,1.267-19.87-10.911-22.153c-10.581-1.983-15.366,4.52-17.019,18.737c0,0-7.779-8.817-17.037-3.196    C-1.753,56.243-2.385,70.122,18.445,75.08z" fill="url(#SVGID_3_)"/>
<path d="M68.241,78.46c-13.767-0.382-49.845-2.384-49.851-2.384l0,0l0.056-0.998l0.231-0.973l-0.231,0.973    l-0.056,0.998l-0.093-0.006l-0.085-0.019C5.265,72.999,0.004,66.316,0,60.141l0,0c0.002-3.899,2.107-7.416,5.362-9.391l0,0    c2.384-1.452,4.735-2.022,6.883-2.021l0,0c4.518,0.03,8.057,2.404,9.936,3.997l0,0c0.781-5.411,2.076-9.664,4.157-12.737l0,0    c2.31-3.445,5.752-5.301,10.105-5.274l0,0c1.16,0,2.384,0.124,3.678,0.366l0,0c5.525,1.034,8.504,5.409,10.015,9.875l0,0    c1.377,4.032,1.688,8.274,1.739,10.862l0,0c7.577-7.225,12.916-10.011,17.182-10.043l0,0c2.788-0.012,4.974,1.301,6.584,3.128l0,0    c2.324,2.593,3.192,5.285,3.184,7.691l0,0c-0.015,2.127-0.644,3.999-1.407,5.494l0,0c1.997-0.903,4.542-1.738,7.168-1.756l0,0    c2.901-0.022,5.99,1.142,8.1,4.377l0,0c0.752,1.134,1.143,2.302,1.141,3.447l0,0c-0.084,3.604-3.476,6.029-7.912,7.712l0,0    c-4.5,1.682-10.365,2.609-16.19,2.609l0,0c-0.051,0.001-0.103,0.001-0.153,0.001l0,0C69.125,78.48,68.682,78.472,68.241,78.46    L68.241,78.46z M68.294,76.461c0.476,0.013,0.951,0.019,1.429,0.019l0,0c5.609,0.004,11.296-0.912,15.489-2.483l0,0    c4.255-1.569,6.697-3.807,6.614-5.839l0,0c-0.002-0.688-0.228-1.458-0.811-2.347l0,0c-1.78-2.657-3.999-3.453-6.431-3.478l0,0    c-3.596-0.017-7.489,2.038-9.155,3.08l0,0c-0.557,0.344-0.854,0.557-0.854,0.559l0,0L73.3,64.436    c-0.002-0.002,0.196-0.187,0.531-0.575l0,0c0.333-0.391,0.782-0.965,1.23-1.679l0,0c0.899-1.429,1.768-3.405,1.766-5.587l0,0    c-0.008-1.938-0.649-4.073-2.68-6.36l0,0c-1.39-1.538-2.934-2.45-5.091-2.46l0,0c-3.554-0.035-9.151,2.769-17.502,11.148l0,0    l-1.874,1.873l0.168-2.642c-0.002-0.003,0.035-0.553,0.035-1.516l0,0c0.004-2.31-0.219-6.9-1.64-11.035l0,0    c-1.443-4.162-3.937-7.702-8.492-8.556l0,0c-1.191-0.223-2.293-0.333-3.31-0.333l0,0c-3.817,0.027-6.406,1.439-8.453,4.4l0,0    c-2.028,2.973-3.364,7.607-4.078,13.801l0,0l-0.258,2.23l-1.485-1.685c-0.004,0.002-0.238-0.271-0.724-0.718l0,0    c-0.486-0.446-1.201-1.05-2.097-1.647l0,0c-1.791-1.201-4.284-2.37-7.104-2.365l0,0c-1.801,0.002-3.752,0.459-5.845,1.729l0,0    c-2.684,1.631-4.4,4.516-4.398,7.681l0,0c-0.004,4.905,4.144,10.925,16.584,13.943l0,0C20.534,74.192,54.977,76.093,68.294,76.461    L68.294,76.461z" fill="#6B6B6B"/>
</g>
<path d="M50.117,70.696c9.295-1.765,19.171-5.546,19.171-5.546s9.952-7.101,3.57-14.259   c-3.571-4.007-10.897-1.135-23.102,11.069c0,0-0.165-20.949-11.128-23.005c-9.525-1.786-13.375,7.799-14.862,20.599   c0,0-10.675-10.663-16.667-2.972C-4.796,71.853,34.158,73.726,50.117,70.696z" fill="#FFFFFF"/>
</g>
</svg>
