<?xml version="1.0" encoding="utf-8"?>
<!-- Generator: Adobe Illustrator 15.0.0, SVG Export Plug-In . SVG Version: 6.00 Build 0)  -->
<!DOCTYPE svg PUBLIC "-//W3C//DTD SVG 1.1//EN" "http://www.w3.org/Graphics/SVG/1.1/DTD/svg11.dtd">
<svg version="1.1" id="Layer_1" xmlns="http://www.w3.org/2000/svg" xmlns:xlink="http://www.w3.org/1999/xlink" x="0px" y="0px"
	 width="64px" height="64px" viewBox="0 0 64 64" enable-background="new 0 0 64 64" xml:space="preserve">
<g id="_x33__copy">
	<path fill="#A3DBFF" d="M55.089,38.628c1.615-0.853,2.608-1.595,2.608-1.595s-4.461-7.584-11.559-9.013
		c-1.658-0.334-3.311-0.293-4.873-0.048c1.27-0.944,2.457-2.094,3.381-3.511c3.955-6.064,1.67-14.561,1.67-14.561
		s-1.494,0.236-3.518,0.932c-0.611-2.049-1.29-3.402-1.29-3.402S40.35,7.866,38.76,8.766c-0.853-1.616-1.595-2.609-1.595-2.609
		s-7.584,4.461-9.012,11.559c-0.334,1.659-0.293,3.311-0.048,4.875c-0.944-1.271-2.094-2.458-3.511-3.382
		c-6.065-3.956-14.562-1.672-14.562-1.672s0.236,1.495,0.932,3.517c-2.05,0.612-3.402,1.291-3.402,1.291s0.436,1.161,1.336,2.75
		c-1.617,0.852-2.61,1.594-2.61,1.594s4.463,7.584,11.56,9.013c1.659,0.334,3.312,0.293,4.875,0.048
		c-1.271,0.943-2.458,2.094-3.382,3.512c-3.956,6.063-1.672,14.563-1.672,14.563s1.495-0.235,3.518-0.932
		c0.611,2.049,1.29,3.4,1.29,3.4s1.161-0.436,2.75-1.336c0.852,1.615,1.594,2.607,1.594,2.607s7.583-4.459,9.014-11.559
		c0.333-1.658,0.292-3.311,0.047-4.873c0.944,1.271,2.095,2.458,3.511,3.383c6.063,3.953,14.563,1.67,14.563,1.67
		s-0.235-1.494-0.933-3.518c2.049-0.611,3.401-1.29,3.401-1.29S55.988,40.217,55.089,38.628z"/>
	<path fill="#166891" d="M57.65,26.461c0,0-1.224-0.89-3.146-1.829c1.017-1.881,1.493-3.317,1.493-3.317s-1.129-0.513-2.891-1
		c0.541-1.746,0.718-2.973,0.718-2.973s-1.421-0.361-3.495-0.525c0.244-2.068,0.167-3.532,0.167-3.532s-8.786-0.468-13.896,4.662
		c-0.261,0.261-0.496,0.537-0.729,0.815c-0.043-0.359-0.09-0.719-0.166-1.08c-1.49-7.085-9.113-11.479-9.113-11.479
		s-0.89,1.224-1.829,3.146c-1.882-1.017-3.318-1.493-3.318-1.493s-0.513,1.129-1,2.89c-1.746-0.541-2.973-0.718-2.973-0.718
		s-0.361,1.42-0.525,3.497c-2.068-0.245-3.532-0.168-3.532-0.168s-0.468,8.786,4.662,13.896c0.261,0.26,0.537,0.496,0.815,0.727
		c-0.359,0.043-0.719,0.09-1.079,0.166C10.73,29.637,6.336,37.26,6.336,37.26s1.224,0.891,3.146,1.828
		c-1.017,1.883-1.493,3.318-1.493,3.318s1.129,0.513,2.89,1c-0.54,1.744-0.717,2.972-0.717,2.972s1.42,0.362,3.497,0.526
		c-0.245,2.068-0.168,3.531-0.168,3.531s8.787,0.469,13.895-4.66c0.26-0.262,0.496-0.537,0.728-0.815
		c0.042,0.36,0.09,0.72,0.166,1.08c1.491,7.085,9.115,11.478,9.115,11.478s0.891-1.224,1.828-3.145
		c1.883,1.018,3.317,1.493,3.317,1.493s0.515-1.13,1-2.892c1.745,0.539,2.974,0.717,2.974,0.717s0.361-1.42,0.525-3.496
		c2.068,0.246,3.531,0.168,3.531,0.168s0.469-8.785-4.661-13.896c-0.261-0.26-0.537-0.494-0.813-0.727
		c0.358-0.043,0.719-0.09,1.078-0.166C53.258,34.084,57.65,26.461,57.65,26.461z"/>
	<circle fill="#005C87" cx="24.847" cy="39.037" r="4.568"/>
	<circle fill="#005C87" cx="38.93" cy="39.454" r="4.565"/>
	<circle fill="#005C87" cx="39.141" cy="24.685" r="4.568"/>
	<circle fill="#005C87" cx="24.818" cy="24.713" r="4.567"/>
	<path fill="#A3DBFF" d="M31.994,31.861c0,0-5.857,6.567-13.098,6.581c-7.24,0.013-13.123-6.529-13.123-6.529
		s5.858-6.566,13.099-6.581C26.112,25.317,31.994,31.861,31.994,31.861z"/>
	<path fill="#A3DBFF" d="M31.994,31.861c0,0,6.564,5.856,6.58,13.096c0.013,7.24-6.53,13.123-6.53,13.123s-6.565-5.855-6.58-13.096
		C25.45,37.743,31.994,31.861,31.994,31.861z"/>
	<path fill="#A3DBFF" d="M31.994,31.861c0,0,5.854-6.566,13.098-6.581c7.238-0.014,13.119,6.53,13.119,6.53
		s-5.854,6.565-13.095,6.583C37.877,38.404,31.994,31.861,31.994,31.861z"/>
	<path fill="#A3DBFF" d="M31.994,31.861c0,0-6.567-5.857-6.581-13.097c-0.015-7.241,6.529-13.123,6.529-13.123
		s6.565,5.856,6.582,13.096C38.537,25.979,31.994,31.861,31.994,31.861z"/>
	<circle fill="#FFFFFF" cx="18.884" cy="31.886" r="5.912"/>
	<path fill="#FFFFFF" d="M32.008,39.061c3.266-0.006,5.918,2.635,5.922,5.901c0.008,3.261-2.633,5.915-5.897,5.921
		c-3.266,0.008-5.917-2.635-5.923-5.9C26.101,41.719,28.744,39.064,32.008,39.061z"/>
	<path fill="#FFFFFF" d="M39.189,31.847c-0.004-3.264,2.638-5.917,5.903-5.922c3.265-0.006,5.917,2.635,5.921,5.9
		c0.008,3.263-2.634,5.917-5.898,5.924C41.852,37.752,39.198,35.111,39.189,31.847z"/>
	<path fill="#FFFFFF" d="M31.979,24.664c-3.264,0.005-5.916-2.636-5.921-5.901c-0.007-3.265,2.635-5.917,5.898-5.922
		c3.269-0.006,5.919,2.634,5.925,5.9C37.887,22.005,35.245,24.656,31.979,24.664z"/>
</g>
</svg>
