<?xml version="1.0" encoding="utf-8"?>
<!-- Generator: Adobe Illustrator 15.0.0, SVG Export Plug-In . SVG Version: 6.00 Build 0)  -->
<!DOCTYPE svg PUBLIC "-//W3C//DTD SVG 1.1//EN" "http://www.w3.org/Graphics/SVG/1.1/DTD/svg11.dtd">
<svg version="1.1" id="Layer_1" xmlns="http://www.w3.org/2000/svg" xmlns:xlink="http://www.w3.org/1999/xlink" x="0px" y="0px"
	 width="64px" height="64px" viewBox="0 0 64 64" enable-background="new 0 0 64 64" xml:space="preserve">
<g id="_x32__copy_2">
	<path fill="#A3DBFF" d="M57.107,39.219c1.758-0.926,2.838-1.732,2.838-1.732s-4.85-8.248-12.569-9.801
		c-1.804-0.363-3.601-0.318-5.3-0.052c1.382-1.027,2.672-2.277,3.677-3.818C50.055,17.22,47.57,7.98,47.57,7.98
		s-1.627,0.256-3.825,1.013c-0.665-2.229-1.403-3.7-1.403-3.7s-1.262,0.474-2.988,1.453c-0.928-1.757-1.734-2.837-1.734-2.837
		s-8.247,4.852-9.8,12.57c-0.363,1.804-0.318,3.6-0.052,5.301c-1.026-1.382-2.277-2.672-3.818-3.678
		c-6.596-4.301-15.835-1.818-15.835-1.818s0.256,1.625,1.013,3.825c-2.229,0.666-3.7,1.403-3.7,1.403s0.474,1.263,1.454,2.991
		c-1.758,0.926-2.839,1.734-2.839,1.734s4.854,8.248,12.571,9.801c1.804,0.362,3.602,0.317,5.303,0.052
		c-1.382,1.025-2.673,2.277-3.679,3.818c-4.302,6.595-1.819,15.836-1.819,15.836s1.625-0.258,3.825-1.014
		c0.665,2.229,1.403,3.699,1.403,3.699s1.263-0.475,2.991-1.453c0.926,1.756,1.733,2.836,1.733,2.836s8.248-4.85,9.802-12.568
		c0.362-1.805,0.316-3.6,0.051-5.301c1.026,1.383,2.277,2.674,3.818,3.679c6.594,4.301,15.836,1.815,15.836,1.815
		s-0.257-1.625-1.014-3.824c2.229-0.666,3.699-1.402,3.699-1.402S58.088,40.947,57.107,39.219z"/>
	<path fill="#166891" d="M59.896,25.989c0,0-1.332-0.968-3.422-1.988c1.105-2.046,1.623-3.608,1.623-3.608s-1.228-0.558-3.143-1.087
		c0.588-1.898,0.779-3.233,0.779-3.233s-1.543-0.393-3.801-0.571c0.267-2.25,0.183-3.841,0.183-3.841s-9.556-0.509-15.112,5.069
		c-0.281,0.284-0.539,0.584-0.791,0.887c-0.047-0.391-0.1-0.782-0.181-1.174c-1.621-7.705-9.91-12.483-9.91-12.483
		s-0.968,1.331-1.989,3.421c-2.046-1.106-3.608-1.624-3.608-1.624S19.967,6.985,19.438,8.9c-1.898-0.588-3.233-0.781-3.233-0.781
		s-0.393,1.544-0.571,3.803c-2.25-0.267-3.841-0.183-3.841-0.183s-0.508,9.555,5.069,15.111c0.284,0.283,0.584,0.539,0.886,0.791
		c-0.391,0.047-0.782,0.098-1.173,0.181C8.87,29.443,4.092,37.732,4.092,37.732s1.331,0.969,3.421,1.988
		c-1.106,2.047-1.624,3.608-1.624,3.608s1.228,0.558,3.143,1.088c-0.587,1.896-0.78,3.231-0.78,3.231s1.544,0.394,3.803,0.572
		c-0.267,2.248-0.183,3.84-0.183,3.84s9.555,0.51,15.111-5.067c0.283-0.284,0.539-0.584,0.791-0.888
		c0.047,0.392,0.098,0.783,0.181,1.174c1.622,7.705,9.912,12.482,9.912,12.482s0.968-1.33,1.986-3.421
		c2.047,1.104,3.608,1.624,3.608,1.624s0.558-1.229,1.088-3.145c1.897,0.588,3.231,0.781,3.231,0.781s0.394-1.545,0.572-3.803
		c2.248,0.268,3.84,0.184,3.84,0.184s0.511-9.557-5.067-15.113c-0.283-0.282-0.584-0.538-0.886-0.79
		c0.391-0.048,0.781-0.099,1.173-0.181C55.118,34.277,59.896,25.989,59.896,25.989z"/>
	<circle fill="#005C87" cx="24.221" cy="39.665" r="4.968"/>
	<circle fill="#005C87" cx="39.537" cy="40.118" r="4.965"/>
	<circle fill="#005C87" cx="39.768" cy="24.057" r="4.968"/>
	<circle fill="#005C87" cx="24.19" cy="24.088" r="4.966"/>
	<path fill="#A3DBFF" d="M31.994,31.861c0,0-6.37,7.141-14.243,7.157C9.878,39.031,3.48,31.917,3.48,31.917s6.37-7.141,14.245-7.156
		C25.598,24.745,31.994,31.861,31.994,31.861z"/>
	<path fill="#A3DBFF" d="M31.994,31.861c0,0,6.367-7.141,14.242-7.157c7.873-0.015,14.269,7.101,14.269,7.101
		s-6.366,7.14-14.241,7.157C38.393,38.977,31.994,31.861,31.994,31.861z"/>
	<path fill="#A3DBFF" d="M31.994,31.861c0,0-7.141-6.369-7.156-14.243c-0.016-7.874,7.1-14.271,7.1-14.271s7.141,6.369,7.158,14.242
		C39.109,25.464,31.994,31.861,31.994,31.861z"/>
	<path fill="#A3DBFF" d="M31.994,31.861c0,0,7.139,6.37,7.154,14.241c0.016,7.875-7.101,14.271-7.101,14.271
		s-7.14-6.367-7.155-14.241C24.877,38.258,31.994,31.861,31.994,31.861z"/>
	<circle fill="#FFFFFF" cx="17.738" cy="31.889" r="6.429"/>
	<path fill="#FFFFFF" d="M32.009,39.689c3.552-0.006,6.437,2.865,6.44,6.418c0.007,3.547-2.863,6.433-6.415,6.438
		c-3.551,0.007-6.435-2.864-6.441-6.418C25.586,42.58,28.46,39.695,32.009,39.689z"/>
	<circle fill="#FFFFFF" cx="46.25" cy="31.833" r="6.429"/>
	<path fill="#FFFFFF" d="M31.978,24.034c-3.55,0.006-6.433-2.866-6.439-6.418c-0.008-3.55,2.865-6.435,6.414-6.44
		c3.553-0.007,6.438,2.864,6.441,6.417C38.4,21.143,35.529,24.025,31.978,24.034z"/>
</g>
</svg>
