<?xml version="1.0" encoding="utf-8"?>
<!-- Generator: Adobe Illustrator 15.0.0, SVG Export Plug-In . SVG Version: 6.00 Build 0)  -->
<!DOCTYPE svg PUBLIC "-//W3C//DTD SVG 1.1//EN" "http://www.w3.org/Graphics/SVG/1.1/DTD/svg11.dtd">
<svg version="1.1" id="Layer_1" xmlns="http://www.w3.org/2000/svg" xmlns:xlink="http://www.w3.org/1999/xlink" x="0px" y="0px"
	 width="64px" height="64px" viewBox="0 0 64 64" enable-background="new 0 0 64 64" xml:space="preserve">
<g id="_x31__copy">
	<path fill="#A3DBFF" d="M59.443,39.902c1.922-1.012,3.102-1.895,3.102-1.895s-5.301-9.014-13.738-10.713
		c-1.965-0.396-3.923-0.348-5.775-0.059c1.505-1.12,2.908-2.491,4.003-4.17c4.7-7.208,1.985-17.308,1.985-17.308
		s-1.772,0.273-4.183,1.103c-0.728-2.434-1.532-4.04-1.532-4.04S41.926,3.34,40.037,4.41c-1.014-1.92-1.896-3.101-1.896-3.101
		s-9.014,5.303-10.711,13.739c-0.396,1.966-0.348,3.923-0.059,5.777c-1.12-1.505-2.491-2.908-4.17-4.003
		c-7.209-4.701-17.309-1.987-17.309-1.987s0.274,1.772,1.104,4.182C4.56,19.744,2.954,20.55,2.954,20.55s0.518,1.38,1.589,3.269
		c-1.921,1.013-3.103,1.895-3.103,1.895s5.305,9.015,13.74,10.712c1.966,0.396,3.925,0.348,5.779,0.059
		c-1.505,1.121-2.909,2.492-4.004,4.172c-4.701,7.209-1.987,17.309-1.987,17.309s1.772-0.273,4.182-1.104
		c0.727,2.435,1.532,4.039,1.532,4.039s1.38-0.518,3.27-1.588c1.013,1.92,1.895,3.101,1.895,3.101s9.014-5.302,10.713-13.738
		c0.396-1.966,0.348-3.924,0.059-5.776c1.119,1.506,2.49,2.908,4.171,4.004c7.207,4.701,17.31,1.984,17.31,1.984
		s-0.273-1.771-1.104-4.181c2.434-0.728,4.039-1.532,4.039-1.532S60.516,41.793,59.443,39.902z"/>
	<path fill="#166891" d="M62.49,25.443c0,0-1.453-1.057-3.735-2.171c1.212-2.241,1.771-3.945,1.771-3.945s-1.342-0.61-3.436-1.189
		c0.643-2.074,0.854-3.534,0.854-3.534s-1.678-0.435-4.149-0.629c0.292-2.463,0.192-4.193,0.192-4.193s-10.441-0.557-16.516,5.54
		c-0.308,0.308-0.594,0.63-0.867,0.958c-0.051-0.423-0.104-0.848-0.194-1.272C34.637,6.587,25.576,1.365,25.576,1.365
		S24.519,2.817,23.404,5.1c-2.241-1.212-3.945-1.771-3.945-1.771s-0.61,1.342-1.188,3.435c-2.075-0.642-3.534-0.853-3.534-0.853
		s-0.435,1.678-0.629,4.151c-2.463-0.293-4.194-0.194-4.194-0.194s-0.555,10.443,5.541,16.517c0.308,0.307,0.63,0.592,0.958,0.866
		c-0.423,0.051-0.847,0.106-1.272,0.196C6.72,29.218,1.497,38.279,1.497,38.279s1.453,1.058,3.735,2.172
		c-1.212,2.242-1.771,3.945-1.771,3.945s1.342,0.609,3.435,1.188c-0.642,2.074-0.853,3.532-0.853,3.532s1.678,0.436,4.15,0.63
		C9.901,52.211,10,53.941,10,53.941s10.444,0.556,16.516-5.539c0.307-0.309,0.593-0.631,0.867-0.959
		c0.051,0.424,0.106,0.848,0.196,1.271c1.772,8.423,10.834,13.644,10.834,13.644s1.058-1.453,2.171-3.733
		c2.241,1.212,3.945,1.771,3.945,1.771s0.609-1.342,1.188-3.437c2.074,0.642,3.532,0.853,3.532,0.853s0.437-1.678,0.63-4.148
		c2.463,0.292,4.193,0.193,4.193,0.193s0.558-10.443-5.539-16.52c-0.309-0.307-0.631-0.592-0.959-0.865
		c0.424-0.052,0.848-0.105,1.271-0.195C57.27,34.504,62.49,25.443,62.49,25.443z"/>
	<path fill="#005C87" d="M27.33,36.543c2.123,2.117,2.13,5.557,0.014,7.682c-2.115,2.121-5.553,2.127-7.677,0.014
		c-2.124-2.116-2.131-5.555-0.016-7.678C21.768,34.438,25.206,34.43,27.33,36.543z"/>
	<circle fill="#005C87" cx="40.238" cy="40.886" r="5.427"/>
	<circle fill="#005C87" cx="40.49" cy="23.332" r="5.429"/>
	<circle fill="#005C87" cx="23.464" cy="23.365" r="5.428"/>
	<path fill="#A3DBFF" d="M31.994,31.861c0,0-6.962,7.805-15.568,7.823c-8.605,0.014-15.598-7.762-15.598-7.762
		s6.963-7.805,15.57-7.822C25.003,24.083,31.994,31.861,31.994,31.861z"/>
	<path fill="#A3DBFF" d="M31.994,31.861c0,0,7.803,6.961,7.82,15.565c0.017,8.605-7.761,15.6-7.761,15.6s-7.804-6.961-7.82-15.565
		C24.216,38.854,31.994,31.861,31.994,31.861z"/>
	<path fill="#A3DBFF" d="M31.994,31.861c0,0,6.959-7.804,15.568-7.822c8.604-0.017,15.594,7.761,15.594,7.761
		s-6.958,7.804-15.564,7.823C38.986,39.639,31.994,31.861,31.994,31.861z"/>
	<path fill="#A3DBFF" d="M31.994,31.861c0,0-7.805-6.961-7.822-15.567c-0.018-8.606,7.76-15.598,7.76-15.598
		s7.804,6.961,7.823,15.566C39.771,24.869,31.994,31.861,31.994,31.861z"/>
	<circle fill="#FFFFFF" cx="16.412" cy="31.891" r="7.027"/>
	<path fill="#FFFFFF" d="M32.011,40.418c3.879-0.007,7.033,3.132,7.039,7.016c0.007,3.877-3.13,7.029-7.011,7.037
		c-3.882,0.008-7.034-3.132-7.041-7.015C24.99,43.577,28.131,40.424,32.011,40.418z"/>
	<path fill="#FFFFFF" d="M40.548,31.844c-0.005-3.879,3.134-7.032,7.017-7.039c3.879-0.008,7.033,3.133,7.039,7.014
		c0.008,3.878-3.131,7.033-7.014,7.041C43.71,38.863,40.557,35.727,40.548,31.844z"/>
	<circle fill="#FFFFFF" cx="31.962" cy="16.28" r="7.027"/>
</g>
</svg>
