<?xml version="1.0" encoding="utf-8"?>
<!-- Generator: Adobe Illustrator 15.0.0, SVG Export Plug-In . SVG Version: 6.00 Build 0)  -->
<!DOCTYPE svg PUBLIC "-//W3C//DTD SVG 1.1//EN" "http://www.w3.org/Graphics/SVG/1.1/DTD/svg11.dtd">
<svg version="1.1" id="_x34__copy" xmlns="http://www.w3.org/2000/svg" xmlns:xlink="http://www.w3.org/1999/xlink" x="0px" y="0px"
	 width="64px" height="64px" viewBox="0 0 64 64" enable-background="new 0 0 64 64" xml:space="preserve">
<path fill="#A3DBFF" d="M54.208,38.369c1.554-0.819,2.509-1.533,2.509-1.533s-4.29-7.295-11.117-8.669
	c-1.595-0.321-3.184-0.282-4.688-0.046c1.223-0.908,2.364-2.014,3.253-3.377c3.804-5.833,1.607-14.006,1.607-14.006
	s-1.438,0.227-3.384,0.896c-0.589-1.971-1.241-3.272-1.241-3.272s-1.116,0.419-2.645,1.285c-0.819-1.554-1.533-2.509-1.533-2.509
	s-7.295,4.291-8.668,11.118c-0.321,1.595-0.282,3.185-0.046,4.688c-0.908-1.222-2.014-2.364-3.377-3.253
	c-5.833-3.805-14.006-1.608-14.006-1.608s0.227,1.438,0.896,3.383c-1.972,0.588-3.272,1.241-3.272,1.241s0.419,1.117,1.286,2.645
	c-1.555,0.819-2.511,1.534-2.511,1.534s4.292,7.295,11.119,8.669c1.596,0.321,3.185,0.281,4.69,0.046
	c-1.223,0.907-2.365,2.014-3.254,3.377c-3.805,5.833-1.608,14.007-1.608,14.007s1.438-0.227,3.383-0.896
	c0.588,1.972,1.241,3.272,1.241,3.272s1.117-0.419,2.646-1.285c0.819,1.554,1.533,2.509,1.533,2.509s7.295-4.29,8.67-11.117
	c0.32-1.595,0.28-3.184,0.045-4.688c0.908,1.223,2.014,2.365,3.377,3.254c5.832,3.803,14.007,1.606,14.007,1.606
	s-0.227-1.438-0.896-3.383c1.972-0.589,3.272-1.241,3.272-1.241S55.074,39.897,54.208,38.369z"/>
<path fill="#166891" d="M56.673,26.667c0,0-1.177-0.856-3.026-1.759c0.978-1.81,1.436-3.191,1.436-3.191s-1.086-0.494-2.78-0.962
	c0.52-1.679,0.69-2.86,0.69-2.86s-1.365-0.348-3.362-0.505c0.235-1.989,0.161-3.397,0.161-3.397s-8.451-0.45-13.366,4.484
	c-0.25,0.251-0.477,0.517-0.699,0.784c-0.042-0.346-0.087-0.691-0.16-1.038C34.132,11.409,26.8,7.182,26.8,7.182
	s-0.856,1.177-1.759,3.026c-1.81-0.978-3.191-1.436-3.191-1.436s-0.494,1.086-0.962,2.78c-1.679-0.52-2.86-0.69-2.86-0.69
	s-0.348,1.366-0.505,3.364c-1.989-0.236-3.397-0.162-3.397-0.162s-0.45,8.451,4.484,13.366c0.251,0.25,0.516,0.477,0.784,0.699
	c-0.346,0.041-0.691,0.087-1.038,0.16c-6.814,1.434-11.041,8.767-11.041,8.767s1.177,0.856,3.026,1.759
	c-0.978,1.81-1.436,3.191-1.436,3.191s1.086,0.493,2.779,0.962c-0.52,1.678-0.69,2.858-0.69,2.858s1.366,0.349,3.364,0.506
	c-0.236,1.99-0.162,3.397-0.162,3.397s8.452,0.45,13.365-4.482c0.25-0.251,0.477-0.517,0.7-0.784
	c0.041,0.346,0.087,0.691,0.16,1.038c1.435,6.814,8.767,11.04,8.767,11.04s0.856-1.177,1.759-3.025
	c1.81,0.978,3.19,1.437,3.19,1.437s0.494-1.087,0.962-2.781c1.679,0.52,2.859,0.69,2.859,0.69s0.349-1.365,0.506-3.362
	c1.989,0.235,3.396,0.161,3.396,0.161s0.451-8.451-4.483-13.367c-0.251-0.25-0.516-0.476-0.783-0.698
	c0.346-0.041,0.691-0.087,1.038-0.16C52.446,33.999,56.673,26.667,56.673,26.667z"/>
<circle fill="#005C87" cx="25.119" cy="38.763" r="4.394"/>
<circle fill="#005C87" cx="38.666" cy="39.164" r="4.392"/>
<circle fill="#005C87" cx="38.869" cy="24.959" r="4.394"/>
<circle fill="#005C87" cx="25.091" cy="24.986" r="4.393"/>
<path fill="#A3DBFF" d="M31.994,31.861c0,0-5.634,6.316-12.598,6.329c-6.964,0.012-12.623-6.28-12.623-6.28s5.634-6.316,12.599-6.33
	C26.336,25.567,31.994,31.861,31.994,31.861z"/>
<circle fill="#FFFFFF" cx="19.384" cy="31.885" r="5.686"/>
<path fill="#A3DBFF" d="M31.994,31.861c0,0,6.314,5.633,6.329,12.596c0.012,6.965-6.281,12.623-6.281,12.623
	s-6.315-5.632-6.329-12.597C25.699,37.519,31.994,31.861,31.994,31.861z"/>
<path fill="#FFFFFF" d="M32.007,38.785c3.141-0.005,5.692,2.535,5.696,5.677c0.007,3.137-2.532,5.689-5.674,5.695
	c-3.141,0.007-5.691-2.534-5.697-5.676C26.326,41.342,28.868,38.791,32.007,38.785z"/>
<path fill="#A3DBFF" d="M31.994,31.861c0,0,5.631-6.316,12.598-6.33c6.963-0.014,12.619,6.281,12.619,6.281
	s-5.63,6.315-12.596,6.331C37.652,38.154,31.994,31.861,31.994,31.861z"/>
<path fill="#FFFFFF" d="M38.916,31.847c-0.004-3.14,2.536-5.691,5.678-5.696c3.14-0.006,5.691,2.535,5.695,5.675
	c0.007,3.139-2.533,5.69-5.675,5.698C41.475,37.527,38.924,34.988,38.916,31.847z"/>
<path fill="#A3DBFF" d="M31.994,31.861c0,0-6.316-5.634-6.33-12.598c-0.015-6.964,6.28-12.622,6.28-12.622s6.315,5.633,6.331,12.597
	C38.287,26.203,31.994,31.861,31.994,31.861z"/>
<path fill="#FFFFFF" d="M31.979,24.938c-3.14,0.005-5.69-2.535-5.696-5.676c-0.007-3.141,2.534-5.691,5.672-5.696
	c3.144-0.006,5.693,2.533,5.699,5.675C37.661,22.381,35.121,24.931,31.979,24.938z"/>
</svg>
