<?xml version="1.0" encoding="UTF-8" standalone="no"?>
<!DOCTYPE svg PUBLIC "-//W3C//DTD SVG 1.1 Tiny//EN" "http://www.w3.org/Graphics/SVG/1.1/DTD/svg11-tiny.dtd">
<svg xmlns="http://www.w3.org/2000/svg" xmlns:xlink="http://www.w3.org/1999/xlink" baseProfile="tiny" height="64" version="1.1" viewBox="0 0 64 64" width="64">
<g>
<g>
<path d="M57.069,20.779c0-2.939-2.902-4.029-2.902-4.029s-20.945-3.387-23.973-4.389    c-2.389-0.791-3.471-6.251-3.471-6.251c0-0.005-17.516-2.709-17.516-2.709l0.057,7.375L5.022,9.943L5.014,42.216    c0,0,42.586,18.396,44.594,19.195c1.012,0.449,1.684,0.502,2.432,0.352C53.944,61.376,57.069,59.897,57.069,20.779z" fill="#333331"/>
<linearGradient gradientUnits="userSpaceOnUse" id="XMLID_13_" x1="51.8486" x2="9.0291" y1="37.7686" y2="8.3381">
<stop offset="0" style="stop-color:#E6E6DF"/>
<stop offset="0.0056" style="stop-color:#CCCCC6"/>
<stop offset="1" style="stop-color:#333331"/>
</linearGradient>
<path d="M10.958,12.479l0.01-6.961L25.305,7.86c0,0,1.264,5.544,4.047,6.168    c3.256,0.73,24.04,4.565,24.04,4.565s1.709,0.719,1.678,2.142c0,0-0.172,37.598-4.297,36.598L8.317,16.022L10.958,12.479z" fill="url(#XMLID_13_)"/>
<linearGradient gradientUnits="userSpaceOnUse" id="XMLID_14_" x1="46.7842" x2="42.0205" y1="18.8486" y2="39.7642">
<stop offset="0" style="stop-color:#CCCCC6"/>
<stop offset="0.0056" style="stop-color:#CCCCC6"/>
<stop offset="1" style="stop-color:#333331"/>
</linearGradient>
<path d="M55.069,20.735c0,0-4.754,20.186-26.254,20.186c-10.613,0,21.833,18.75,21.833,18.75    S55.31,65.454,55.069,20.735z" fill="url(#XMLID_14_)"/>
<path d="M50.647,21.048c0,0,0-1.751-2.172-2.309l0,0L6.897,10.485l1,29.561c0,0,0.188,0.188,1.188,1.188    c0.891,0.893,34.407,15.471,41.563,18.438c0.627,0.209,0.828-0.311,0.828-0.311s-0.92-1.262-0.828-3.189    C50.704,54.974,50.647,21.048,50.647,21.048z" fill="#333331"/>
<linearGradient gradientUnits="userSpaceOnUse" id="XMLID_15_" x1="28.772" x2="28.772" y1="12.7754" y2="31.832">
<stop offset="0" style="stop-color:#FFFFFF"/>
<stop offset="0.0056" style="stop-color:#FFFFFF"/>
<stop offset="1" style="stop-color:#06EB00"/>
</linearGradient>
<path d="M49.647,21.796c0,0,0.002-1.747-2.172-2.057l0,0L6.897,11.671v29.375l43.75,18.625    c0,0-1-1.125-1-2.5C49.647,55.974,49.647,28.771,49.647,21.796z" fill="url(#XMLID_15_)"/>
<g>
<path d="M33.081,28.052l-1.774-0.558l-0.035-2.49c-0.051-3.655-1.945-6.569-4.811-7.451     c-2.811-0.863-4.686,0.98-4.684,4.616l0.004,2.333l-1.838-0.579c-2.703-0.851-4.467,1.086-4.496,4.962     c-0.027,3.854,1.809,7.073,4.58,7.974l1.768,0.578l0.004,2.574c0.002,3.893,1.877,6.953,4.896,7.959     c2.943,0.977,4.891-1.012,4.834-4.918l-0.035-2.465l1.915,0.621c2.867,0.93,4.6-1.051,4.506-5.143     C37.821,32.139,35.876,28.93,33.081,28.052z M33.319,35.972l-3.809-1.221l-1.908-0.609l0.025,2.586l0.045,5.063     c0.004,0.742-0.039,1.184-1.02,0.859c-1.025-0.336-1.027-0.645-1.031-1.385l-0.031-5.195l-0.018-2.578l-1.896-0.61l-3.643-1.169     c-0.529-0.171-0.854-0.339-0.85-1.633c0.004-1.358,0.254-1.277,0.752-1.119l3.73,1.19l1.889,0.6l-0.016-2.547l-0.031-4.867     c-0.004-0.702,0.043-1.121,0.99-0.823c0.998,0.311,1,0.645,1.01,1.315l0.047,5.013l0.021,2.55l1.904,0.606l3.686,1.174     c0.539,0.174,0.871,0.346,0.896,1.662C34.085,36.22,33.862,36.149,33.319,35.972z" fill="#FFFFFF"/>
<path d="M33.124,30.603l-3.676-1.163l-0.059-5.025c-0.029-2.272-1.041-3.812-2.908-4.39     c-1.813-0.56-2.848,0.438-2.84,2.727l0.018,4.858l-3.715-1.178c-1.691-0.533-2.619,0.519-2.631,3.05     c-0.012,2.476,0.984,4.236,2.719,4.797l3.654,1.178l0.018,5.18c0.012,2.416,1.045,4.029,2.971,4.664     c1.885,0.621,2.953-0.439,2.926-2.881l-0.063-5.072l3.825,1.234c1.775,0.574,2.676-0.525,2.621-3.135     C35.929,32.925,34.882,31.16,33.124,30.603z" fill="#333331"/>
</g>
<linearGradient gradientUnits="userSpaceOnUse" id="XMLID_16_" x1="28.772" x2="28.772" y1="18.2969" y2="55.4629">
<stop offset="0" style="stop-color:#FFFFFF"/>
<stop offset="0.0056" style="stop-color:#FFFFFF"/>
<stop offset="1" style="stop-color:#06EB00"/>
</linearGradient>
<path d="M6.897,11.671c0,0,28.413,20.775,29.77,42.049l13.98,5.951c0,0-1-1.313-1-2.5    V21.796c0,0,0.004-1.785-2.172-2.057L6.897,11.671z" fill="url(#XMLID_16_)" fill-opacity="0.5" stroke-opacity="0.5"/>
</g>
</g>
<g display="none">
<g display="inline">
<g>
<path d="M63.984,17.229c0-0.004,0-0.006-0.002-0.011c0.018-0.182-0.016-0.356-0.082-0.517     c-0.348-1.688-1.973-2.654-2.947-2.963c-0.057-0.018-0.113-0.031-0.174-0.04C49.861,12.103,32.638,9.48,30.697,8.414     c-2.066-1.137-2.376-5.203-2.376-5.203L7.285,0.344l0.007,8.12L2.079,7.427c-0.321-0.063-0.653,0.02-0.906,0.227     C0.92,7.861,0.774,8.17,0.774,8.497V43.07c0,0,2.646,1.824,34.431,14.545c0.004,0,0.23,0.09,0.23,0.09     c8.531,3.414,15.039,6.182,15.104,6.209c0.148,0.063,0.311,0.092,0.473,0.086c0.215-0.01,1.326-0.098,1.898-0.93     c-0.027,0.041-0.057,0.078-0.09,0.113c1.693-1.871,3.004-4.76,4.246-9.355c1.391-5.02,2.85-11.879,4.34-20.387     c0.795-4.437,1.455-8.471,1.865-11.075l0.527-3.386l0.139-0.924c0.01-0.073,0.008-0.146,0.025-0.217     c0.012-0.051,0.023-0.102,0.027-0.153C64.01,17.49,63.994,17.333,63.984,17.229z M3.94,42.326c0.009,0.01,0.018,0.02,0.043,0.045     C3.984,42.371,3.961,42.35,3.94,42.326z M59.256,33.061c-1.477,8.443-2.92,15.234-4.293,20.188     c-1.473,5.455-2.783,7.393-3.76,8.473c-0.01,0.012-0.021,0.025-0.031,0.039c-0.018,0.006-0.041,0.016-0.068,0.023     c-1.342-0.568-7.307-3.082-14.863-6.105c-0.002,0-0.229-0.09-0.229-0.09C8.958,44.762,4.532,42.693,3.929,42.316     c-0.161-0.16-0.644-0.645-0.973-0.973V9.826l5.214,1.037c0.32,0.063,0.653-0.02,0.905-0.227c0.252-0.207,0.398-0.517,0.398-0.843     V4.802l16.222,2.407c0.359,0.73,1.197,1.746,3.133,2.811c2.893,1.59,28.169,5.331,31.524,5.822     c0.273,0.106,1.375,0.585,1.445,1.405c0,0.002,0.002,0.004,0.002,0.007c0,0.008-0.002,0.016-0.002,0.024     c0.004,0.071,0.01,0.131,0.014,0.18c0.002,0.02,0.004,0.023,0.004,0.025C61.783,17.707,60.754,24.72,59.256,33.061z" fill="#333331"/>
<linearGradient gradientUnits="userSpaceOnUse" id="XMLID_17_" x1="50.2109" x2="4.175" y1="36.0391" y2="12.6227">
<stop offset="0" style="stop-color:#CCCCC6"/>
<stop offset="0.0056" style="stop-color:#CCCCC6"/>
<stop offset="1" style="stop-color:#333331"/>
</linearGradient>
<path d="M9.291,10.679V2.565l17.452,2.556c0,0,0,3.357,2.728,4.856c2.727,1.5,30.084,5.499,30.084,5.499     s2.52,0.458,2.307,2.41c0,0-6.623,44.994-11.121,43.902L9.836,15.294L9.291,10.679z" fill="url(#XMLID_17_)"/>
<linearGradient gradientUnits="userSpaceOnUse" id="XMLID_18_" x1="48.4023" x2="37.4506" y1="14.7793" y2="58.4489">
<stop offset="0" style="stop-color:#333333"/>
<stop offset="1" style="stop-color:#FFFFFF"/>
</linearGradient>
<path d="M61.861,17.885c0,0-11.486,23.451-34.937,23.451c-11.575,0,23.815,20.451,23.815,20.451     S56.123,64.869,61.861,17.885z" fill="url(#XMLID_18_)"/>
<path d="M51.057,20.063c0,0-0.432-2.199-2.686-2.921c-0.004,0-0.004,0-0.004,0L4.11,8.341v32.04     c0,0,0.204,0.205,1.295,1.297C6.358,42.631,42.07,58.289,50.82,61.869c0.779,0.355,1.518-0.785,1.518-0.785     s-1.314-1.613-1.314-3.113C51.023,56.664,51.057,27.67,51.057,20.063z" fill="#333331"/>
<linearGradient gradientUnits="userSpaceOnUse" id="XMLID_19_" x1="26.7651" x2="26.7651" y1="9.4316" y2="42.5933">
<stop offset="0" style="stop-color:#FFFFFF"/>
<stop offset="0.0056" style="stop-color:#FFFFFF"/>
<stop offset="1" style="stop-color:#06EB00"/>
</linearGradient>
<path d="M49.648,20.476c0,0-0.115-1.521-2.369-2.243c-0.002,0-0.002,0-0.002,0L2.791,9.432l0.034,32.82     L50.74,61.787c0,0-1.092-1.227-1.092-2.727C49.648,57.754,49.648,28.083,49.648,20.476z" fill="url(#XMLID_19_)"/>
<linearGradient gradientUnits="userSpaceOnUse" id="XMLID_20_" x1="26.7651" x2="26.7651" y1="16.6592" y2="57.1984">
<stop offset="0" style="stop-color:#FFFFFF"/>
<stop offset="0.0056" style="stop-color:#FFFFFF"/>
<stop offset="1" style="stop-color:#06EB00"/>
</linearGradient>
<path d="M2.791,9.432c0,0,30.573,22.672,32.055,45.875l15.895,6.48     c0,0-1.182-1.342-1.092-2.727V20.476c0,0-0.137-1.704-2.775-2.324L2.791,9.432z" fill="url(#XMLID_20_)" fill-opacity="0.5" stroke-opacity="0.5"/>
</g>
<g>
<path d="M36.969,33.164h-6.227v-6.446c0-4.838-3.097-7.727-8.285-7.727c-5.11,0-8.284,3.045-8.284,7.948v6.225     H7.726C2.888,33.164,0,36.262,0,41.449c0,5.111,3.047,8.287,7.95,8.287h6.224v6.455c0,4.908,3.02,7.723,8.284,7.723     c5.11,0,8.285-3.047,8.285-7.949v-6.229h6.455c4.908,0,7.723-3.021,7.723-8.287C44.92,36.338,41.873,33.164,36.969,33.164z      M37.197,46.006h-8.321h-0.774h-1.091v1.092v0.771v8.096c0,2.801-1.532,4.219-4.554,4.219c-3.192,0-4.555-1.195-4.555-3.992     v-8.322v-0.771v-1.092h-1.091h-0.774H7.95c-2.799,0-4.219-1.533-4.219-4.557c0-3.15,1.232-4.555,3.996-4.555h8.312h0.774h1.091     v-1.092v-0.775v-8.088c0-2.799,1.533-4.218,4.555-4.218c3.15,0,4.554,1.232,4.554,3.997v8.309v0.775v1.092h1.091h0.774h8.093     c2.799,0,4.221,1.531,4.221,4.555C41.189,44.643,39.994,46.006,37.197,46.006z" fill="#FFFFFF"/>
<g>
<defs>
<path d="M36.969,35.027h-8.093v-8.309c0-3.796-2.236-5.862-6.418-5.862c-4.078,0-6.42,2.234-6.42,6.083v8.088       H7.726c-3.801,0-5.861,2.236-5.861,6.422c0,4.076,2.231,6.42,6.084,6.42h8.088v8.322c0,3.848,2.233,5.855,6.42,5.855       c4.078,0,6.418-2.23,6.418-6.082v-8.096h8.321c3.85,0,5.855-2.232,5.855-6.42C43.053,37.373,40.822,35.027,36.969,35.027z"/>
</defs>
<g>
<path d="M36.969,35.027h-8.093v-8.309c0-3.796-2.236-5.862-6.418-5.862c-4.078,0-6.42,2.234-6.42,6.083v8.088       H7.726c-3.801,0-5.861,2.236-5.861,6.422c0,4.076,2.231,6.42,6.084,6.42h8.088v8.322c0,3.848,2.233,5.855,6.42,5.855       c4.078,0,6.418-2.23,6.418-6.082v-8.096h8.321c3.85,0,5.855-2.232,5.855-6.42C43.053,37.373,40.822,35.027,36.969,35.027z" fill="#333333"/>
<path d="M28.876,35.027v-8.309c0-3.796-2.236-5.862-6.418-5.862c-4.078,0-6.42,2.234-6.42,6.083       v8.088H7.726c-3.801,0-5.861,2.236-5.861,6.422c0,2.012,0.549,3.6,1.564,4.693c10.677-4.451,24.834-2.816,37.741-9.672       c-1.027-0.928-2.434-1.443-4.201-1.443H28.876z" fill="#FFFFFF" fill-opacity="0.5" stroke-opacity="0.5"/>
<linearGradient gradientUnits="userSpaceOnUse" id="XMLID_22_" x1="7.8701" x2="26.0041" y1="26.7881" y2="44.9221">
<stop offset="0" style="stop-color:#333333"/>
<stop offset="1" style="stop-color:#FFFFFF"/>
</linearGradient>
<path d="M28.876,35.027v-8.309c0-3.796-2.236-5.862-6.418-5.862       c-4.078,0-6.42,2.234-6.42,6.083v8.088H7.726c-3.801,0-5.861,2.236-5.861,6.422c0,2.012,0.549,3.6,1.564,4.693       c10.677-4.451,24.834-2.816,37.741-9.672c-1.027-0.928-2.434-1.443-4.201-1.443H28.876z" fill="url(#XMLID_22_)" fill-opacity="0.5" stroke-opacity="0.5"/>
<linearGradient gradientUnits="userSpaceOnUse" id="XMLID_23_" x1="16.0298" x2="29.0504" y1="35.0371" y2="48.057">
<stop offset="0" style="stop-color:#333333"/>
<stop offset="1" style="stop-color:#FFFFFF"/>
</linearGradient>
<path d="M36.969,35.027h-8.093v-8.309c0-3.796-2.236-5.862-6.418-5.862       c-4.078,0-6.42,2.234-6.42,6.083v8.088H7.726c-3.801,0-5.861,2.236-5.861,6.422c0,4.076,2.231,6.42,6.084,6.42h8.088v8.322       c0,3.848,2.233,5.855,6.42,5.855c4.078,0,6.418-2.23,6.418-6.082v-8.096h8.321c3.85,0,5.855-2.232,5.855-6.42       C43.053,37.373,40.822,35.027,36.969,35.027z" fill="url(#XMLID_23_)" fill-opacity="0.5" stroke-opacity="0.5"/>
<path d="M36.969,33.938h-7.002v-7.219c0-4.418-2.737-6.953-7.509-6.953c-4.703,0-7.511,2.682-7.511,7.174v6.998       H7.726c-4.417,0-6.952,2.738-6.952,7.512c0,4.703,2.682,7.512,7.175,7.512h6.997v7.23c0,4.416,2.738,6.947,7.511,6.947       c4.702,0,7.509-2.68,7.509-7.174v-7.004h7.231c4.416,0,6.947-2.738,6.947-7.512C44.145,36.746,41.461,33.938,36.969,33.938z        M37.197,46.779h-8.321h-1.09v1.09v8.096c0,4.127-2.897,4.992-5.328,4.992c-3.586,0-5.329-1.557-5.329-4.766v-8.322v-1.09       h-1.091H7.95c-4.127,0-4.994-2.9-4.994-5.33c0-3.586,1.561-5.33,4.77-5.33h8.312h1.091v-1.092v-8.088       c0-4.126,2.898-4.992,5.329-4.992c3.585,0,5.328,1.561,5.328,4.771v8.309v1.092h1.09h8.093c1.607,0,2.85,0.451,3.695,1.342       c0.861,0.908,1.299,2.25,1.299,3.988C41.963,45.037,40.404,46.779,37.197,46.779z" fill="#333333"/>
</g>
</g>
</g>
</g>
</g>
</svg>
