<?xml version="1.0" encoding="utf-8"?>
<!-- Generator: Adobe Illustrator 12.0.1, SVG Export Plug-In  -->
<!DOCTYPE svg PUBLIC "-//W3C//DTD SVG 1.1 Basic//EN" "http://www.w3.org/Graphics/SVG/1.1/DTD/svg11-basic.dtd" [
	<!ENTITY ns_flows "http://ns.adobe.com/Flows/1.0/">
	<!ENTITY ns_svg "http://www.w3.org/2000/svg">
	<!ENTITY ns_xlink "http://www.w3.org/1999/xlink">
]>
<svg  version="1.1" baseProfile="basic"
	 xmlns="&ns_svg;" xmlns:xlink="&ns_xlink;" xmlns:a="http://ns.adobe.com/AdobeSVGViewerExtensions/3.0/" width="20" height="20"
	 viewBox="0 0 20 20" enable-background="new 0 0 20 20" xml:space="preserve">
<defs>
</defs>
<linearGradient id="XMLID_181_" gradientUnits="userSpaceOnUse" x1="9.9985" y1="-0.5" x2="9.9985" y2="18.5083" gradientTransform="matrix(1 0 0 -1 0 19.0078)">
	<stop  offset="0" style="stop-color:#600000"/>
	<stop  offset="0.6423" style="stop-color:#8A0000"/>
	<stop  offset="1" style="stop-color:#9D0000"/>
</linearGradient>
<path fill="url(#XMLID_181_)" d="M19.496,17.826c0,0.93-0.756,1.682-1.686,1.682H2.187c-0.932,0-1.687-0.752-1.687-1.682V2.182
	C0.5,1.252,1.255,0.5,2.187,0.5h15.624c0.931,0,1.687,0.752,1.687,1.682L19.496,17.826L19.496,17.826z"/>
<path fill="#002900" d="M2.187,0C0.98,0,0,0.979,0,2.182v15.645c0,1.203,0.98,2.182,2.187,2.182h15.624
	c1.205,0,2.187-0.979,2.187-2.182V2.182C19.997,0.979,19.018,0,17.811,0H2.187z M1.025,17.846V2.205c0-0.65,0.531-1.18,1.185-1.18
	h15.606c0.654,0,1.186,0.529,1.186,1.18v15.641c0,0.654-0.531,1.185-1.186,1.185H2.21C1.557,19.029,1.025,18.5,1.025,17.846z"/>
<polygon points="9.996,2.008 4.996,7.008 7.996,7.008 7.996,18.008 11.996,18.008 11.996,7.008 14.996,7.008 "/>
</svg>
