<?xml version="1.0" encoding="utf-8"?>
<!-- Generator: Adobe Illustrator 12.0.1, SVG Export Plug-In  -->
<!DOCTYPE svg PUBLIC "-//W3C//DTD SVG 1.1//EN" "http://www.w3.org/Graphics/SVG/1.1/DTD/svg11.dtd" [
	<!ENTITY ns_flows "http://ns.adobe.com/Flows/1.0/">
	<!ENTITY ns_svg "http://www.w3.org/2000/svg">
	<!ENTITY ns_xlink "http://www.w3.org/1999/xlink">
]>
<svg  version="1.1" xmlns="&ns_svg;" xmlns:xlink="&ns_xlink;" xmlns:a="http://ns.adobe.com/AdobeSVGViewerExtensions/3.0/"
	 width="20" height="20" viewBox="0 0 20 20" enable-background="new 0 0 20 20" xml:space="preserve">
<defs>
</defs>
<linearGradient id="XMLID_114_" gradientUnits="userSpaceOnUse" x1="9.9995" y1="792.5" x2="9.9995" y2="773.4922" gradientTransform="matrix(1 0 0 1 0 -772.9922)">
	<stop  offset="0" style="stop-color:#790000"/>
	<stop  offset="0.1404" style="stop-color:#3D0000"/>
	<stop  offset="0.2132" style="stop-color:#390000"/>
	<stop  offset="0.4392" style="stop-color:#2D0000"/>
	<stop  offset="0.6522" style="stop-color:#250000"/>
	<stop  offset="0.845" style="stop-color:#200000"/>
	<stop  offset="0.9944" style="stop-color:#1E0000"/>
</linearGradient>
<path fill="url(#XMLID_114_)" d="M19.496,17.826c0,0.93-0.756,1.682-1.686,1.682H2.187c-0.932,0-1.687-0.752-1.687-1.682V2.182
	C0.5,1.252,1.255,0.5,2.187,0.5h15.624c0.932,0,1.688,0.752,1.688,1.682L19.496,17.826L19.496,17.826z"/>
<path fill="#00003B" d="M2.187,0C0.98,0,0,0.979,0,2.182v15.645c0,1.203,0.98,2.182,2.187,2.182h15.624
	c1.205,0,2.188-0.979,2.188-2.182V2.182C19.997,0.979,19.018,0,17.811,0H2.187z M1.025,17.846V2.205c0-0.65,0.531-1.18,1.185-1.18
	h15.606c0.654,0,1.186,0.529,1.186,1.18v15.641c0,0.654-0.531,1.186-1.186,1.186H2.21C1.557,19.029,1.025,18.5,1.025,17.846z"/>
<path fill="#FF0000" d="M18.336,9.336l-1.023,0.001L16.29,7.168h-1.022V5h-2.047L12.2,7.168h-1.024V5H9.127L8.104,7.168H7.082
	L5.036,9.336c0,0-2.356,0.001-2.747,0.001c-0.39,0-1.182,0.373-0.215,1.229c1.37,1.216,3.984,3.104,3.984,3.104h11.254
	c0,0,0.854-1.563,1.021-3.252C18.425,9.509,18.336,9.336,18.336,9.336z M8.105,10.419c-0.565,0-1.024-0.484-1.024-1.084
	c0-0.598,0.458-1.084,1.024-1.084c0.564,0,1.022,0.486,1.022,1.084C9.127,9.935,8.67,10.419,8.105,10.419z M11.175,10.419
	c-0.565,0-1.024-0.484-1.024-1.084c0-0.598,0.458-1.084,1.024-1.084c0.563,0,1.023,0.486,1.023,1.084
	C12.198,9.935,11.738,10.419,11.175,10.419z M14.244,10.419c-0.564,0-1.023-0.484-1.023-1.084c0-0.598,0.459-1.084,1.023-1.084
	s1.021,0.486,1.021,1.084C15.268,9.935,14.809,10.419,14.244,10.419z"/>
</svg>
