<?xml version="1.0" encoding="utf-8"?>
<!-- Generator: Adobe Illustrator 12.0.1, SVG Export Plug-In  -->
<!DOCTYPE svg PUBLIC "-//W3C//DTD SVG 1.1 Basic//EN" "http://www.w3.org/Graphics/SVG/1.1/DTD/svg11-basic.dtd" [
	<!ENTITY ns_flows "http://ns.adobe.com/Flows/1.0/">
	<!ENTITY ns_svg "http://www.w3.org/2000/svg">
	<!ENTITY ns_xlink "http://www.w3.org/1999/xlink">
]>
<svg  version="1.1" baseProfile="basic"
	 xmlns="&ns_svg;" xmlns:xlink="&ns_xlink;" xmlns:a="http://ns.adobe.com/AdobeSVGViewerExtensions/3.0/" width="20" height="20"
	 viewBox="0 0 20 20" enable-background="new 0 0 20 20" xml:space="preserve">
<defs>
</defs>
<linearGradient id="XMLID_201_" gradientUnits="userSpaceOnUse" x1="-583.0063" y1="-0.5" x2="-583.0063" y2="18.5073" gradientTransform="matrix(-1 0 0 -1 -573.0078 19.0078)">
	<stop  offset="0" style="stop-color:#600000"/>
	<stop  offset="0.6423" style="stop-color:#8A0000"/>
	<stop  offset="1" style="stop-color:#9D0000"/>
</linearGradient>
<path fill="url(#XMLID_201_)" d="M0.5,17.826c0,0.93,0.756,1.682,1.686,1.682h15.625c0.932,0,1.687-0.752,1.687-1.682V2.182
	c0-0.93-0.755-1.682-1.687-1.682H2.186C1.256,0.5,0.5,1.252,0.5,2.182V17.826z"/>
<path fill="#002900" d="M2.186,0C0.98,0,0,0.979,0,2.182v15.645c0,1.203,0.98,2.182,2.186,2.182h15.625
	c1.205,0,2.187-0.979,2.187-2.182V2.182C19.996,0.979,19.016,0,17.811,0H2.186z M17.786,19.029H2.18
	c-0.654,0-1.186-0.529-1.186-1.185V2.205c0-0.65,0.531-1.18,1.186-1.18h15.606c0.653,0,1.185,0.529,1.185,1.18v15.641
	C18.971,18.5,18.439,19.029,17.786,19.029z"/>
<path d="M5,18h4c0,0,0-3.127,0-4c0-1.219,0.119-1.57,0.698-2.163c0.579-0.592,3.036-3.103,3.036-3.103L16,12V3H7l3.227,3.227
	c0,0-2.882,2.759-3.679,3.556C5.751,10.58,5,11.063,5,13C5,13.787,5,18,5,18z"/>
</svg>
