<?xml version="1.0" encoding="utf-8"?>
<!-- Generator: Adobe Illustrator 12.0.1, SVG Export Plug-In  -->
<!DOCTYPE svg PUBLIC "-//W3C//DTD SVG 1.1//EN" "http://www.w3.org/Graphics/SVG/1.1/DTD/svg11.dtd" [
	<!ENTITY ns_flows "http://ns.adobe.com/Flows/1.0/">
	<!ENTITY ns_svg "http://www.w3.org/2000/svg">
	<!ENTITY ns_xlink "http://www.w3.org/1999/xlink">
]>
<svg  version="1.1" xmlns="&ns_svg;" xmlns:xlink="&ns_xlink;" xmlns:a="http://ns.adobe.com/AdobeSVGViewerExtensions/3.0/"
	 width="20" height="20" viewBox="0 0 20 20" enable-background="new 0 0 20 20" xml:space="preserve">
<defs>
</defs>
<linearGradient id="XMLID_6_" gradientUnits="userSpaceOnUse" x1="-583.0063" y1="-0.5" x2="-583.0063" y2="18.5073" gradientTransform="matrix(-1 0 0 -1 -573.0078 19.0078)">
	<stop  offset="0" style="stop-color:#600000"/>
	<stop  offset="0.6423" style="stop-color:#8A0000"/>
	<stop  offset="1" style="stop-color:#9D0000"/>
</linearGradient>
<path fill="url(#XMLID_6_)" d="M0.5,17.826c0,0.93,0.756,1.682,1.686,1.682h15.625c0.932,0,1.687-0.752,1.687-1.682V2.182
	c0-0.93-0.755-1.682-1.687-1.682H2.186C1.256,0.5,0.5,1.252,0.5,2.182V17.826z"/>
<path fill="#002900" d="M2.186,0C0.98,0,0,0.979,0,2.182v15.645c0,1.203,0.98,2.182,2.186,2.182h15.625
	c1.205,0,2.187-0.979,2.187-2.182V2.182C19.996,0.979,19.016,0,17.811,0H2.186z M17.786,19.029H2.18
	c-0.654,0-1.186-0.529-1.186-1.185V2.205c0-0.65,0.531-1.18,1.186-1.18h15.606c0.653,0,1.185,0.529,1.185,1.18v15.641
	C18.971,18.5,18.439,19.029,17.786,19.029z"/>
<path d="M14.298,11.823c0.152-0.47,0.281-0.893,0.285-1.409c0.014-1.754-0.624-2.751-1.612-3.674l1.449-1.406
	c1.275,1.216,2.323,2.781,2.202,5.023c-0.04,0.736-0.2,1.561-0.43,2.221l1.988,0.842l-4.359,2.11l-1.252-4.489L14.298,11.823z"/>
<path d="M6.368,13.754c0.334,0.363,0.639,0.684,1.087,0.939c1.521,0.873,2.703,0.809,3.992,0.399l0.514,1.952
	c-1.687,0.516-3.563,0.659-5.457-0.548c-0.622-0.396-1.262-0.938-1.724-1.465l-1.71,1.319l0.301-4.834l4.525,1.111L6.368,13.754z"/>
<path d="M8.629,6.057C8.146,6.158,7.717,6.258,7.267,6.513C5.738,7.374,5.191,8.424,4.884,9.741L2.942,9.187
	C3.362,7.475,4.195,5.785,6.2,4.773C6.857,4.44,7.652,4.168,8.339,4.038L8.077,1.895L12.08,4.62L8.814,7.945L8.629,6.057z"/>
</svg>
