<?xml version="1.0" encoding="utf-8"?>
<!-- Generator: Adobe Illustrator 12.0.1, SVG Export Plug-In  -->
<!DOCTYPE svg PUBLIC "-//W3C//DTD SVG 1.1//EN" "http://www.w3.org/Graphics/SVG/1.1/DTD/svg11.dtd" [
	<!ENTITY ns_flows "http://ns.adobe.com/Flows/1.0/">
	<!ENTITY ns_svg "http://www.w3.org/2000/svg">
	<!ENTITY ns_xlink "http://www.w3.org/1999/xlink">
]>
<svg  version="1.1" xmlns="&ns_svg;" xmlns:xlink="&ns_xlink;" xmlns:a="http://ns.adobe.com/AdobeSVGViewerExtensions/3.0/"
	 width="20" height="20" viewBox="0 0 20 20" enable-background="new 0 0 20 20" xml:space="preserve">
<defs>
</defs>
<linearGradient id="XMLID_12_" gradientUnits="userSpaceOnUse" x1="9.9985" y1="-0.5" x2="9.9985" y2="18.5083" gradientTransform="matrix(1 0 0 -1 0 19.0078)">
	<stop  offset="0" style="stop-color:#600000"/>
	<stop  offset="0.6423" style="stop-color:#8A0000"/>
	<stop  offset="1" style="stop-color:#9D0000"/>
</linearGradient>
<path fill="url(#XMLID_12_)" d="M19.496,17.826c0,0.93-0.756,1.682-1.686,1.682H2.187c-0.932,0-1.687-0.752-1.687-1.682V2.182
	C0.5,1.252,1.255,0.5,2.187,0.5h15.624c0.931,0,1.687,0.752,1.687,1.682L19.496,17.826L19.496,17.826z"/>
<path fill="#002900" d="M2.187,0C0.98,0,0,0.979,0,2.182v15.645c0,1.203,0.98,2.182,2.187,2.182h15.624
	c1.205,0,2.187-0.979,2.187-2.182V2.182C19.997,0.979,19.018,0,17.811,0H2.187z M1.025,17.846V2.205c0-0.65,0.531-1.18,1.185-1.18
	h15.606c0.654,0,1.186,0.529,1.186,1.18v15.641c0,0.654-0.531,1.185-1.186,1.185H2.21C1.557,19.029,1.025,18.5,1.025,17.846z"/>
<path d="M5.688,11.832c-0.148-0.471-0.274-0.895-0.274-1.411c0-1.754,0.646-2.746,1.641-3.661L5.616,5.343
	c-1.285,1.206-2.345,2.762-2.241,5.005c0.034,0.736,0.187,1.563,0.412,2.224l-1.995,0.826l4.342,2.146l1.288-4.479L5.688,11.832z"/>
<path d="M13.628,13.754c-0.334,0.363-0.64,0.684-1.087,0.939c-1.521,0.873-2.703,0.809-3.992,0.399l-0.514,1.952
	c1.687,0.516,3.563,0.659,5.457-0.548c0.621-0.396,1.262-0.938,1.724-1.465l1.71,1.319l-0.301-4.834L12.1,12.631L13.628,13.754z"/>
<path d="M11.367,6.057c0.482,0.102,0.912,0.201,1.361,0.456c1.528,0.861,2.076,1.911,2.383,3.229l1.941-0.555
	c-0.42-1.712-1.253-3.401-3.258-4.413c-0.656-0.333-1.452-0.605-2.139-0.735l0.262-2.144L7.916,4.62l3.266,3.325L11.367,6.057z"/>
</svg>
