<?xml version="1.0" encoding="utf-8"?>
<!-- Generator: Adobe Illustrator 12.0.1, SVG Export Plug-In  -->
<!DOCTYPE svg PUBLIC "-//W3C//DTD SVG 1.1//EN" "http://www.w3.org/Graphics/SVG/1.1/DTD/svg11.dtd" [
	<!ENTITY ns_flows "http://ns.adobe.com/Flows/1.0/">
	<!ENTITY ns_svg "http://www.w3.org/2000/svg">
	<!ENTITY ns_xlink "http://www.w3.org/1999/xlink">
]>
<svg  version="1.1" xmlns="&ns_svg;" xmlns:xlink="&ns_xlink;" xmlns:a="http://ns.adobe.com/AdobeSVGViewerExtensions/3.0/"
	 width="20" height="20" viewBox="0 0 20 20" enable-background="new 0 0 20 20" xml:space="preserve">
<defs>
</defs>
<linearGradient id="XMLID_130_" gradientUnits="userSpaceOnUse" x1="9.9995" y1="792.5" x2="9.9995" y2="773.4922" gradientTransform="matrix(1 0 0 1 0 -772.9922)">
	<stop  offset="0" style="stop-color:#600000"/>
	<stop  offset="0.6423" style="stop-color:#8A0000"/>
	<stop  offset="1" style="stop-color:#9D0000"/>
</linearGradient>
<path fill="url(#XMLID_130_)" d="M19.496,17.826c0,0.93-0.756,1.682-1.686,1.682H2.187c-0.932,0-1.687-0.752-1.687-1.682V2.182
	C0.5,1.252,1.255,0.5,2.187,0.5h15.624c0.932,0,1.688,0.752,1.688,1.682L19.496,17.826L19.496,17.826z"/>
<path fill="#002900" d="M2.187,0C0.98,0,0,0.979,0,2.182v15.645c0,1.203,0.98,2.182,2.187,2.182h15.624
	c1.205,0,2.188-0.979,2.188-2.182V2.182C19.997,0.979,19.018,0,17.811,0H2.187z M1.025,17.846V2.205c0-0.65,0.531-1.18,1.185-1.18
	h15.606c0.654,0,1.186,0.529,1.186,1.18v15.641c0,0.654-0.531,1.186-1.186,1.186H2.21C1.557,19.029,1.025,18.5,1.025,17.846z"/>
<path fill="#6E0000" d="M2.588,3.688c0,0,4.543,5.691,4.975,6.232c-0.438,0.543-5.479,6.785-5.479,6.785l3.167,2.049
	c0,0,4.026-5.025,4.69-5.855c0.665,0.828,4.685,5.83,4.685,5.83l3.338-1.848c0,0-5.192-6.423-5.633-6.968
	c0.435-0.542,5.043-6.302,5.043-6.302L14.188,1.71c0,0-3.584,4.446-4.234,5.255C9.301,6.154,5.696,1.674,5.696,1.674L2.588,3.688z
	 M5.479,2.98c0.499,0.621,4.473,5.559,4.473,5.559s3.991-4.95,4.474-5.55C14.828,3.23,15.422,3.584,15.9,3.87
	c-0.592,0.74-4.838,6.046-4.838,6.046s4.772,5.904,5.398,6.68c-0.516,0.283-1.172,0.648-1.581,0.875
	c-0.478-0.592-4.941-6.152-4.941-6.152s-4.403,5.498-4.908,6.13c-0.414-0.271-1.03-0.667-1.495-0.97
	C4.122,15.753,8.83,9.923,8.83,9.923s-4.224-5.29-4.795-6.006C4.49,3.622,5.072,3.244,5.479,2.98z"/>
<linearGradient id="XMLID_131_" gradientUnits="userSpaceOnUse" x1="10.0127" y1="791.0918" x2="10.0127" y2="775.3193" gradientTransform="matrix(1 0 0 1 0 -772.9922)">
	<stop  offset="0" style="stop-color:#FF0000"/>
	<stop  offset="0.2964" style="stop-color:#F60000"/>
	<stop  offset="0.7707" style="stop-color:#E80000"/>
	<stop  offset="1" style="stop-color:#E30000"/>
</linearGradient>
<path fill="url(#XMLID_131_)" d="M2.81,16.592l5.387-6.67L3.311,3.803l2.276-1.476l4.366,5.425l4.354-5.402l2.33,1.391l-4.938,6.175
	l5.517,6.823l-2.46,1.36L9.94,12.107L5.14,18.1L2.81,16.592z"/>
<linearGradient id="XMLID_132_" gradientUnits="userSpaceOnUse" x1="9.9771" y1="782.626" x2="9.9771" y2="775.3193" gradientTransform="matrix(1 0 0 1 0 -772.9922)">
	<stop  offset="0" style="stop-color:#FF8D70"/>
	<stop  offset="0.3259" style="stop-color:#FFAA95"/>
	<stop  offset="1" style="stop-color:#FFEFEB"/>
</linearGradient>
<path fill="url(#XMLID_132_)" d="M16.643,3.734L14.307,2.35L9.953,7.752L5.587,2.327L3.311,3.803L7.716,9.32
	c0.701,0.2,1.438,0.314,2.2,0.314c0.789,0,1.548-0.12,2.271-0.331L16.643,3.734z"/>
</svg>
