<?xml version="1.0" encoding="utf-8"?>
<!-- Generator: Adobe Illustrator 12.0.1, SVG Export Plug-In  -->
<!DOCTYPE svg PUBLIC "-//W3C//DTD SVG 1.1//EN" "http://www.w3.org/Graphics/SVG/1.1/DTD/svg11.dtd" [
	<!ENTITY ns_flows "http://ns.adobe.com/Flows/1.0/">
	<!ENTITY ns_svg "http://www.w3.org/2000/svg">
	<!ENTITY ns_xlink "http://www.w3.org/1999/xlink">
]>
<svg  version="1.1" xmlns="&ns_svg;" xmlns:xlink="&ns_xlink;" xmlns:a="http://ns.adobe.com/AdobeSVGViewerExtensions/3.0/"
	 width="20" height="20" viewBox="0 0 20 20" enable-background="new 0 0 20 20" xml:space="preserve">
<defs>
</defs>
<linearGradient id="XMLID_144_" gradientUnits="userSpaceOnUse" x1="9.9985" y1="792.5" x2="9.9985" y2="773.4912" gradientTransform="matrix(1 0 0 1 0 -772.9912)">
	<stop  offset="0" style="stop-color:#600000"/>
	<stop  offset="0.6423" style="stop-color:#8A0000"/>
	<stop  offset="1" style="stop-color:#9D0000"/>
</linearGradient>
<path fill="url(#XMLID_144_)" d="M19.497,17.827c0,0.93-0.756,1.682-1.687,1.682H2.187c-0.932,0-1.687-0.752-1.687-1.682V2.182
	C0.5,1.253,1.255,0.5,2.187,0.5h15.624c0.931,0,1.687,0.753,1.687,1.682V17.827z"/>
<path fill="#002900" d="M2.187,0C0.981,0,0,0.979,0,2.182v15.646c0,1.203,0.981,2.182,2.187,2.182h15.624
	c1.205,0,2.187-0.979,2.187-2.182V2.182C19.997,0.979,19.016,0,17.811,0H2.187z M1.025,17.848V2.206c0-0.65,0.531-1.181,1.185-1.181
	h15.606c0.654,0,1.187,0.53,1.187,1.181v15.642c0,0.652-0.53,1.185-1.187,1.185H2.21C1.557,19.03,1.025,18.5,1.025,17.848z"/>
<path d="M1.995,18.014c0,0,0-8.799,0-12c0-2.4,1.6-4,4-4c3.201,0,4,1.6,7.2,1.6c3.199,0,4.8-1.6,4.8-1.6s0,6.4,0,10.398
	c0,2.4-2.397,3.201-4.8,3.201c-3.2,0-3.2-0.801-6.401-0.801C3.595,14.813,1.995,18.014,1.995,18.014z"/>
<path fill="#FF0000" d="M2.857,6.041c0-1.586,0.793-3.172,3.172-3.172c2.379,0,3.965,1.586,7.138,1.586
	c3.172,0,3.965-0.793,3.965-0.793s0,7.137,0,8.723c0,1.588-1.586,2.381-3.965,2.381s-3.964-0.793-6.346-0.793
	c-2.378,0-3.964,1.586-3.964,1.586V6.041z"/>
<path d="M6.794,6.014c0.292,0,0.558,0.014,0.801,0.037v-3.01c-0.51-0.137-1.032-0.227-1.6-0.227c-2.4,0-3.2,1.6-3.2,3.199v2.4
	C2.795,8.414,3.595,6.014,6.794,6.014z M13.195,11.614c-0.286,0-0.553-0.011-0.801-0.025V7.576C10.211,7.359,9.777,6.27,7.595,6.051
	v4.031c-0.238-0.043-0.5-0.068-0.801-0.068c-3.199,0-3.999,2.398-3.999,2.398v3.201c0,0,1.6-1.602,3.999-1.602
	c0.277,0,0.543,0.012,0.801,0.03V10.08c1.526,0.281,2.022,1.337,4.799,1.507v3.193c0.258,0.02,0.521,0.03,0.801,0.03
	c2.4,0,4-0.801,4-2.399v-2.399C17.195,10.014,16.395,11.614,13.195,11.614z M13.195,4.414c-0.278,0-0.545-0.016-0.801-0.039v3.201
	c0.244,0.023,0.508,0.037,0.801,0.037c3.199,0,4-0.801,4-0.801c0-1.744,0-3.199,0-3.199S16.395,4.414,13.195,4.414z"/>
</svg>
