<?xml version="1.0" encoding="utf-8"?>
<!-- Generator: Adobe Illustrator 12.0.1, SVG Export Plug-In  -->
<!DOCTYPE svg PUBLIC "-//W3C//DTD SVG 1.1//EN" "http://www.w3.org/Graphics/SVG/1.1/DTD/svg11.dtd" [
	<!ENTITY ns_flows "http://ns.adobe.com/Flows/1.0/">
	<!ENTITY ns_svg "http://www.w3.org/2000/svg">
	<!ENTITY ns_xlink "http://www.w3.org/1999/xlink">
]>
<svg  version="1.1" xmlns="&ns_svg;" xmlns:xlink="&ns_xlink;" xmlns:a="http://ns.adobe.com/AdobeSVGViewerExtensions/3.0/"
	 width="20" height="20" viewBox="0 0 20 20" enable-background="new 0 0 20 20" xml:space="preserve">
<defs>
</defs>
<linearGradient id="XMLID_58_" gradientUnits="userSpaceOnUse" x1="9.9985" y1="-0.5" x2="9.9985" y2="18.5083" gradientTransform="matrix(1 0 0 -1 0 19.0078)">
	<stop  offset="0" style="stop-color:#600000"/>
	<stop  offset="0.6423" style="stop-color:#8A0000"/>
	<stop  offset="1" style="stop-color:#9D0000"/>
</linearGradient>
<path fill="url(#XMLID_58_)" d="M19.496,17.826c0,0.93-0.756,1.682-1.686,1.682H2.187c-0.932,0-1.687-0.752-1.687-1.682V2.182
	C0.5,1.252,1.255,0.5,2.187,0.5h15.624c0.931,0,1.687,0.752,1.687,1.682L19.496,17.826L19.496,17.826z"/>
<path fill="#002900" d="M2.187,0C0.98,0,0,0.979,0,2.182v15.645c0,1.203,0.98,2.182,2.187,2.182h15.624
	c1.205,0,2.187-0.979,2.187-2.182V2.182C19.997,0.979,19.018,0,17.811,0H2.187z M1.025,17.846V2.205c0-0.65,0.531-1.18,1.185-1.18
	h15.606c0.654,0,1.186,0.529,1.186,1.18v15.641c0,0.654-0.531,1.185-1.186,1.185H2.21C1.557,19.029,1.025,18.5,1.025,17.846z"/>
<path d="M17.996,10c0-4.419-3.581-8-8-8c-4.417,0-8,3.581-8,8v8h8l0,0C14.415,18,17.996,14.419,17.996,10z"/>
<linearGradient id="XMLID_59_" gradientUnits="userSpaceOnUse" x1="9.9956" y1="1.8076" x2="9.9956" y2="16.2085" gradientTransform="matrix(1 0 0 -1 0 19.0078)">
	<stop  offset="0" style="stop-color:#7B0000"/>
	<stop  offset="0.1404" style="stop-color:#3D0000"/>
	<stop  offset="0.2132" style="stop-color:#390000"/>
	<stop  offset="0.4392" style="stop-color:#2D0000"/>
	<stop  offset="0.6522" style="stop-color:#250000"/>
	<stop  offset="0.845" style="stop-color:#200000"/>
	<stop  offset="1" style="stop-color:#1E0000"/>
</linearGradient>
<path fill="url(#XMLID_59_)" d="M17.195,10c0-3.978-3.225-7.2-7.199-7.2c-3.976,0-7.2,3.223-7.2,7.2v7.2h7.2l0,0
	C13.975,17.2,17.195,13.979,17.195,10z"/>
<linearGradient id="XMLID_60_" gradientUnits="userSpaceOnUse" x1="9.9961" y1="6.8369" x2="9.9961" y2="15.8374" gradientTransform="matrix(1 0 0 -1 0 19.0078)">
	<stop  offset="0" style="stop-color:#3E0000"/>
	<stop  offset="0.1092" style="stop-color:#440000"/>
	<stop  offset="0.2599" style="stop-color:#560000"/>
	<stop  offset="0.4348" style="stop-color:#730000"/>
	<stop  offset="0.6277" style="stop-color:#9C0000"/>
	<stop  offset="0.8331" style="stop-color:#D00000"/>
	<stop  offset="1" style="stop-color:#FF0000"/>
</linearGradient>
<ellipse fill="url(#XMLID_60_)" cx="9.996" cy="7.671" rx="5.4" ry="4.5"/>
<path fill="#192438" d="M8.104,4.969L4.302,15.135h3.365c0,0,0.456-1.297,0.59-1.676c0.428,0,2.267,0,2.698,0
	c0.13,0.381,0.576,1.676,0.576,1.676h3.404L11.137,4.969H8.104z M10.582,5.769c0.173,0.463,2.854,7.636,3.201,8.565
	c-0.588,0-1.348,0-1.682,0c-0.131-0.38-0.576-1.675-0.576-1.675H7.691c0,0-0.458,1.299-0.591,1.675c-0.33,0-1.062,0-1.645,0
	c0.348-0.93,3.03-8.103,3.202-8.565C9.041,5.769,10.198,5.769,10.582,5.769z"/>
<path fill="#192438" d="M9.31,7.566l-1.322,4.086h3.221L9.92,7.566H9.31z M9.61,9.24c0.231,0.734,0.372,1.182,0.508,1.611
	c-0.393,0-0.636,0-1.03,0C9.229,10.421,9.372,9.973,9.61,9.24z"/>
<path fill="#FF0000" d="M4.879,14.734L8.38,5.369h2.478l3.502,9.365h-2.545l-0.576-1.676H7.973l-0.589,1.676H4.879z M9.601,7.967
	l-1.063,3.285h2.125L9.627,7.967H9.601z"/>
</svg>
