<?xml version="1.0" encoding="utf-8"?>
<!-- Generator: Adobe Illustrator 12.0.1, SVG Export Plug-In  -->
<!DOCTYPE svg PUBLIC "-//W3C//DTD SVG 1.1//EN" "http://www.w3.org/Graphics/SVG/1.1/DTD/svg11.dtd" [
	<!ENTITY ns_flows "http://ns.adobe.com/Flows/1.0/">
	<!ENTITY ns_svg "http://www.w3.org/2000/svg">
	<!ENTITY ns_xlink "http://www.w3.org/1999/xlink">
]>
<svg  version="1.1" xmlns="&ns_svg;" xmlns:xlink="&ns_xlink;" xmlns:a="http://ns.adobe.com/AdobeSVGViewerExtensions/3.0/"
	 width="20" height="20" viewBox="0 0 20 20" enable-background="new 0 0 20 20" xml:space="preserve">
<defs>
</defs>
<linearGradient id="XMLID_106_" gradientUnits="userSpaceOnUse" x1="9.9985" y1="-0.5" x2="9.9985" y2="18.5083" gradientTransform="matrix(1 0 0 -1 0 19.0078)">
	<stop  offset="0" style="stop-color:#600000"/>
	<stop  offset="0.6423" style="stop-color:#8A0000"/>
	<stop  offset="1" style="stop-color:#9D0000"/>
</linearGradient>
<path fill="url(#XMLID_106_)" d="M19.496,17.826c0,0.93-0.756,1.682-1.686,1.682H2.187c-0.932,0-1.687-0.752-1.687-1.682V2.182
	C0.5,1.252,1.255,0.5,2.187,0.5h15.624c0.931,0,1.687,0.752,1.687,1.682L19.496,17.826L19.496,17.826z"/>
<path fill="#002900" d="M2.187,0C0.98,0,0,0.979,0,2.182v15.645c0,1.203,0.98,2.182,2.187,2.182h15.624
	c1.205,0,2.187-0.979,2.187-2.182V2.182C19.997,0.979,19.018,0,17.811,0H2.187z M1.025,17.846V2.205c0-0.65,0.531-1.18,1.185-1.18
	h15.606c0.654,0,1.186,0.529,1.186,1.18v15.641c0,0.654-0.531,1.185-1.186,1.185H2.21C1.557,19.029,1.025,18.5,1.025,17.846z"/>
<polygon fill="none" stroke="#570000" points="9.996,18.008 4.996,13.008 7.996,13.008 7.996,2.008 11.996,2.008 11.996,13.008 
	14.996,13.008 "/>
<linearGradient id="XMLID_107_" gradientUnits="userSpaceOnUse" x1="9.9956" y1="1" x2="9.9956" y2="17.0005" gradientTransform="matrix(1 0 0 -1 0 19.0078)">
	<stop  offset="0" style="stop-color:#FF0000"/>
	<stop  offset="0.2964" style="stop-color:#F60000"/>
	<stop  offset="0.7707" style="stop-color:#E80000"/>
	<stop  offset="1" style="stop-color:#E30000"/>
</linearGradient>
<polygon fill="url(#XMLID_107_)" points="9.996,18.008 4.996,13.008 7.996,13.008 7.996,2.008 11.996,2.008 11.996,13.008 
	14.996,13.008 "/>
<linearGradient id="XMLID_108_" gradientUnits="userSpaceOnUse" x1="9.9956" y1="9.0078" x2="9.9956" y2="17.0005" gradientTransform="matrix(1 0 0 -1 0 19.0078)">
	<stop  offset="0" style="stop-color:#FF744F"/>
	<stop  offset="0.3414" style="stop-color:#FF967E"/>
	<stop  offset="0.7853" style="stop-color:#FFBFB6"/>
	<stop  offset="1" style="stop-color:#FFCFCC"/>
</linearGradient>
<path fill="url(#XMLID_108_)" d="M11.996,2.008h-4v7.967C8.161,9.987,8.327,10,8.496,10c1.29,0,2.488-0.381,3.5-1.028V2.008z"/>
</svg>
