<?xml version="1.0" encoding="UTF-8"?>
<!DOCTYPE svg PUBLIC "-//W3C//DTD SVG 1.1 Tiny//EN" "http://www.w3.org/Graphics/SVG/1.1/DTD/svg11-tiny.dtd">
<svg baseProfile="tiny" version="1.1" xmlns="http://www.w3.org/2000/svg" xmlns:xlink="http://www.w3.org/1999/xlink" width="19.996" height="20.008" viewBox="0 0 19.996 20.008">
<path fill="none" d="M19.496,17.826c0,0.93-0.756,1.682-1.686,1.682H2.187  c-0.932,0-1.687-0.752-1.687-1.682V2.182C0.5,1.252,1.255,0.5,2.187,0.5h15.624c0.93,0,1.686,0.752,1.686,1.682V17.826z"/>
<path fill="none" d="M2.187,0C0.98,0,0,0.979,0,2.182v15.645c0,1.203,0.98,2.182,2.187,2.182h15.624  c1.205,0,2.186-0.979,2.186-2.182V2.182c0-1.203-0.98-2.182-2.186-2.182H2.187z M1.025,17.846V2.205c0-0.65,0.531-1.18,1.185-1.18  h15.606c0.654,0,1.186,0.529,1.186,1.18v15.641c0,0.654-0.531,1.184-1.186,1.184H2.21C1.557,19.029,1.025,18.5,1.025,17.846z"/>
</svg>
