<?xml version="1.0" encoding="UTF-8"?>
<!DOCTYPE svg PUBLIC "-//W3C//DTD SVG 1.1 Tiny//EN" "http://www.w3.org/Graphics/SVG/1.1/DTD/svg11-tiny.dtd">
<svg baseProfile="tiny" version="1.1" xmlns="http://www.w3.org/2000/svg" xmlns:xlink="http://www.w3.org/1999/xlink" width="15.25" height="30" viewBox="36.25 0 15.25 30">
<g>
<path fill="#EE0000" d="M70,26c0,2.209-1.791,4-4,4H4c-2.209,0-4-1.791-4-4V4c0-2.209,1.791-4,4-4h62c2.209,0,4,1.791,4,4V26z"/>
</g>
<g>
<path d="M69,25.268C69,27.328,67.26,29,65.113,29H4.886C2.74,29,1,27.328,1,25.268V4.733C1,2.671,2.74,1,4.886,1h60.229   C67.26,1,69,2.671,69,4.733V25.268z"/>
</g>
<path fill="#EE0000" d="M50.164,19.055c0,4.604-2.055,6.904-6.164,6.904s-6.164-2.301-6.164-6.904v-8.182  c0-4.554,2.055-6.831,6.164-6.831s6.164,2.277,6.164,6.831V19.055z M46.271,18.875v-7.781c0-2.556-0.758-3.835-2.271-3.835  s-2.271,1.279-2.271,3.835v7.781c0,2.531,0.758,3.799,2.271,3.799S46.271,21.408,46.271,18.875z"/>
</svg>
