<?xml version="1.0" encoding="UTF-8"?>
<!DOCTYPE svg PUBLIC "-//W3C//DTD SVG 1.1 Tiny//EN" "http://www.w3.org/Graphics/SVG/1.1/DTD/svg11-tiny.dtd">
<svg baseProfile="tiny" version="1.1" xmlns="http://www.w3.org/2000/svg" xmlns:xlink="http://www.w3.org/1999/xlink" width="16" height="30" viewBox="36.5 0 16 30">
<g>
<path fill="#EE0000" d="M70,26c0,2.209-1.791,4-4,4H4c-2.209,0-4-1.791-4-4V4c0-2.209,1.791-4,4-4h62c2.209,0,4,1.791,4,4V26z"/>
</g>
<g>
<path d="M69,25.268C69,27.328,67.26,29,65.113,29H4.886C2.74,29,1,27.328,1,25.268V4.733C1,2.671,2.74,1,4.886,1h60.229   C67.26,1,69,2.671,69,4.733V25.268z"/>
</g>
<path fill="#EE0000" d="M50.941,10.203c0,1.569-0.467,3.076-1.4,4.521L44.9,21.972h5.891V26H38.609l7.4-12.734  c0.771-1.32,1.158-2.28,1.158-2.877c0-0.747-0.2-1.381-0.6-1.905c-0.48-0.572-1.105-0.858-1.878-0.858  c-1.603,0-2.44,1.065-2.521,3.2h-3.611c0-4.55,2.186-6.825,6.137-6.825c1.924,0,3.443,0.578,4.564,1.737  C50.381,6.895,50.941,8.383,50.941,10.203z"/>
</svg>
