<?xml version="1.0" encoding="UTF-8"?>
<!DOCTYPE svg PUBLIC "-//W3C//DTD SVG 1.1 Tiny//EN" "http://www.w3.org/Graphics/SVG/1.1/DTD/svg11-tiny.dtd">
<svg baseProfile="tiny" version="1.1" xmlns="http://www.w3.org/2000/svg" xmlns:xlink="http://www.w3.org/1999/xlink" width="16" height="30" viewBox="36.25 0 16 30">
<g>
<path fill="#EE0000" d="M70,26c0,2.209-1.791,4-4,4H4c-2.209,0-4-1.791-4-4V4c0-2.209,1.791-4,4-4h62c2.209,0,4,1.791,4,4V26z"/>
</g>
<g>
<path d="M69,25.268C69,27.328,67.26,29,65.113,29H4.886C2.74,29,1,27.328,1,25.268V4.733C1,2.671,2.74,1,4.886,1h60.229   C67.26,1,69,2.671,69,4.733V25.268z"/>
</g>
<path fill="#EE0000" d="M50.59,19.432c0,1.922-0.509,3.465-1.521,4.631c-1.066,1.265-2.59,1.897-4.568,1.897  c-1.929,0-3.439-0.621-4.53-1.862c-1.039-1.166-1.56-2.701-1.56-4.599c0-0.17,0.013-0.341,0.038-0.512h3.476v0.329  c-0.026,0.877,0.164,1.608,0.57,2.193c0.479,0.707,1.163,1.063,2.048,1.063c0.81,0,1.469-0.377,1.974-1.133  c0.403-0.631,0.608-1.36,0.608-2.188c0-0.776-0.329-1.731-0.813-2.215c-0.556-0.556-1.571-0.784-2.305-0.881v-3.068  c0.707-0.097,1.864-0.456,2.284-1.065c0.393-0.535,0.696-1.123,0.696-1.749c0-0.828-0.062-1.285-0.41-1.762  c-0.474-0.645-1.269-1.018-2.079-1.018c-1.396,0-2.142,0.817-2.395,2.251h-3.459c0.128-1.603,0.786-3.294,1.862-4.251  c1.165-1.033,2.426-1.453,4.076-1.453c1.701,0,3.117,0.633,4.216,1.733c1.209,1.209,1.555,2.655,1.555,4.308  c0,1.824-0.517,3.585-2.463,4.425C49.787,15.165,50.59,17.21,50.59,19.432z"/>
</svg>
