<?xml version="1.0" encoding="UTF-8"?>
<!DOCTYPE svg PUBLIC "-//W3C//DTD SVG 1.1 Tiny//EN" "http://www.w3.org/Graphics/SVG/1.1/DTD/svg11-tiny.dtd">
<svg baseProfile="tiny" version="1.1" xmlns="http://www.w3.org/2000/svg" xmlns:xlink="http://www.w3.org/1999/xlink" width="16.75" height="30" viewBox="34.5 0 16.75 30">
<g>
<path fill="#EE0000" d="M70,26c0,2.209-1.791,4-4,4H4c-2.209,0-4-1.791-4-4V4c0-2.209,1.791-4,4-4h62c2.209,0,4,1.791,4,4V26z"/>
</g>
<g>
<path d="M69,25.268C69,27.328,67.26,29,65.113,29H4.886C2.74,29,1,27.328,1,25.268V4.733C1,2.671,2.74,1,4.886,1h60.229   C67.26,1,69,2.671,69,4.733V25.268z"/>
</g>
<path fill="#EE0000" d="M49.207,18.645c0,1.961-0.531,3.625-1.601,4.992c-1.201,1.563-2.817,2.344-4.847,2.344  c-2.963,0-4.953-1.487-5.969-4.465l3.285-1.638c0.666,1.464,1.627,2.196,2.883,2.196c0.826,0,1.467-0.385,1.92-1.154  c0.319-0.594,0.48-1.328,0.48-2.195c0-0.795-0.214-1.516-0.641-2.162c-0.506-0.744-0.904-1.117-1.73-1.117  c-0.851,0-1.252,0.449-1.705,1.34h-3.296V4.02h9.847v3.771h-6.549l-0.008,5.083c0.624-0.622,1.523-0.82,2.325-0.82  c1.815,0,3.229,0.696,4.245,2.086C48.754,15.355,49.207,16.857,49.207,18.645z"/>
</svg>
