<?xml version="1.0" encoding="UTF-8"?>
<!DOCTYPE svg PUBLIC "-//W3C//DTD SVG 1.1 Tiny//EN" "http://www.w3.org/Graphics/SVG/1.1/DTD/svg11-tiny.dtd">
<svg baseProfile="tiny" version="1.1" xmlns="http://www.w3.org/2000/svg" xmlns:xlink="http://www.w3.org/1999/xlink" width="17" height="30" viewBox="33.5 0 17 30">
<g>
<path fill="#EE0000" d="M70,26c0,2.209-1.791,4-4,4H4c-2.209,0-4-1.791-4-4V4c0-2.209,1.791-4,4-4h62c2.209,0,4,1.791,4,4V26z"/>
</g>
<g>
<path d="M69,25.268C69,27.328,67.26,29,65.113,29H4.886C2.74,29,1,27.328,1,25.268V4.733C1,2.671,2.74,1,4.886,1h60.229   C67.26,1,69,2.671,69,4.733V25.268z"/>
</g>
<path fill="#EE0000" d="M48.422,19.076c0,1.893-0.512,3.498-1.536,4.817c-1.152,1.419-2.697,2.127-4.636,2.127  c-1.939,0-3.487-0.733-4.639-2.201c-1.023-1.291-1.533-2.894-1.533-4.81c0-1.94,0.707-4.215,2.121-6.825l4.517-8.205h4.247  l-5.119,8.8c0.313-0.009,0.613-0.016,0.898-0.016C46.529,12.765,48.422,14.871,48.422,19.076z M44.697,19.035  c0-0.818-0.184-1.529-0.553-2.125c-0.447-0.721-1.079-1.082-1.895-1.082c-0.818,0-1.448,0.361-1.896,1.082  c-0.37,0.62-0.554,1.344-0.554,2.162c0,0.822,0.184,1.542,0.554,2.165c0.448,0.745,1.079,1.119,1.896,1.119  c0.814,0,1.447-0.387,1.895-1.155C44.514,20.603,44.697,19.881,44.697,19.035z"/>
</svg>
