<?xml version="1.0" encoding="UTF-8"?>
<!DOCTYPE svg PUBLIC "-//W3C//DTD SVG 1.1 Tiny//EN" "http://www.w3.org/Graphics/SVG/1.1/DTD/svg11-tiny.dtd">
<svg baseProfile="tiny" version="1.1" xmlns="http://www.w3.org/2000/svg" xmlns:xlink="http://www.w3.org/1999/xlink" width="16.25" height="30" viewBox="34.75 0 16.25 30">
<g>
<path fill="#EE0000" d="M70,26c0,2.209-1.791,4-4,4H4c-2.209,0-4-1.791-4-4V4c0-2.209,1.791-4,4-4h62c2.209,0,4,1.791,4,4V26z"/>
</g>
<g>
<path d="M69,25.268C69,27.328,67.26,29,65.113,29H4.886C2.74,29,1,27.328,1,25.268V4.733C1,2.671,2.74,1,4.886,1h60.229   C67.26,1,69,2.671,69,4.733V25.268z"/>
</g>
<path fill="#EE0000" d="M49.113,19.429c0,1.929-0.501,3.478-1.5,4.649c-1.104,1.27-2.643,1.902-4.612,1.902  c-1.974,0-3.513-0.634-4.615-1.902c-1-1.195-1.499-2.757-1.499-4.685c0-2.122,0.909-3.771,2.729-4.943  c-1.628-1.195-2.44-2.696-2.44-4.502c0-1.708,0.526-3.123,1.582-4.246s2.469-1.684,4.243-1.684c1.744,0,3.152,0.572,4.221,1.719  c1.069,1.147,1.604,2.55,1.604,4.21c0,1.832-0.814,3.344-2.443,4.54C48.203,15.658,49.113,17.306,49.113,19.429z M45.66,10.207  c0-0.805-0.231-1.511-0.694-2.119c-0.464-0.609-1.12-0.914-1.965-0.914c-0.849,0-1.503,0.305-1.967,0.914  c-0.463,0.609-0.695,1.315-0.695,2.119c0,0.778,0.245,1.473,0.735,2.082c0.489,0.609,1.144,0.913,1.965,0.913  c0.794,0,1.443-0.328,1.946-0.986C45.435,11.657,45.66,10.985,45.66,10.207z M45.66,19.285c0-0.854-0.204-1.601-0.617-2.235  c-0.487-0.708-1.169-1.063-2.042-1.063c-0.824,0-1.492,0.366-2.007,1.102c-0.438,0.635-0.655,1.367-0.655,2.197  c0,0.854,0.217,1.604,0.655,2.236c0.489,0.71,1.171,1.063,2.045,1.063c0.822,0,1.479-0.365,1.966-1.101  C45.441,20.85,45.66,20.117,45.66,19.285z"/>
</svg>
