<?xml version="1.0" encoding="UTF-8"?>
<!DOCTYPE svg PUBLIC "-//W3C//DTD SVG 1.1 Tiny//EN" "http://www.w3.org/Graphics/SVG/1.1/DTD/svg11-tiny.dtd">
<svg baseProfile="tiny" version="1.1" xmlns="http://www.w3.org/2000/svg" xmlns:xlink="http://www.w3.org/1999/xlink" width="17.25" height="30" viewBox="35.75 0 17.25 30">
<g>
<path fill="#EE0000" d="M70,26c0,2.209-1.791,4-4,4H4c-2.209,0-4-1.791-4-4V4c0-2.209,1.791-4,4-4h62c2.209,0,4,1.791,4,4V26z"/>
</g>
<g>
<path d="M69,25.268C69,27.328,67.26,29,65.113,29H4.886C2.74,29,1,27.328,1,25.268V4.733C1,2.671,2.74,1,4.886,1h60.229   C67.26,1,69,2.671,69,4.733V25.268z"/>
</g>
<path fill="#EE0000" d="M47.235,24.001L47.235,24.001c-0.876,1.688-2.056,1.985-3.809,1.985c-4.145,0.002-6.162-4.045-6.162-8.363  c0-4.199,2.045-8.095,6.082-8.095c1.62,0,3.011,0.933,3.889,2.473l0,0l0,0v-8h4v21.998h-4V24.001z M44.188,13.382  c-2.346,0-3.152,2.236-3.152,4.611c0,2.262,0.934,4.637,3.152,4.637c2.172,0,3.076-2.289,3.076-4.666  C47.265,15.619,46.287,13.382,44.188,13.382z"/>
</svg>
