<?xml version="1.0" encoding="UTF-8"?>
<!DOCTYPE svg PUBLIC "-//W3C//DTD SVG 1.1 Tiny//EN" "http://www.w3.org/Graphics/SVG/1.1/DTD/svg11-tiny.dtd">
<svg baseProfile="tiny" version="1.1" xmlns="http://www.w3.org/2000/svg" xmlns:xlink="http://www.w3.org/1999/xlink" width="21.25" height="30" viewBox="36.75 0 21.25 30">
<g>
<path fill="#EE0000" d="M70,26c0,2.209-1.791,4-4,4H4c-2.209,0-4-1.791-4-4V4c0-2.209,1.791-4,4-4h62c2.209,0,4,1.791,4,4V26z"/>
</g>
<g>
<path d="M69,25.268C69,27.328,67.26,29,65.113,29H4.886C2.74,29,1,27.328,1,25.268V4.733C1,2.671,2.74,1,4.886,1h60.229   C67.26,1,69,2.671,69,4.733V25.268z"/>
</g>
<path fill="#EE0000" d="M38.25,10.139h4v2l0,0c0.486-1.291,1.18-2.277,2.88-2.277c2.007,0,2.899,0.977,3.296,2.164  c0.566-1.282,1.729-2.164,3.367-2.164c2.865,0,4.457,1.665,4.457,5.277v11h-4v-10c0-1.964,0-2.852-1.426-2.852  c-1.172,0.001-1.574,0.624-1.574,2.852v10h-4l-0.008-10.751c0.008-1.249-0.241-2.1-1.477-2.1c-1.027,0-1.516,0.476-1.516,2.851v10  h-4V10.139z"/>
</svg>
