<?xml version="1.0" encoding="UTF-8"?>
<!DOCTYPE svg PUBLIC "-//W3C//DTD SVG 1.1 Tiny//EN" "http://www.w3.org/Graphics/SVG/1.1/DTD/svg11-tiny.dtd">
<svg baseProfile="tiny" version="1.1" xmlns="http://www.w3.org/2000/svg" xmlns:xlink="http://www.w3.org/1999/xlink" width="17" height="30" viewBox="39.5 0 17 30">
<g>
<path fill="#EE0000" d="M70,26c0,2.209-1.791,4-4,4H4c-2.209,0-4-1.791-4-4V4c0-2.209,1.791-4,4-4h62c2.209,0,4,1.791,4,4V26z"/>
</g>
<g>
<path d="M69,25.268C69,27.328,67.26,29,65.113,29H4.886C2.74,29,1,27.328,1,25.268V4.733C1,2.671,2.74,1,4.886,1h60.229   C67.26,1,69,2.671,69,4.733V25.268z"/>
</g>
<path fill="#EE0000" d="M49.304,24.616c-0.814,2.184-2.105,3.078-4.688,3.078c-0.764,0-1.525-0.053-2.291-0.131v-3.078  c0.713,0.052,1.449,0.184,2.188,0.131c1.29-0.104,1.686-1.474,1.29-2.552L41.008,9.306h4.003l3.081,9.313h0.054l2.976-9.313h3.871  L49.304,24.616z"/>
</svg>
