<?xml version="1.0" encoding="UTF-8" standalone="no"?>
<!DOCTYPE svg PUBLIC "-//W3C//DTD SVG 1.1 Tiny//EN" "http://www.w3.org/Graphics/SVG/1.1/DTD/svg11-tiny.dtd">
<svg xmlns="http://www.w3.org/2000/svg" xmlns:xlink="http://www.w3.org/1999/xlink" baseProfile="tiny" height="12" version="1.1" viewBox="0 0 32 12" width="32">
<g>
<g>
<path d="M1.811,0.811c-0.276,0-0.5,0.224-0.5,0.5v8.593c0,0.276,0.224,0.5,0.5,0.5h2.668    c0.652,0,1.178-0.094,1.61-0.285c0.436-0.193,0.813-0.486,1.12-0.868C7.506,8.882,7.75,8.387,7.936,7.779    c0.182-0.595,0.273-1.295,0.273-2.083c0-0.867-0.087-1.609-0.259-2.208c-0.178-0.616-0.431-1.131-0.753-1.53    c-0.331-0.41-0.704-0.708-1.109-0.886C5.687,0.896,5.136,0.811,4.403,0.811H1.811z M3.875,3.264l1.026,0.061    C5.07,3.367,5.207,3.452,5.324,3.585c0.13,0.148,0.231,0.369,0.299,0.654c0,0.001,0.118,1.389,0.118,1.389L5.625,6.999    c0,0-0.237,0.635-0.237,0.635L5.092,7.861l-0.796,0.09c0,0-0.283,0-0.563,0c0-0.752,0-3.936,0-4.687    C3.782,3.264,3.875,3.264,3.875,3.264z" fill="#FFFFFF"/>
<path d="M4.403,0.312H1.811c-0.552,0-1,0.448-1,1v8.593c0,0.553,0.448,1,1,1h2.668c0.722,0,1.315-0.106,1.813-0.328    c0.51-0.227,0.95-0.567,1.308-1.014c0.339-0.421,0.606-0.957,0.814-1.636c0.196-0.645,0.295-1.395,0.295-2.23    c0-0.928-0.091-1.695-0.279-2.347c-0.196-0.68-0.48-1.253-0.843-1.704c-0.385-0.475-0.822-0.821-1.3-1.03    c0.001,0,0.002,0.001,0.003,0.001C5.825,0.412,5.207,0.312,4.403,0.312L4.403,0.312z M1.811,1.312h2.592    c0.655,0,1.15,0.073,1.483,0.22C6.22,1.678,6.527,1.926,6.808,2.272c0.28,0.348,0.501,0.8,0.661,1.354    c0.16,0.555,0.24,1.245,0.24,2.07l0,0l0,0c0,0.742-0.084,1.388-0.251,1.937C7.29,8.182,7.077,8.617,6.819,8.938    C6.562,9.259,6.251,9.501,5.886,9.663C5.521,9.824,5.052,9.904,4.479,9.904H1.811V1.312L1.811,1.312L1.811,1.312z M3.875,2.765    H3.232v1l0,0l0,0v3.687l0,0l0,0v1h1l0,0l0,0h0.063c0.456,0,0.786-0.043,0.99-0.129C5.49,8.236,5.657,8.107,5.788,7.934    c0.13-0.173,0.238-0.448,0.324-0.823C6.197,6.735,6.24,6.243,6.24,5.629c0-0.636-0.044-1.138-0.131-1.505    C6.021,3.757,5.885,3.468,5.7,3.257C5.515,3.046,5.29,2.908,5.025,2.841C4.827,2.79,4.443,2.765,3.875,2.765L3.875,2.765z     M4.232,7.451V3.769c0.406,0.011,0.53,0.037,0.545,0.041c0.072,0.018,0.12,0.049,0.171,0.106c0.043,0.049,0.124,0.171,0.189,0.441    C5.183,4.555,5.24,4.938,5.24,5.629c0,0.534-0.035,0.959-0.103,1.261C5.059,7.228,4.99,7.331,4.987,7.335    C4.969,7.359,4.946,7.381,4.898,7.4C4.895,7.401,4.751,7.451,4.295,7.451H4.232L4.232,7.451z"/>
</g>
<g>
<path d="M8.92,0.811c-0.276,0-0.5,0.224-0.5,0.5v8.593c0,0.276,0.224,0.5,0.5,0.5h5.359c0.276,0,0.5-0.224,0.5-0.5    V8.451c0-0.276-0.224-0.5-0.5-0.5c0,0-2.675,0-3.438,0c0-0.449,0-0.886,0-1.336c0.737,0,3.031,0,3.031,0    c0.276,0,0.5-0.223,0.5-0.5V4.67c0-0.276-0.224-0.5-0.5-0.5c0,0-2.294,0-3.031,0c0-0.351,0-0.556,0-0.906c0.754,0,3.305,0,3.305,0    c0.276,0,0.5-0.224,0.5-0.5V1.311c0-0.276-0.224-0.5-0.5-0.5H8.92z" fill="#FFFFFF"/>
<path d="M14.146,0.312H8.92c-0.552,0-1,0.448-1,1v8.593c0,0.553,0.448,1,1,1h5.359c0.552,0,1-0.447,1-1V8.451c0-0.552-0.448-1-1-1    h-2.937V7.116h2.531c0.552,0,1-0.447,1-1V4.671c0-0.408-0.245-0.759-0.596-0.915c0.49-0.064,0.869-0.484,0.869-0.991V1.312    C15.146,0.76,14.698,0.312,14.146,0.312L14.146,0.312z M8.92,1.312h5.226v1.453l0,0l0,0h-3.804v0.906l0,0l0,0v0.094l0,0l0,0v0.906    h1l0,0l0,0h2.531v1.446l0,0l0,0h-3.531v1l0,0l0,0v0.335l0,0l0,0v1h1l0,0l0,0h2.937v1.453l0,0l0,0H8.92V1.312L8.92,1.312    L8.92,1.312z"/>
</g>
<g>
<path d="M20.117,0.811c-0.236,0-0.439,0.165-0.489,0.396c0,0-0.404,1.89-0.77,3.597    c-0.369-1.707-0.778-3.598-0.778-3.598c-0.05-0.23-0.253-0.395-0.488-0.395h-2.132c-0.276,0-0.5,0.224-0.5,0.5v8.593    c0,0.276,0.224,0.5,0.5,0.5h1.328c0.276,0,0.5-0.224,0.5-0.5c0,0,0-1.111,0-1.838c0.162,0.792,0.396,1.938,0.396,1.938    c0.048,0.232,0.253,0.399,0.49,0.399h1.369c0.237,0,0.442-0.167,0.49-0.399c0,0,0.236-1.153,0.402-1.959c0,0.74,0,1.858,0,1.858    c0,0.276,0.224,0.5,0.5,0.5h1.328c0.276,0,0.5-0.224,0.5-0.5V1.311c0-0.276-0.224-0.5-0.5-0.5H20.117z" fill="#FFFFFF"/>
<path d="M22.263,0.312h-2.146c-0.473,0-0.879,0.33-0.979,0.791l-0.283,1.326l-0.287-1.328c-0.1-0.461-0.506-0.789-0.978-0.789    h-2.132c-0.552,0-1,0.448-1,1v8.593c0,0.553,0.448,1,1,1h1.328c0.269,0,0.513-0.106,0.692-0.279    c0.182,0.175,0.427,0.279,0.693,0.279h1.369c0.269,0,0.515-0.106,0.696-0.282c0.181,0.175,0.426,0.282,0.696,0.282h1.328    c0.553,0,1-0.447,1-1V1.312C23.263,0.76,22.815,0.312,22.263,0.312L22.263,0.312z M19.369,4.805l0.748-3.494h2.146v8.593l0,0l0,0    h-1.328V3.133l-1.393,6.771h-1.369l-1.386-6.771v1l0,0v3.989l0,0v1.782l0,0l0,0h-1.328V1.312l0,0l0,0h2.132l0.756,3.494l0,0    l0.303,1.399l0,0l0.212,0.977l0.209-0.978l0,0L19.369,4.805L19.369,4.805L19.369,4.805z"/>
</g>
<g>
<path d="M24.755,1.233c-0.565,0.376-1.025,0.945-1.365,1.69c-0.331,0.725-0.499,1.646-0.499,2.738    c0,1.525,0.378,2.753,1.124,3.651c0.688,0.824,1.629,1.241,2.8,1.241c1.164,0,2.103-0.422,2.789-1.254    c0.745-0.896,1.123-2.139,1.123-3.691c0-1.536-0.359-2.75-1.067-3.608c-0.731-0.887-1.69-1.337-2.851-1.337    C26.016,0.663,25.324,0.854,24.755,1.233z M25.82,7.525c-0.306-0.404-0.461-1.051-0.461-1.923c0-0.893,0.149-1.542,0.444-1.933    c0.269-0.356,0.591-0.522,1.014-0.522c0.421,0,0.74,0.164,1.005,0.516c0.289,0.386,0.436,1.029,0.436,1.91    c0,0.9-0.151,1.56-0.451,1.96c-0.273,0.365-0.588,0.535-0.989,0.535C26.418,8.068,26.102,7.896,25.82,7.525z" fill="#FFFFFF"/>
<path d="M26.808,0.163c-0.892,0-1.676,0.22-2.329,0.654c-0.645,0.429-1.164,1.067-1.545,1.898    c-0.36,0.791-0.544,1.782-0.544,2.946c0,1.645,0.417,2.981,1.24,3.971c0.788,0.943,1.859,1.422,3.185,1.422    c1.301,0,2.398-0.497,3.174-1.438c0.82-0.985,1.237-2.335,1.237-4.008c0-1.656-0.397-2.977-1.182-3.927v0.001    C29.225,0.688,28.105,0.163,26.808,0.163L26.808,0.163z M23.39,5.661c0-1.024,0.151-1.867,0.454-2.53    c0.304-0.663,0.699-1.156,1.188-1.481c0.487-0.324,1.081-0.487,1.775-0.487c1.009,0,1.83,0.386,2.466,1.156    s0.952,1.867,0.952,3.29l0,0l0,0c0,1.439-0.336,2.563-1.009,3.372c-0.59,0.715-1.391,1.073-2.402,1.073    c-1.021,0-1.825-0.354-2.415-1.062C23.726,8.183,23.39,7.072,23.39,5.661L23.39,5.661L23.39,5.661z M26.817,2.647    c-0.578,0-1.051,0.24-1.413,0.721c-0.363,0.481-0.545,1.226-0.545,2.234c0,0.99,0.187,1.73,0.562,2.226    c0.375,0.494,0.841,0.74,1.396,0.74c0.558,0,1.021-0.244,1.39-0.734c0.367-0.491,0.55-1.243,0.55-2.26    c0-0.997-0.178-1.734-0.536-2.211C27.863,2.886,27.395,2.647,26.817,2.647L26.817,2.647z M26.817,7.568    c-0.176,0-0.369-0.042-0.6-0.345c-0.164-0.216-0.358-0.673-0.358-1.621c0-1.024,0.215-1.462,0.343-1.632    c0.174-0.229,0.352-0.323,0.615-0.323c0.265,0,0.434,0.088,0.604,0.315c0.126,0.167,0.336,0.599,0.336,1.611    c0,0.985-0.19,1.447-0.351,1.661l0,0C27.186,7.527,26.992,7.568,26.817,7.568L26.817,7.568z M27.407,7.233    C27.407,7.233,27.407,7.233,27.407,7.233C27.408,7.233,27.407,7.233,27.407,7.233L27.407,7.233z"/>
</g>
</g>
</svg>
