<?xml version="1.0" encoding="UTF-8"?>
<!DOCTYPE svg PUBLIC "-//W3C//DTD SVG 1.1 Tiny//EN" "http://www.w3.org/Graphics/SVG/1.1/DTD/svg11-tiny.dtd">
<svg baseProfile="tiny" version="1.1" xmlns="http://www.w3.org/2000/svg" xmlns:xlink="http://www.w3.org/1999/xlink" width="32" height="12" viewBox="0 0 32 12">
<rect fill="#E1E1E1" width="32" height="12"/>
<g>
<path fill="#006EAF" d="M1,0.918h2.639c0.52,0,0.94,0.102,1.261,0.305c0.32,0.203,0.584,0.495,0.793,0.875   c0.209,0.381,0.361,0.824,0.456,1.328C6.242,3.931,6.29,4.465,6.29,5.029c0,0.885-0.07,1.571-0.21,2.059S5.747,7.983,5.498,8.312   C5.25,8.644,4.983,8.861,4.697,8.971C4.309,9.123,3.955,9.197,3.639,9.197H1V0.918z M2.777,2.792v4.523h0.436   c0.372,0,0.636-0.06,0.792-0.178c0.157-0.118,0.28-0.326,0.369-0.621C4.463,6.22,4.508,5.742,4.508,5.08   c0-0.878-0.1-1.478-0.299-1.802C4.011,2.954,3.681,2.792,3.22,2.792H2.777z"/>
<path fill="#006EAF" d="M7.219,0.918h4.762v1.769H9v1.317h2.761V5.69H9v1.633h3.063v1.874H7.219V0.918z"/>
<path fill="#006EAF" d="M13.001,0.918h2.336l0.899,5.039l0.897-5.039h2.332v8.279h-1.453V2.886l-1.122,6.311h-1.316l-1.121-6.311   v6.311h-1.453V0.918z"/>
<path fill="#006EAF" d="M20.377,5.063c0-1.352,0.26-2.404,0.782-3.158c0.524-0.753,1.252-1.129,2.187-1.129   c0.956,0,1.694,0.37,2.212,1.11c0.519,0.74,0.776,1.777,0.776,3.11c0,0.968-0.113,1.761-0.34,2.38   c-0.226,0.62-0.553,1.104-0.98,1.447c-0.428,0.345-0.96,0.518-1.599,0.518c-0.648,0-1.186-0.15-1.61-0.446   c-0.426-0.299-0.77-0.768-1.033-1.413C20.506,6.838,20.377,6.031,20.377,5.063z M22.151,5.074c0,0.838,0.108,1.439,0.324,1.805   c0.216,0.367,0.51,0.55,0.881,0.55c0.382,0,0.678-0.179,0.887-0.539c0.209-0.358,0.313-1,0.313-1.928   c0-0.781-0.109-1.352-0.328-1.713c-0.218-0.359-0.515-0.54-0.887-0.54c-0.359,0-0.647,0.183-0.864,0.549   C22.262,3.624,22.151,4.23,22.151,5.074z"/>
</g>
<g>
<path d="M26.918,8.727l0.859-0.141c0.18,1.13,0.637,1.695,1.371,1.695c0.396,0,0.738-0.167,1.029-0.502   c0.289-0.334,0.436-0.768,0.436-1.3c0-0.501-0.133-0.904-0.398-1.209c-0.266-0.306-0.592-0.458-0.979-0.458   c-0.162,0-0.365,0.039-0.607,0.117L28.73,6l0.135,0.012c0.428,0,0.775-0.131,1.043-0.392c0.266-0.261,0.4-0.609,0.4-1.046   c0-0.401-0.113-0.724-0.338-0.967s-0.498-0.365-0.82-0.365c-0.334,0-0.617,0.128-0.848,0.384s-0.377,0.644-0.439,1.163   l-0.859-0.188c0.109-0.734,0.355-1.289,0.74-1.664c0.383-0.375,0.848-0.563,1.391-0.563c0.572,0,1.059,0.211,1.457,0.633   c0.4,0.422,0.6,0.952,0.6,1.593c0,0.391-0.084,0.736-0.254,1.036c-0.168,0.301-0.404,0.537-0.705,0.709   c0.279,0.078,0.51,0.207,0.691,0.387s0.33,0.42,0.441,0.721c0.113,0.301,0.17,0.637,0.17,1.007c0,0.789-0.232,1.435-0.699,1.936   c-0.465,0.502-1.021,0.753-1.672,0.753c-0.602,0-1.113-0.219-1.531-0.656C27.215,10.054,26.977,9.466,26.918,8.727z"/>
</g>
</svg>
