<?xml version="1.0" encoding="UTF-8"?>
<!DOCTYPE svg PUBLIC "-//W3C//DTD SVG 1.1 Tiny//EN" "http://www.w3.org/Graphics/SVG/1.1/DTD/svg11-tiny.dtd">
<svg baseProfile="tiny" version="1.1" xmlns="http://www.w3.org/2000/svg" xmlns:xlink="http://www.w3.org/1999/xlink" width="493.123" height="407.6" viewBox="0 0 493.123 407.6">
<g>
<path fill="#232D58" d="M113.234,210.635c-0.046-3.98-0.071-3.98-0.058,0c0,0,0.313,106.945,41.938,153.573   c127.885,143.249,252.625-114.062,252.625-114.062c1.676-3.425,6.195-4.798,10.064-3.06l6.701,2.985   c3.885,1.716,6.27-0.119,5.306-4.097l-25.109-88.792c-0.942-3.954-4.483-5.739-7.86-3.884l-65.382,41.495   c-3.365,1.834-3.148,5.185,0.481,7.448l10.332,6.342c3.627,2.267,5.459,7.014,4.061,10.581c0,0-67.442,171.775-149.51,148.25   C114.742,343.91,113.234,210.635,113.234,210.635z"/>
<path fill="url(#XMLID_2_)" d="M108.282,207.331c-0.047-3.954-0.074-3.954-0.061,0c0,0,0.302,106.945,41.936,153.573   c127.887,143.254,252.624-114.059,252.624-114.059c1.664-3.422,6.2-4.799,10.067-3.086l6.704,2.989   c3.87,1.738,6.269-0.098,5.306-4.072l-20.544-85.444c-0.951-3.978-4.497-5.713-7.859-3.879l-69.951,38.139   c-3.362,1.832-3.16,5.183,0.496,7.425l10.303,6.364c3.642,2.243,5.474,7.017,4.075,10.584c0,0-67.457,171.777-149.51,148.247   C109.788,340.604,108.282,207.331,108.282,207.331z"/>
<path fill="#232D58" d="M492.024,140.019c-11.5-31.97-64.698-49.762-136.083-50.531c1.313-27.582-4.426-54.56-24.799-71.846   c-29.314-24.881-75.292-19.674-101.291-7.377c-45.471,21.552-72.025,79.63-84.997,117.434   C48.07,163.525-12.757,216.589,2.274,258.393c15.226,42.285,103.982,59.767,210.735,45.904l2.258,7.858   c1.144,3.978,4.097,4.893,6.569,2.004l49.614-57.892c2.471-2.866,1.195-6.146-2.82-7.203l-60.993-16.563   c-4.017-1.088-6.825,1.324-6.259,5.354l2.351,16.418c-89.205,13.449-161.312,4.576-171.643-24.161   c-9.5-26.396,36.006-61.957,108.6-89.563c-3.992,13.163-5.813,21.723-5.813,21.723c-0.877,3.787-4.904,6.97-8.945,7.064h-0.939   c-4.049,0.121-5.519,3.11-3.266,6.727l32.752,52.363c2.242,3.568,6.16,4.222,8.689,1.4l42.988-47.735   c2.518-2.824,1.264-5.838-2.796-6.727l-5.002-1.038c-4.064-0.869-6.729-4.677-5.885-8.461c0,0,4.75-20.637,14.634-46.146   c2.821-0.724,5.641-1.446,8.498-2.121c36.271-8.775,86.951-14.441,134.167-13.405c-2.87,36.453-16.239,71.675-16.239,71.675   c7.545-15.985,17.336-43.18,21.06-71.531c60.747,1.929,114.65,15.333,122.979,48.122c5.127,20.249-19.635,57.065-19.635,57.065   c-2.22,3.061-4.052,5.594-4.052,5.594c-0.023,0,2.037-2.317,4.569-5.137C458.452,209.982,500.368,163.21,492.024,140.019z    M213.901,106.773c-0.555,0.169-1.107,0.288-1.675,0.409c18.916-43.637,51.75-93.59,100.27-80.331   c28.751,7.86,37.5,34.209,37.806,62.612C309.086,89.534,262.193,95.128,213.901,106.773z"/>
<defs>
<linearGradient id="XMLID_2_" gradientUnits="userSpaceOnUse" x1="2204.7148" y1="264.8696" x2="2521.5684" y2="264.8696" gradientTransform="matrix(1 0 0 1 -2096.4971 13.5908)">
<stop offset="0" style="stop-color:#FFFFFF"/>
<stop offset="1" style="stop-color:#0072B4"/>
</linearGradient>
</defs>
</g>
</svg>
