<?xml version="1.0" encoding="utf-8"?>
<!-- Generator: Adobe Illustrator 12.0.1, SVG Export Plug-In  -->
<!DOCTYPE svg PUBLIC "-//W3C//DTD SVG 1.1 Tiny//EN" "http://www.w3.org/Graphics/SVG/1.1/DTD/svg11-tiny.dtd" [
	<!ENTITY ns_flows "http://ns.adobe.com/Flows/1.0/">
	<!ENTITY ns_svg "http://www.w3.org/2000/svg">
	<!ENTITY ns_xlink "http://www.w3.org/1999/xlink">
]>
<svg  version="1.1" baseProfile="tiny"
	 xmlns="&ns_svg;" xmlns:xlink="&ns_xlink;" xmlns:a="http://ns.adobe.com/AdobeSVGViewerExtensions/3.0/" width="279" height="279"
	 viewBox="-0.002 2.005 279 279" xml:space="preserve">
<defs>
</defs>
<path fill="#993333" d="M277.049,138.97L243,166.52c1.488-7.16,2.41-15.41,2.568-24.22c0.021-0.89,0.03-1.791,0.03-2.701
	c0-0.03,0-0.05,0-0.08v-0.06c0-0.16,0-0.33,0-0.49H277.049z"/>
<path fill="#DB2323" d="M277.049,138.97H245.6c-0.02-5.39-0.33-10.6-0.87-15.5c-0.438-3.86-1.021-7.51-1.729-10.93L277.049,138.97z"
	/>
<path fill="#231F20" d="M245.6,138.97c0,0.16,0,0.33,0,0.49l-0.01-0.49H245.6z"/>
<path d="M245.6,139.521c0,0.03,0,0.05,0,0.08c0,0.9-0.01,1.8-0.03,2.699c-1.42,55.82-45.938,100.92-101.54,103.24
	c-0.119,0.01-0.229,0.021-0.35,0.01c-1.189,0.041-2.391,0.051-3.6,0.061v-0.01l-0.55,0.01c-1.23,0-2.46-0.01-3.67-0.04
	c-0.15,0-0.3,0-0.45-0.01c-55.77-2.12-100.52-47.3-101.94-103.261c-0.01-0.739-0.03-1.469-0.02-2.209l-0.01-0.51v-0.05
	c0.01-38.88,20.92-72.85,52.1-91.32c6.84-4.05,14.15-7.34,21.87-9.79c10.14-3.21,20.93-4.95,32.1-4.95c19.72,0,38.18,5.38,54,14.75
	c31.039,18.38,51.88,52.13,52.08,90.75l0.01,0.49V139.521L245.6,139.521z"/>
<path fill="#DB2323" d="M224.72,205.64l2.69,21.381l-11.121-11.12c1.899-1.91,3.631-3.86,5.17-5.79
	C222.67,208.601,223.76,207.101,224.72,205.64z"/>
<path fill="#9E3333" d="M227.411,227.021l-21.779-2.301c3.38-2.209,6.979-5.139,10.47-8.619l0.19-0.2L227.411,227.021z"/>
<path fill="#993333" d="M227.01,51.641l-2.29,21.78c-2.21-3.38-5.14-6.98-8.63-10.47l-0.19-0.19L227.01,51.641z"/>
<path fill="#DB2323" d="M227.01,51.641l-11.11,11.12h-0.01c-1.91-1.9-3.86-3.63-5.78-5.17c-1.52-1.21-3.02-2.3-4.479-3.26
	L227.01,51.641z"/>
<path fill="#993333" d="M138.96,2.001l27.55,34.05c-7.91-1.65-17.141-2.6-26.99-2.6h-0.01c-0.18,0-0.37,0-0.55,0V2.001z"/>
<path fill="#DB2323" d="M166.51,243.009l-26.43,34.041v-31.42c1.209,0,2.41-0.021,3.6-0.08c0.119,0.01,0.23,0,0.35-0.01
	c3.99-0.121,7.86-0.391,11.551-0.811C159.44,244.3,163.09,243.72,166.51,243.009z"/>
<path fill="#FFFFFF" d="M143.68,245.55c-1.189,0.06-2.391,0.08-3.6,0.08v-0.021C141.29,245.601,142.491,245.589,143.68,245.55z"/>
<path fill="#993333" d="M140.081,245.63v31.42L112.53,243c6.8,1.43,14.57,2.33,22.88,2.561c0.15,0.01,0.3,0.01,0.45,0.01
	c1.21,0.051,2.43,0.07,3.65,0.07C139.7,245.64,139.89,245.64,140.081,245.63z"/>
<path fill="#231F20" d="M140.081,245.61v0.021c-0.19,0.01-0.38,0.01-0.57,0.01c-1.22,0-2.44-0.02-3.65-0.07
	c1.21,0.029,2.44,0.04,3.67,0.04C139.71,245.61,139.9,245.61,140.081,245.61z"/>
<path fill="#231F20" d="M140.081,245.601v0.01c-0.181,0-0.371,0-0.55,0L140.081,245.601z"/>
<path fill="#231F20" d="M139.51,33.45l-0.55,0.01v-0.01C139.14,33.45,139.33,33.45,139.51,33.45z"/>
<path fill="#DB2323" d="M138.96,2.001v31.45c-5.39,0.02-10.6,0.32-15.5,0.87c-3.85,0.44-7.51,1.02-10.93,1.73L138.96,2.001z"/>
<path fill="#993333" d="M51.64,52.041l21.77,2.29c-0.84,0.55-1.7,1.15-2.57,1.79c-1.3,0.96-2.62,2.02-3.94,3.16
	c-1.32,1.14-2.65,2.37-3.95,3.68l-0.19,0.2L51.64,52.041z"/>
<path fill="#DB2323" d="M73.41,224.72l-21.38,2.699l11.12-11.129c1.91,1.909,3.86,3.639,5.79,5.18
	C70.45,222.679,71.95,223.771,73.41,224.72z"/>
<path fill="#231F20" d="M70.84,56.121c0.87-0.64,1.73-1.24,2.57-1.79C72.57,54.88,71.71,55.481,70.84,56.121z"/>
<path fill="#231F20" d="M66.9,59.28c1.32-1.14,2.64-2.2,3.94-3.16C69.54,57.081,68.22,58.141,66.9,59.28z"/>
<path fill="#993333" d="M63.15,216.291l-11.12,11.131l2.3-21.781c2.21,3.381,5.14,6.98,8.62,10.461L63.15,216.291z"/>
<path fill="#DB2323" d="M51.64,52.041l11.12,11.12c-1.91,1.91-3.64,3.86-5.18,5.78c-1.21,1.52-2.3,3.02-3.25,4.48L51.64,52.041z"/>
<path fill="#231F20" d="M36.04,112.541h0.01c-0.31,1.48-0.6,3.02-0.86,4.59c0.25-1.57,0.54-3.1,0.85-4.58V112.541z"/>
<polygon fill="#FFFFFF" points="36.04,112.541 36.04,112.55 2,140.09 "/>
<path fill="#993333" d="M2,140.09l34.04-27.54c-0.31,1.48-0.6,3.01-0.85,4.58c-1.12,6.8-1.75,14.4-1.75,22.4v0.05
	c0,0.17,0,0.34,0,0.51H2z"/>
<path fill="#DB2323" d="M36.04,166.521L2,140.091h31.44c0,0.74,0.01,1.48,0.03,2.209c0.08,4.611,0.37,9.061,0.85,13.291
	C34.75,159.441,35.33,163.101,36.04,166.521z"/>
<path fill="#231F20" d="M33.44,139.581l0.01,0.51h-0.01C33.44,139.921,33.44,139.751,33.44,139.581z"/>
<path fill="none" stroke="#231F20" stroke-width="4" stroke-linecap="round" stroke-linejoin="round" d="M143.68,245.55
	c-1.189,0.039-2.391,0.049-3.6,0.06"/>
<path fill="none" stroke="#231F20" stroke-width="4" stroke-linecap="round" stroke-linejoin="round" d="M140.081,277.05
	l26.43-34.041c-3.42,0.711-7.07,1.291-10.93,1.721c-3.69,0.42-7.561,0.689-11.551,0.811"/>
<path fill="none" stroke="#231F20" stroke-width="4" stroke-linecap="round" stroke-linejoin="round" d="M135.41,245.561
	c-8.31-0.229-16.08-1.13-22.88-2.56l27.55,34.049v-31.42v-0.02v-0.01l-0.55,0.01c-1.23,0-2.46-0.01-3.67-0.04"/>
<path fill="none" stroke="#231F20" stroke-width="6.0297" d="M245.6,139.601c0,0.9-0.01,1.8-0.03,2.699
	c-1.42,55.82-45.938,100.92-101.54,103.24c-0.119,0.01-0.229,0.021-0.35,0.01c-1.189,0.061-2.391,0.08-3.6,0.08
	c-0.19,0.01-0.38,0.01-0.57,0.01c-1.22,0-2.44-0.02-3.65-0.069c-0.15,0-0.3,0-0.45-0.01c-55.77-2.12-100.52-47.3-101.94-103.261
	c-0.01-0.739-0.03-1.469-0.02-2.209"/>
<path fill="none" stroke="#231F20" stroke-width="6.0297" d="M33.44,139.53c0.01-38.88,20.92-72.85,52.1-91.32
	c6.84-4.05,14.15-7.34,21.87-9.79c10.14-3.21,20.93-4.95,32.1-4.95c19.72,0,38.18,5.38,54,14.75
	c31.039,18.38,51.88,52.13,52.08,90.75"/>
<path fill="none" stroke="#231F20" stroke-width="4" stroke-linecap="round" stroke-linejoin="round" d="M138.96,2.001l-26.43,34.05
	c3.42-0.71,7.08-1.29,10.93-1.73c4.9-0.55,10.11-0.85,15.5-0.87"/>
<path fill="none" stroke="#231F20" stroke-width="4" stroke-linecap="round" stroke-linejoin="round" d="M139.51,33.45h0.01
	c9.85,0,19.08,0.95,26.99,2.6L138.96,2v31.45v0.01L139.51,33.45z"/>
<path fill="none" stroke="#231F20" stroke-width="4" stroke-linecap="round" stroke-linejoin="round" d="M215.9,62.76l0.19,0.19
	c3.49,3.49,6.42,7.09,8.63,10.47l2.29-21.78c0,0-11.11,11.12,0,0l-21.381,2.69c1.461,0.96,2.961,2.05,4.479,3.26
	c1.92,1.54,3.87,3.27,5.78,5.17H215.9z"/>
<path fill="none" stroke="#231F20" stroke-width="4" stroke-linecap="round" stroke-linejoin="round" d="M52.03,227.421l21.38-2.701
	c-1.46-0.949-2.96-2.039-4.47-3.25c-1.93-1.539-3.88-3.27-5.79-5.18"/>
<path fill="none" stroke="#231F20" stroke-width="4" stroke-linecap="round" stroke-linejoin="round" d="M63.15,216.291l-0.2-0.189
	c-3.48-3.48-6.41-7.08-8.62-10.461l-2.3,21.781L63.15,216.291z"/>
<path fill="none" stroke="#231F20" stroke-width="4" stroke-linecap="round" stroke-linejoin="round" d="M51.64,52.041l2.69,21.38
	c0.95-1.46,2.04-2.96,3.25-4.48c1.54-1.92,3.27-3.87,5.18-5.78"/>
<path fill="none" stroke="#231F20" stroke-width="4" stroke-linecap="round" stroke-linejoin="round" d="M62.76,63.16l0.19-0.2
	c1.3-1.31,2.63-2.54,3.95-3.68c1.32-1.14,2.64-2.2,3.94-3.16c0.87-0.64,1.73-1.24,2.57-1.79l-21.77-2.29L62.76,63.16z"/>
<path fill="none" stroke="#231F20" stroke-width="4" stroke-linecap="round" stroke-linejoin="round" d="M227.411,227.021
	l-2.689-21.381c-0.96,1.461-2.051,2.961-3.26,4.471c-1.541,1.93-3.271,3.88-5.17,5.79"/>
<path fill="none" stroke="#231F20" stroke-width="4" stroke-linecap="round" stroke-linejoin="round" d="M216.29,215.901l-0.189,0.2
	c-3.49,3.48-7.09,6.41-10.471,8.619l21.781,2.301L216.29,215.901z"/>
<path fill="none" stroke="#231F20" stroke-width="4" stroke-linecap="round" stroke-linejoin="round" d="M36.04,112.541L2,140.091
	l34.04,26.43c-0.71-3.42-1.29-7.08-1.72-10.93c-0.48-4.23-0.77-8.68-0.85-13.291c-0.02-0.729-0.03-1.469-0.03-2.209"/>
<path fill="none" stroke="#231F20" stroke-width="4" stroke-linecap="round" stroke-linejoin="round" d="M33.44,139.53
	c0-8,0.63-15.6,1.75-22.4c0.26-1.57,0.55-3.11,0.86-4.59h-0.01v0.01L2,140.09h31.44h0.01l-0.01-0.51V139.53z"/>
<path fill="none" stroke="#231F20" stroke-width="4" stroke-linecap="round" stroke-linejoin="round" d="M277.049,138.97L243,112.54
	c0.709,3.42,1.289,7.07,1.729,10.93c0.54,4.9,0.852,10.11,0.87,15.5"/>
<path fill="none" stroke="#231F20" stroke-width="4" stroke-linecap="round" stroke-linejoin="round" d="M245.6,139.461v0.06
	c0,0.03,0,0.05,0,0.08c0,0.91-0.01,1.81-0.03,2.699c-0.159,8.811-1.079,17.061-2.569,24.221l34.051-27.55h-31.45h-0.011
	L245.6,139.461z"/>
</svg>
