<?xml version="1.0" encoding="utf-8"?>
<!-- Generator: Adobe Illustrator 15.0.0, SVG Export Plug-In . SVG Version: 6.00 Build 0)  -->
<!DOCTYPE svg PUBLIC "-//W3C//DTD SVG 1.1//EN" "http://www.w3.org/Graphics/SVG/1.1/DTD/svg11.dtd">
<svg version="1.1" id="Layer_1" xmlns="http://www.w3.org/2000/svg" xmlns:xlink="http://www.w3.org/1999/xlink" x="0px" y="0px"
	 width="200px" height="200px" viewBox="0 0 200 200" enable-background="new 0 0 200 200" xml:space="preserve">
<g>
	<path fill="#166891" d="M99.973,51.956c0,0-5.183,8.987-13.536,10.745c-8.35,1.758-16.716-4.378-16.716-4.378
		s5.181-8.987,13.533-10.747C91.605,45.819,99.973,51.956,99.973,51.956z"/>
	<circle fill="#005C87" cx="88.284" cy="54.414" r="5.384"/>
	<path fill="#166891" d="M99.973,51.956c0,0,8.98,5.18,10.74,13.534c1.76,8.35-4.377,16.713-4.377,16.713S97.35,77.024,95.59,68.671
		C93.833,60.318,99.973,51.956,99.973,51.956z"/>
	<circle fill="#005C87" cx="102.428" cy="63.64" r="5.385"/>
	<path fill="#166891" d="M99.973,51.956c0,0,5.177-8.987,13.529-10.744c8.351-1.758,16.718,4.378,16.718,4.378
		s-5.18,8.985-13.536,10.744C108.334,58.094,99.973,51.956,99.973,51.956z"/>
	<path fill="#005C87" d="M106.386,50.605c-0.614-2.91,1.251-5.765,4.158-6.378c2.911-0.61,5.767,1.251,6.384,4.16
		c0.608,2.909-1.257,5.765-4.167,6.377C109.85,55.378,106.994,53.515,106.386,50.605z"/>
	<path fill="#166891" d="M99.973,51.956c0,0-8.993-5.181-10.748-13.533c-1.758-8.35,4.381-16.716,4.381-16.716
		s8.984,5.181,10.744,13.534C106.109,43.593,99.973,51.956,99.973,51.956z"/>
	<circle fill="#005C87" cx="97.511" cy="40.271" r="5.384"/>
	<path fill="#A3DBFF" d="M99.973,51.956c0,0-10.021,2.692-17.168-1.97c-7.148-4.663-8.724-14.917-8.724-14.917
		s10.016-2.691,17.165,1.971C98.396,41.703,99.973,51.956,99.973,51.956z"/>
	<path fill="#FFFFFF" d="M92.862,47.32c-2.103,3.225-6.419,4.132-9.644,2.029c-3.226-2.104-4.135-6.422-2.028-9.645
		c2.101-3.224,6.419-4.131,9.641-2.028C94.057,39.777,94.964,44.095,92.862,47.32z"/>
	<path fill="#A3DBFF" d="M99.973,51.956c0,0,2.689,10.019-1.976,17.166c-4.662,7.149-14.915,8.725-14.915,8.725
		s-2.692-10.02,1.972-17.168C89.719,53.528,99.973,51.956,99.973,51.956z"/>
	<path fill="#FFFFFF" d="M95.33,59.063c3.226,2.104,4.136,6.422,2.031,9.646c-2.097,3.225-6.417,4.132-9.642,2.031
		c-3.224-2.104-4.132-6.422-2.03-9.647C87.793,57.87,92.112,56.962,95.33,59.063z"/>
	<path fill="#A3DBFF" d="M99.973,51.956c0,0,10.016-2.693,17.165,1.971c7.149,4.664,8.721,14.916,8.721,14.916
		s-10.019,2.691-17.165-1.97C101.544,62.211,99.973,51.956,99.973,51.956z"/>
	<path fill="#FFFFFF" d="M107.077,56.591c2.104-3.223,6.425-4.132,9.643-2.029c3.227,2.104,4.137,6.422,2.034,9.646
		c-2.104,3.221-6.425,4.129-9.648,2.028C105.885,64.135,104.975,59.817,107.077,56.591z"/>
	<path fill="#A3DBFF" d="M99.973,51.956c0,0-2.695-10.017,1.97-17.166c4.659-7.149,14.913-8.724,14.913-8.724
		s2.692,10.019-1.97,17.167C110.227,50.383,99.973,51.956,99.973,51.956z"/>
	<path fill="#FFFFFF" d="M104.606,44.849c-3.226-2.104-4.131-6.42-2.027-9.646c2.1-3.225,6.419-4.132,9.64-2.029
		c3.226,2.102,4.133,6.419,2.03,9.644C112.149,46.043,107.83,46.95,104.606,44.849z"/>
	<path fill="#166891" d="M99.973,51.956c0,0-3.229,9.859-11.045,13.291c-7.813,3.437-17.257-0.858-17.257-0.858
		s3.226-9.857,11.04-13.291C90.526,47.664,99.973,51.956,99.973,51.956z"/>
	<path fill="#005C87" d="M93.968,54.592c1.195,2.723-0.044,5.899-2.767,7.097c-2.719,1.195-5.896-0.042-7.094-2.766
		c-1.195-2.723,0.043-5.897,2.764-7.096C89.593,50.634,92.773,51.871,93.968,54.592z"/>
	<path fill="#166891" d="M99.973,51.956c0,0,9.853,3.226,13.289,11.041c3.434,7.815-0.86,17.259-0.86,17.259
		s-9.855-3.229-13.292-11.041C95.678,61.399,99.973,51.956,99.973,51.956z"/>
	<path fill="#005C87" d="M102.606,57.959c2.723-1.197,5.898,0.04,7.094,2.763c1.198,2.721-0.038,5.9-2.761,7.096
		c-2.729,1.194-5.899-0.043-7.097-2.763C98.645,62.33,99.884,59.153,102.606,57.959z"/>
	<path fill="#166891" d="M99.973,51.956c0,0,3.226-9.858,11.039-13.291c7.813-3.434,17.257,0.859,17.257,0.859
		s-3.223,9.856-11.042,13.29C109.416,56.246,99.973,51.956,99.973,51.956z"/>
	<path fill="#005C87" d="M105.971,49.32c-1.195-2.724,0.044-5.9,2.767-7.097c2.723-1.195,5.899,0.043,7.095,2.766
		c1.195,2.718-0.042,5.897-2.765,7.095C110.346,53.278,107.166,52.042,105.971,49.32z"/>
	<path fill="#166891" d="M99.973,51.956c0,0-9.863-3.228-13.295-11.041c-3.435-7.815,0.858-17.258,0.858-17.258
		s9.858,3.228,13.289,11.041C104.261,42.512,99.973,51.956,99.973,51.956z"/>
	<path fill="#005C87" d="M97.333,45.954c-2.723,1.194-5.899-0.042-7.093-2.765c-1.198-2.721,0.04-5.899,2.76-7.094
		c2.723-1.195,5.904,0.04,7.1,2.763C101.292,41.582,100.056,44.758,97.333,45.954z"/>
	<path fill="#A3DBFF" d="M99.973,51.956c0,0-9.254,4.691-17.21,1.592c-7.952-3.1-11.596-12.812-11.596-12.812
		s9.253-4.688,17.207-1.591C96.326,42.244,99.973,51.956,99.973,51.956z"/>
	<circle fill="#FFFFFF" cx="85.57" cy="46.346" r="6.97"/>
	<path fill="#A3DBFF" d="M99.973,51.956c0,0,4.687,9.252,1.588,17.207C98.462,77.116,88.75,80.758,88.75,80.758
		s-4.689-9.252-1.591-17.204C90.258,55.597,99.973,51.956,99.973,51.956z"/>
	<circle fill="#FFFFFF" cx="94.361" cy="66.358" r="6.968"/>
	<path fill="#A3DBFF" d="M99.973,51.956c0,0,9.246-4.688,17.204-1.589c7.951,3.096,11.599,12.809,11.599,12.809
		s-9.258,4.688-17.207,1.592C103.61,61.671,99.973,51.956,99.973,51.956z"/>
	<path fill="#FFFFFF" d="M107.874,55.037c1.4-3.586,5.44-5.361,9.025-3.965c3.586,1.397,5.362,5.438,3.963,9.022
		c-1.395,3.587-5.435,5.362-9.021,3.966C108.256,62.662,106.479,58.622,107.874,55.037z"/>
	<path fill="#A3DBFF" d="M99.973,51.956c0,0-4.693-9.252-1.594-17.206c3.099-7.953,12.811-11.596,12.811-11.596
		s4.687,9.252,1.594,17.206C109.684,48.313,99.973,51.956,99.973,51.956z"/>
	<path fill="#FFFFFF" d="M103.049,44.049c-3.588-1.397-5.362-5.437-3.962-9.025c1.395-3.584,5.437-5.362,9.02-3.962
		c3.592,1.397,5.362,5.435,3.968,9.024C110.677,43.672,106.635,45.444,103.049,44.049z"/>
	<path fill="#166891" d="M99.973,51.956c0,0-1.483,10.266-8.594,14.994c-7.106,4.729-17.147,2.122-17.147,2.122
		s1.482-10.265,8.59-14.991C89.929,49.352,99.973,51.956,99.973,51.956z"/>
	<path fill="#005C87" d="M94.511,55.587c1.646,2.477,0.974,5.817-1.505,7.464c-2.474,1.649-5.816,0.974-7.462-1.501
		c-1.645-2.475-0.974-5.819,1.502-7.467C89.521,52.438,92.864,53.109,94.511,55.587z"/>
	<path fill="#166891" d="M99.973,51.956c0,0,10.259,1.484,14.99,8.588c4.731,7.109,2.122,17.148,2.122,17.148
		s-10.265-1.481-14.993-8.588C97.366,61.997,99.973,51.956,99.973,51.956z"/>
	<path fill="#005C87" d="M103.603,57.415c2.474-1.645,5.815-0.975,7.462,1.5c1.646,2.479,0.974,5.823-1.502,7.468
		c-2.474,1.646-5.816,0.973-7.463-1.5C100.454,62.403,101.12,59.061,103.603,57.415z"/>
	<path fill="#166891" d="M99.973,51.956c0,0,1.482-10.268,8.582-14.994c7.111-4.726,17.154-2.124,17.154-2.124
		s-1.482,10.268-8.594,14.994C110.014,54.559,99.973,51.956,99.973,51.956z"/>
	<path fill="#005C87" d="M105.429,48.327c-1.644-2.476-0.974-5.82,1.499-7.465c2.479-1.649,5.822-0.975,7.471,1.501
		c1.644,2.475,0.972,5.819-1.505,7.465C110.417,51.473,107.072,50.8,105.429,48.327z"/>
	<path fill="#166891" d="M99.973,51.956c0,0-10.271-1.483-14.998-8.59c-4.726-7.108-2.122-17.147-2.122-17.147
		s10.267,1.48,14.995,8.588C102.573,41.915,99.973,51.956,99.973,51.956z"/>
	<path fill="#005C87" d="M96.339,46.497c-2.476,1.645-5.817,0.974-7.465-1.502c-1.646-2.476-0.974-5.818,1.501-7.463
		c2.475-1.648,5.82-0.976,7.466,1.5C99.485,41.508,98.815,44.851,96.339,46.497z"/>
	<path fill="#A3DBFF" d="M99.973,51.956c0,0-8.312,6.21-16.679,4.528C74.927,54.8,69.666,45.857,69.666,45.857
		s8.309-6.21,16.677-4.526C94.71,43.016,99.973,51.956,99.973,51.956z"/>
	<path fill="#A3DBFF" d="M99.973,51.956c0,0,6.208,8.31,4.526,16.676c-1.688,8.368-10.63,13.626-10.63,13.626
		s-6.208-8.306-4.524-16.674C91.03,57.215,99.973,51.956,99.973,51.956z"/>
	<path fill="#A3DBFF" d="M99.973,51.956c0,0,8.306-6.213,16.673-4.528c8.367,1.684,13.627,10.626,13.627,10.626
		s-8.307,6.21-16.676,4.526C105.229,60.896,99.973,51.956,99.973,51.956z"/>
	<path fill="#A3DBFF" d="M99.973,51.956c0,0-6.215-8.308-4.53-16.674c1.685-8.368,10.625-13.628,10.625-13.628
		s6.212,8.306,4.529,16.677C108.912,46.696,99.973,51.956,99.973,51.956z"/>
	<path fill="#166891" d="M99.973,51.956c0,0,0.592,10.357-5.435,16.406c-6.023,6.046-16.384,5.494-16.384,5.494
		s-0.59-10.356,5.433-16.403C89.613,51.403,99.973,51.956,99.973,51.956z"/>
	<path fill="#005C87" d="M95.343,56.598c2.106,2.103,2.111,5.512,0.014,7.619c-2.097,2.104-5.506,2.111-7.612,0.014
		c-2.109-2.099-2.115-5.507-0.018-7.614C89.826,54.509,93.238,54.502,95.343,56.598z"/>
	<path fill="#166891" d="M99.973,51.956c0,0,10.351-0.591,16.401,5.43c6.049,6.026,5.495,16.385,5.495,16.385
		s-10.356,0.592-16.401-5.433C99.419,62.314,99.973,51.956,99.973,51.956z"/>
	<path fill="#005C87" d="M104.333,57.107c2.098-2.104,5.509-2.112,7.614-0.014c2.103,2.097,2.114,5.506,0.014,7.611
		c-2.097,2.108-5.509,2.115-7.611,0.017C102.241,62.623,102.235,59.214,104.333,57.107z"/>
	<path fill="#166891" d="M99.973,51.956c0,0-0.595-10.355,5.429-16.403c6.022-6.048,16.382-5.495,16.382-5.495
		s0.595,10.354-5.432,16.402C110.331,52.507,99.973,51.956,99.973,51.956z"/>
	<path fill="#005C87" d="M104.593,47.312c-2.105-2.099-2.108-5.506-0.011-7.614c2.097-2.107,5.506-2.114,7.614-0.017
		c2.108,2.097,2.111,5.507,0.017,7.616C110.11,49.402,106.704,49.409,104.593,47.312z"/>
	<path fill="#166891" d="M99.973,51.956c0,0-10.358,0.591-16.409-5.431c-6.045-6.023-5.493-16.383-5.493-16.383
		s10.354-0.59,16.401,5.433C100.521,41.597,99.973,51.956,99.973,51.956z"/>
	<circle fill="#005C87" cx="91.509" cy="43.529" r="5.384"/>
	<path fill="#A3DBFF" d="M99.973,51.956c0,0-6.909,7.743-15.443,7.758c-8.536,0.014-15.471-7.697-15.471-7.697
		s6.907-7.74,15.443-7.757C93.033,44.242,99.973,51.956,99.973,51.956z"/>
	<circle fill="#FFFFFF" cx="84.515" cy="51.985" r="6.969"/>
	<path fill="#A3DBFF" d="M99.973,51.956c0,0,7.735,6.905,7.755,15.439c0.014,8.536-7.7,15.471-7.7,15.471s-7.738-6.902-7.758-15.438
		C92.256,58.891,99.973,51.956,99.973,51.956z"/>
	<path fill="#FFFFFF" d="M99.983,60.441c3.852-0.005,6.978,3.108,6.983,6.958c0.009,3.845-3.104,6.974-6.956,6.979
		c-3.846,0.01-6.972-3.106-6.98-6.955S96.138,60.45,99.983,60.441z"/>
	<path fill="#A3DBFF" d="M99.973,51.956c0,0,6.9-7.742,15.438-7.758c8.533-0.017,15.467,7.699,15.467,7.699s-6.9,7.739-15.439,7.758
		C106.906,59.669,99.973,51.956,99.973,51.956z"/>
	<path fill="#FFFFFF" d="M108.455,51.939c-0.005-3.849,3.107-6.975,6.956-6.982c3.852-0.007,6.979,3.107,6.983,6.956
		c0.006,3.847-3.104,6.975-6.956,6.985C111.59,58.9,108.464,55.788,108.455,51.939z"/>
	<path fill="#A3DBFF" d="M99.973,51.956c0,0-7.745-6.905-7.761-15.44s7.698-15.469,7.698-15.469s7.741,6.905,7.761,15.438
		C107.684,45.021,99.973,51.956,99.973,51.956z"/>
	<path fill="#FFFFFF" d="M99.953,43.47c-3.849,0.008-6.975-3.106-6.983-6.957c-0.006-3.849,3.107-6.976,6.953-6.982
		c3.854-0.007,6.978,3.107,6.988,6.958C106.917,40.336,103.802,43.461,99.953,43.47z"/>
</g>
<g>
	<path fill="#166891" d="M14.961,95.071l5.91,16.604h0.067V95.071h4.482v24.245h-5.569l-5.976-16.979h-0.068v16.979H9.323V95.071
		H14.961z"/>
	<path fill="#166891" d="M36.931,95.071h6.044l6.418,24.245h-5.094l-1.121-5.129h-6.451l-1.119,5.129h-5.093L36.931,95.071z
		 M37.576,110.181h4.753l-2.343-10.9h-0.068L37.576,110.181z"/>
	<path fill="#166891" d="M58.12,95.071l3.429,17.93h0.102l3.599-17.93h5.062l-5.568,24.245h-6.284l-5.57-24.245H58.12z"/>
	<path fill="#166891" d="M75.741,119.316V95.071h4.89v24.245H75.741z"/>
	<path fill="#166891" d="M98.426,102.27c0-1.8-0.814-4.075-2.785-4.075c-2.377,0-3.328,2.445-3.328,8.488
		c0,5.841,0.544,9.508,3.362,9.508c1.156,0,3.022-1.258,3.022-3.87v-2.479h-3.229v-3.601h7.912v13.075h-3.599v-2.242h-0.067
		c-1.154,1.9-2.816,2.717-5.093,2.717c-6.01,0-7.198-4.482-7.198-12.869c0-8.149,1.902-12.326,8.15-12.326
		c5.361,0,7.535,2.75,7.535,7.674H98.426z"/>
	<path fill="#166891" d="M114.656,95.071h6.043l6.42,24.245h-5.096l-1.119-5.129h-6.451l-1.121,5.129h-5.094L114.656,95.071z
		 M115.303,110.181h4.754l-2.344-10.9h-0.068L115.303,110.181z"/>
	<path fill="#166891" d="M146.404,95.071v4.006h-5.297v20.239h-4.891v-20.24h-5.297V95.07L146.404,95.071L146.404,95.071z"/>
	<path fill="#166891" d="M159.648,94.595c7.332,0,8.25,5.229,8.25,12.598s-0.918,12.599-8.25,12.599
		c-7.336,0-8.254-5.229-8.254-12.599S152.313,94.595,159.648,94.595z M159.648,116.191c2.885,0,3.361-2.479,3.361-8.998
		c0-6.485-0.477-8.999-3.361-8.999c-2.889,0-3.363,2.514-3.363,8.999C156.285,113.712,156.762,116.191,159.648,116.191z"/>
	<path fill="#166891" d="M174.182,95.071h9.031c4.008,0,6.451,2.104,6.451,6.247c0,3.226-1.291,5.397-4.041,5.978v0.066
		c3.326,0.441,3.838,2.275,3.902,7.404c0.037,2.547,0.172,3.871,1.088,4.348v0.203h-5.297c-0.475-0.68-0.578-1.596-0.611-2.549
		l-0.135-4.649c-0.068-1.903-0.92-3.057-2.887-3.057h-2.617v10.255h-4.887V95.071H174.182z M179.068,105.663h2.039
		c2.344,0,3.666-1.018,3.666-3.631c0-2.243-1.188-3.363-3.395-3.363h-2.311V105.663L179.068,105.663z"/>
</g>
</svg>
